<svg width="1508" height="352" viewBox="0 0 1508 352" fill="none" xmlns="http://www.w3.org/2000/svg">
<mask id="mask0_61_1131" style="mask-type:luminance" maskUnits="userSpaceOnUse" x="0" y="44" width="1511" height="308">
<path d="M1511 44.0879H0V351.699H1511V44.0879Z" fill="white"/>
</mask>
<g mask="url(#mask0_61_1131)">
<path d="M729.112 386.223C634.057 386.223 557.001 309.166 557.001 214.112C557.001 119.057 634.057 42 729.112 42C824.167 42 901.224 119.057 901.224 214.112C901.224 309.166 824.167 386.223 729.112 386.223Z" fill="#77D9FB"/>
<path d="M506.974 351.947C451.207 351.947 406 306.74 406 250.974C406 195.207 451.207 150 506.974 150C562.74 150 607.947 195.207 607.947 250.974C607.947 306.74 562.74 351.947 506.974 351.947Z" fill="#77D9FB"/>
<path d="M269.111 419.222C186.759 419.222 120 352.463 120 270.111C120 187.759 186.759 121 269.111 121C351.463 121 418.222 187.759 418.222 270.111C418.222 352.463 351.463 419.222 269.111 419.222Z" fill="#77D9FB"/>
<path d="M58.1108 526.222C-24.2409 526.222 -91.0001 459.463 -91.0001 377.111C-91.0001 294.759 -24.2409 228 58.1108 228C140.462 228 207.222 294.759 207.222 377.111C207.222 459.463 140.462 526.222 58.1108 526.222Z" fill="#77D9FB"/>
<path d="M1287.21 395.575C1223.51 406.589 1162.95 363.888 1151.94 300.2C1140.93 236.513 1183.63 175.955 1247.33 164.942C1311.02 153.928 1371.58 196.629 1382.59 260.317C1393.61 324.004 1350.9 384.561 1287.21 395.575Z" fill="#77D9FB"/>
<path d="M1139.21 470.837C1075.51 481.85 1014.95 439.15 1003.94 375.462C992.928 311.774 1035.63 251.217 1099.33 240.204C1163.02 229.19 1223.58 271.891 1234.59 335.578C1245.61 399.266 1202.9 459.823 1139.21 470.837Z" fill="#77D9FB"/>
<path d="M1472.06 532.296C1387.09 546.989 1306.29 490.022 1291.6 405.055C1276.91 320.089 1333.89 239.298 1418.86 224.605C1503.83 209.911 1584.63 266.879 1599.32 351.846C1614.01 436.812 1557.04 517.603 1472.06 532.296Z" fill="#77D9FB"/>
<path d="M1395.41 595.926C1300.36 595.926 1223.3 518.869 1223.3 423.815C1223.3 328.76 1300.36 251.703 1395.41 251.703C1490.47 251.703 1567.52 328.76 1567.52 423.815C1567.52 518.869 1490.47 595.926 1395.41 595.926Z" fill="#77D9FB"/>
<path d="M961.727 586.732C893.295 586.732 837.82 531.257 837.82 462.825C837.82 394.393 893.295 338.918 961.727 338.918C1030.16 338.918 1085.63 394.393 1085.63 462.825C1085.63 531.257 1030.16 586.732 961.727 586.732Z" fill="#77D9FB"/>
<path d="M1049.25 607.499C914.907 607.499 806 498.592 806 364.249C806 229.907 914.907 121 1049.25 121C1183.59 121 1292.5 229.907 1292.5 364.249C1292.5 498.592 1183.59 607.499 1049.25 607.499Z" fill="#77D9FB"/>
<path d="M483.448 644.895C358.936 644.895 258 543.959 258 419.448C258 294.936 358.936 194 483.448 194C607.959 194 708.896 294.936 708.896 419.448C708.896 543.959 607.959 644.895 483.448 644.895Z" fill="#77D9FB"/>
<path d="M50.7159 591.318C-46.8718 591.318 -125.982 512.208 -125.982 414.62C-125.982 317.032 -46.8718 237.922 50.7159 237.922C148.304 237.922 227.414 317.032 227.414 414.62C227.414 512.208 148.304 591.318 50.7159 591.318Z" fill="#77D9FB"/>
</g>
</svg>
