<svg width="253" height="78" viewBox="0 0 253 78" fill="none" xmlns="http://www.w3.org/2000/svg">
<path fill-rule="evenodd" clip-rule="evenodd" d="M38.1277 33.2576C47.5051 33.2576 56.0466 36.7833 62.698 42.417C70.6216 20.5363 91.6664 4.90723 116.237 4.90723C144.769 4.90723 168.54 25.952 172.465 53.4301C178.099 49.0685 184.968 46.3424 192.674 46.3424C205.177 46.3424 216.008 53.4301 221.206 63.8252C224.332 60.9175 228.693 59.2455 233.491 59.2455C243.923 59.2455 252.246 67.5689 252.246 78.0004H0.617894C0.21808 75.7106 0 73.6388 0 71.5307C0 50.2679 17.0829 33.1849 38.1277 33.1849V33.2576Z" fill="black" fill-opacity="0.129412"/>
<path fill-rule="evenodd" clip-rule="evenodd" d="M38.1277 28.3504C47.5051 28.3504 56.0466 31.876 62.698 37.5098C70.6216 15.6291 91.6664 0 116.237 0C144.769 0 168.54 21.0447 172.465 48.5228C178.099 44.1612 184.968 41.4352 192.674 41.4352C205.177 41.4352 216.008 48.5228 221.206 58.918C224.332 56.0103 228.693 54.3383 233.491 54.3383C243.923 54.3383 252.246 62.6617 252.246 73.0932H0.617894C0.21808 70.8034 0 68.7316 0 66.6235C0 45.3607 17.0829 28.2777 38.1277 28.2777V28.3504Z" fill="#F6F5F4"/>
</svg>
