<svg width="1508" height="508" viewBox="0 0 1508 508" fill="none" xmlns="http://www.w3.org/2000/svg">
<mask id="mask0_61_175" style="mask-type:luminance" maskUnits="userSpaceOnUse" x="0" y="0" width="1508" height="508">
<path d="M0 0H1507.54V507.523H0V0Z" fill="white"/>
</mask>
<g mask="url(#mask0_61_175)">
<path d="M880.256 530.613C975.122 530.613 1052.03 453.709 1052.03 358.843C1052.03 263.977 975.122 187.073 880.256 187.073C785.39 187.073 708.486 263.977 708.486 358.843C708.486 453.709 785.39 530.613 880.256 530.613Z" fill="#F7F3F1"/>
<path d="M1093.25 377.175C1148.9 377.175 1194.02 332.058 1194.02 276.402C1194.02 220.747 1148.9 175.629 1093.25 175.629C1037.59 175.629 992.473 220.747 992.473 276.402C992.473 332.058 1037.59 377.175 1093.25 377.175Z" fill="#F7F3F1"/>
<path d="M1288.24 534.023C1370.43 534.023 1437.05 467.397 1437.05 385.208C1437.05 303.02 1370.43 236.394 1288.24 236.394C1206.05 236.394 1139.43 303.02 1139.43 385.208C1139.43 467.397 1206.05 534.023 1288.24 534.023Z" fill="#F7F3F1"/>
<path d="M1468.94 375.986C1551.13 375.986 1617.76 309.359 1617.76 227.171C1617.76 144.983 1551.13 78.3564 1468.94 78.3564C1386.75 78.3564 1320.13 144.983 1320.13 227.171C1320.13 309.359 1386.75 375.986 1468.94 375.986Z" fill="#F7F3F1"/>
<path d="M235.082 431.373C298.648 442.365 359.089 399.749 370.08 336.188C381.071 272.627 338.45 212.19 274.883 201.198C211.316 190.206 150.876 232.822 139.885 296.383C128.894 359.945 171.515 420.382 235.082 431.373Z" fill="#F7F3F1"/>
<path d="M379.425 470.276C442.991 481.267 503.432 438.651 514.423 375.09C525.413 311.529 482.792 251.092 419.226 240.101C355.659 229.109 295.219 271.725 284.228 335.286C273.237 398.847 315.858 459.284 379.425 470.276Z" fill="#F7F3F1"/>
<path d="M43.7913 401.872C128.597 416.536 209.231 359.681 223.894 274.883C238.557 190.085 181.696 109.455 96.8907 94.7912C12.0856 80.127 -68.5493 136.982 -83.2123 221.779C-97.8753 306.577 -41.0138 387.207 43.7913 401.872Z" fill="#F7F3F1"/>
<path d="M115.358 594.743C210.224 594.743 287.128 517.839 287.128 422.973C287.128 328.107 210.224 251.203 115.358 251.203C20.4924 251.203 -56.4116 328.107 -56.4116 422.973C-56.4116 517.839 20.4924 594.743 115.358 594.743Z" fill="white"/>
<path d="M358.103 629.075C426.399 629.075 481.764 573.71 481.764 505.414C481.764 437.118 426.399 381.753 358.103 381.753C289.807 381.753 234.442 437.118 234.442 505.414C234.442 573.71 289.807 629.075 358.103 629.075Z" fill="white"/>
<path d="M115.358 594.743C210.224 594.743 287.128 517.839 287.128 422.973C287.128 328.107 210.224 251.203 115.358 251.203C20.4924 251.203 -56.4116 328.107 -56.4116 422.973C-56.4116 517.839 20.4924 594.743 115.358 594.743Z" fill="#F7F3F1"/>
<path d="M358.103 629.075C426.399 629.075 481.764 573.71 481.764 505.414C481.764 437.118 426.399 381.753 358.103 381.753C289.807 381.753 234.442 437.118 234.442 505.414C234.442 573.71 289.807 629.075 358.103 629.075Z" fill="#F7F3F1"/>
<path d="M548.182 585.566C616.478 585.566 671.843 530.201 671.843 461.905C671.843 393.609 616.478 338.244 548.182 338.244C479.886 338.244 424.521 393.609 424.521 461.905C424.521 530.201 479.886 585.566 548.182 585.566Z" fill="#F7F3F1"/>
<path d="M706.22 681.739C774.516 681.739 829.881 626.374 829.881 558.078C829.881 489.782 774.516 434.417 706.22 434.417C637.924 434.417 582.559 489.782 582.559 558.078C582.559 626.374 637.924 681.739 706.22 681.739Z" fill="#F7F3F1"/>
<path d="M981.029 773.357C1115.11 773.357 1223.8 664.667 1223.8 530.591C1223.8 396.515 1115.11 287.824 981.029 287.824C846.953 287.824 738.263 396.515 738.263 530.591C738.263 664.667 846.953 773.357 981.029 773.357Z" fill="#F7F3F1"/>
<path d="M1239.82 711.538C1337.21 711.538 1416.16 632.584 1416.16 535.19C1416.16 437.796 1337.21 358.843 1239.82 358.843C1142.42 358.843 1063.47 437.796 1063.47 535.19C1063.47 632.584 1142.42 711.538 1239.82 711.538Z" fill="#F7F3F1"/>
<path d="M1457.38 590.143C1554.78 590.143 1633.73 511.19 1633.73 413.796C1633.73 316.402 1554.78 237.448 1457.38 237.448C1359.99 237.448 1281.04 316.402 1281.04 413.796C1281.04 511.19 1359.99 590.143 1457.38 590.143Z" fill="#F7F3F1"/>
</g>
</svg>
