<svg width="92" height="92" viewBox="0 0 92 92" fill="none" xmlns="http://www.w3.org/2000/svg">
<path fill-rule="evenodd" clip-rule="evenodd" d="M91.4776 52.8713C95.2723 27.7545 77.9879 4.3172 52.8713 0.522543C27.7548 -3.27258 4.31747 14.0121 0.5225 39.1284C-3.27247 64.2452 14.0124 87.6825 39.1287 91.4775C64.2452 95.2725 87.6828 77.9878 91.4776 52.8713Z" fill="#0073E6"/>
<path fill-rule="evenodd" clip-rule="evenodd" d="M17.838 82.7803C17.8352 82.7971 17.815 82.8045 17.8018 82.82C17.8682 82.8491 17.9302 82.8802 18.0034 82.9064L17.838 82.7803Z" fill="white"/>
<path fill-rule="evenodd" clip-rule="evenodd" d="M24.6621 18.2509L25.1442 18.049C25.9217 18.0505 25.5084 17.5261 26.1149 17.4219C26.804 17.3113 27.4992 16.9097 28.149 16.9888C28.6757 17.0444 29.0542 18.1189 29.6949 17.93C29.4988 18.1497 28.1661 18.2446 27.9124 18.3937L26.4068 19.2814C25.8011 19.3231 24.9298 18.7962 24.6621 18.2509Z" fill="#16B165"/>
<path fill-rule="evenodd" clip-rule="evenodd" d="M27.6333 60.1606C27.5625 60.5603 27.2741 60.8757 27.0174 61.1826C25.8712 62.5487 25.065 64.174 24.6736 65.9136C24.2978 67.5755 24.0597 69.649 22.4753 70.2543C21.565 70.5915 20.412 70.331 19.7369 71.0305C19.5419 71.2569 19.3853 71.5161 19.2763 71.7945C17.0525 76.8034 16.5422 75.0703 15.0218 77.0595C14.6519 77.5431 14.6114 78.1835 14.6771 78.7862C14.7331 79.1966 14.8385 79.5936 14.9864 79.9698C13.7313 78.8216 12.5438 77.6056 11.4263 76.3302C10.417 74.3012 8.866 72.6837 8.5435 70.4102C8.30287 68.7121 9.11658 66.3569 8.3793 64.8235C7.76553 63.5234 6.7014 62.4774 6.08809 61.175C5.23555 59.3127 5.35998 57.0801 4.30688 55.3335C3.72014 54.3401 2.77346 53.0845 3.55299 52.2331C3.86818 51.8811 4.47031 51.594 4.31605 51.1497C4.2651 51.0046 4.13771 50.908 4.03643 50.768C3.67385 50.2386 4.08194 49.5571 4.38891 48.9907L5.09108 45.7627C4.15402 44.6365 3.48759 43.3017 3.15312 41.8725C2.95832 41.0012 2.68926 39.9099 1.8086 39.7659C1.67484 39.1015 1.53705 38.4209 1.40454 37.7476C1.27529 37.96 0.937256 38.2659 0.789987 38.0655C0.763578 38.0293 0.739965 37.9943 0.713867 37.9584C2.57104 27.471 7.87132 18.4133 15.268 11.7786C15.8975 12.0689 16.6921 12.4686 16.7859 12.4312C18.4717 11.76 19.9149 10.59 21.5637 9.82962C21.9022 9.66572 22.2821 9.52778 22.6563 9.62518C23.0301 9.72227 23.3143 10.1434 23.129 10.4743C23.0444 10.6082 22.9215 10.714 22.7764 10.7777C20.7918 12.0082 18.6682 13.0246 16.4631 13.795C16.1919 13.8534 15.9469 14.0025 15.7707 14.2177C15.497 14.6062 15.7707 15.1844 16.1906 15.4047C16.6105 15.6251 17.118 15.6096 17.5848 15.5747C17.2731 15.9107 17.0696 16.3326 17.0011 16.7856C16.9684 17.0035 16.9673 17.2254 16.9979 17.4433C17.4119 17.5468 17.6335 16.9916 17.8199 16.6094C18.5732 15.0926 21.2127 14.8273 21.3025 13.1244C21.9377 13.5857 22.7581 12.889 23.2774 12.2948C23.7969 11.7011 24.8367 11.1749 25.2627 11.8387C25.2428 12.1708 25.2329 12.5069 25.2146 12.8413C26.1539 12.7511 27.1056 12.652 28.0493 12.5625C27.6679 12.757 27.4034 13.1236 27.3394 13.5472C27.23 14.2722 27.7287 14.9491 28.4537 15.0584C28.614 15.0827 28.7774 15.0771 28.9357 15.0424C28.8626 15.5257 28.3654 15.8307 27.9232 16.0562C26.8117 16.6574 25.6262 17.2687 24.4092 17.4589L24.5922 18.0538C24.5619 18.0621 24.5301 18.0656 24.4982 18.063C23.7482 18.0228 23.0456 17.3709 22.2423 17.3546C17.6454 17.2616 27.5653 22.1623 20.3401 21.0707C20.2809 21.0618 20.2208 21.0508 20.1627 21.0384C20.4502 18.6825 18.4503 20.2916 17.7059 21.2173C17.5499 21.411 9.80818 28.9401 9.36995 29.1529C8.73396 29.467 7.97276 29.3434 7.27168 29.4479C6.5706 29.5525 5.80381 30.1201 5.97438 30.8097C5.91628 30.8179 5.85662 30.8176 5.79868 30.8089C5.50243 30.7643 5.28371 30.5086 5.28526 30.2091C3.74903 32.3607 2.59403 34.769 1.87881 37.3142C2.40497 37.8126 3.14101 36.9658 3.36144 36.2751C3.58173 35.5843 4.3479 34.7507 4.86007 35.2577C4.57377 36.2563 4.287 37.2441 4.00287 38.2432C3.97242 38.3143 3.95098 38.3887 3.93949 38.4652C3.92131 38.5853 3.92753 38.7077 3.95766 38.8254C4.03938 39.0525 4.27038 39.1885 4.43411 39.3699C4.88866 39.9004 4.69743 40.6989 4.62348 41.3857C4.53804 42.2384 4.67319 43.0998 5.0148 43.8852C4.99492 43.7338 4.98699 43.5865 4.97736 43.437C5.09108 43.4689 5.20774 43.4939 5.32425 43.5113C6.02098 43.6168 6.732 43.4649 7.32496 43.0855C7.6877 42.8456 8.01222 42.5168 8.43538 42.4324C8.85839 42.3481 9.3075 42.5191 9.71031 42.6957L13.0107 45.025C13.3726 45.6147 13.5524 46.3162 14.0125 46.8261L18.0602 49.1566C18.797 50.1937 18.7942 50.3306 18.3687 51.5379L18.0375 53.2158C18.502 53.2857 18.8268 53.9793 18.4296 54.233L21.6632 53.5057C22.8037 53.7617 23.7622 55.9089 24.9051 56.1781C24.435 57.8385 27.9619 58.4724 27.6333 60.1606Z" fill="#16B165"/>
<path fill-rule="evenodd" clip-rule="evenodd" d="M27.939 11.7577L27.5354 11.7238C27.0442 11.6829 26.5873 11.0135 26.6612 10.5268C26.7234 10.1156 27.3298 10.1598 27.4749 9.77046L27.7763 8.96235C27.9887 8.34189 28.8625 8.33987 29.6153 8.25925C30.1808 8.19835 30.7395 8.39673 31.284 8.58843C31.3751 8.88949 31.3977 9.20764 31.3508 9.51865C31.3292 9.66017 31.3437 9.8312 31.2443 9.93389L29.4065 11.8265L28.048 11.7238L27.939 11.7577Z" fill="#16B165"/>
<path fill-rule="evenodd" clip-rule="evenodd" d="M34.3401 6.15533L44.8689 6.05078C49.3719 6.58921 51.521 7.109 56.0245 7.64744L52.6469 8.88586C51.7361 9.22747 50.6894 9.5568 49.7991 9.1515C49.6977 9.93103 50.221 10.6556 50.993 10.8039C48.9811 11.6641 46.6008 10.1143 44.5114 10.7761C43.6357 11.054 42.8661 11.7115 41.9456 11.7181C41.4161 11.7242 40.904 11.503 40.3658 11.5376C39.4763 11.5965 38.8089 12.3315 38.0783 12.8441C37.2389 13.4371 36.0868 13.7547 35.1788 13.2652C34.271 12.7756 33.9854 11.2824 34.8547 10.7328C35.2823 10.4623 35.8322 10.4894 36.3127 10.3259C38.474 9.58865 35.8502 9.41684 35.7671 9.26491C35.6613 9.07041 34.5027 9.24254 34.4137 9.0207L34.3401 6.15533Z" fill="#16B165"/>
<path fill-rule="evenodd" clip-rule="evenodd" d="M76.038 38.6421C76.1323 38.6589 78.4603 40.4182 78.4949 40.5076C79.9473 44.2857 81.8041 46.8158 82.9006 50.7267C82.9287 50.8297 83.015 50.9061 83.1204 50.9219C83.2154 50.9367 83.3113 50.8989 83.3714 50.8238C83.6697 50.4623 84.0621 50.1895 84.5044 50.0347C84.9589 49.8713 85.4473 49.8505 85.9186 49.7329C87.2027 49.3932 88.1623 48.3222 88.3608 47.0091C88.5605 45.6864 87.95 44.372 86.8106 43.6717C86.2621 43.3357 85.6 43.154 85.1009 42.7303C84.6022 42.3069 84.3088 41.5064 84.7419 41.0131C85.145 40.5479 85.9376 40.6784 86.4372 41.0545C86.9366 41.4307 87.2652 42.0002 87.7348 42.4173C88.0672 42.7209 88.4738 42.9587 88.8432 43.229C90.8273 44.8008 90.9354 47.7111 91.0181 50.2479C91.0619 51.5595 91.1378 52.8662 91.2623 54.1608C91.3395 53.7332 91.4119 53.3037 91.4771 52.8714C93.2328 41.2502 90.4737 29.9905 84.5163 20.8674C84.2236 20.8269 84.0141 20.7991 83.9501 20.7895C83.9055 20.7262 83.8375 20.6841 83.7612 20.6726C83.7584 20.6722 83.7556 20.6719 83.7531 20.6714C83.7377 20.6698 83.7217 20.6675 83.7062 20.665C83.5922 20.6479 83.4795 20.6169 83.3725 20.5732C82.6245 20.2905 82.1286 19.6076 81.5344 19.0751C80.7506 18.3867 79.7838 17.936 78.7514 17.7798C78.1827 17.6939 77.6029 17.6987 77.0357 17.7938C77.0095 17.7978 76.9829 17.7978 76.9567 17.7938C76.8083 17.7715 76.7061 17.6327 76.7285 17.4843C76.7336 17.4486 76.7466 17.4147 76.765 17.3838C76.9626 17.043 78.8166 16.2996 78.8755 15.9103C78.8847 15.8494 77.2351 16.0829 77.1746 16.0941L76.9248 16.1401L71.5525 12.0694C69.5247 11.7203 67.8302 15.4132 66.3392 13.2303C65.5696 13.3762 65.8696 13.0342 65.1732 13.3929C64.4764 13.7516 62.8527 15.0214 63.3251 15.6493C63.7188 16.1836 64.4772 16.1691 65.1168 16.3302C65.7128 16.4806 66.3153 17.1559 66.0067 17.6505C65.9701 17.7023 65.9185 17.7544 65.8556 17.7548L60.0195 17.7953L57.9742 18.998C57.9102 19.0358 57.9811 19.1487 58.0291 19.206C58.8134 20.1468 58.2574 20.9808 57.8807 22.2086C57.8482 22.3297 57.4067 23.3129 58.0586 23.9304C58.7044 24.543 56.1071 21.3077 53.9337 22.2232L53.575 25.2047C53.3381 26.5886 53.2183 28.0243 54.6097 28.2152C55.559 28.3587 56.5808 27.9651 57.4771 28.2188C57.4875 28.2216 57.4982 28.2239 57.509 28.2254C57.6346 28.2446 57.756 28.1719 57.7988 28.0525C58.0601 27.2325 58.7576 26.6117 59.4528 26.0896C60.9429 24.9871 62.554 25.4118 63.8822 24.8622C64.4028 25.1824 65.5729 25.7348 65.982 26.189C66.8268 27.1259 67.7041 28.0337 68.5571 28.9647C68.5993 29.0101 68.6557 29.0399 68.7174 29.0496C68.7906 29.0603 68.865 29.0412 68.9242 28.9966C69.166 28.8184 69.4078 28.6399 69.6496 28.4617C69.7076 28.4164 69.782 28.3969 69.8552 28.408C69.9283 28.4192 69.9936 28.4594 70.0357 28.5198L71.1807 30.1559C71.2241 30.2175 71.2901 30.2585 71.3643 30.2697C71.4169 30.2776 71.4709 30.27 71.5191 30.2478C71.6674 30.1782 71.817 30.1106 71.9669 30.043C72.0154 30.0203 72.0695 30.0122 72.1224 30.0203C72.2334 30.0369 72.3224 30.1201 72.3471 30.2291L72.4235 30.5626C72.4485 30.6725 72.5383 30.7551 72.6494 30.7724C72.7865 30.793 72.9173 30.7079 72.9543 30.5743C72.9964 30.4239 73.0407 30.2735 73.0833 30.1213C73.1182 29.9896 73.247 29.9054 73.3815 29.9256C73.3842 29.926 73.387 29.9263 73.3894 29.9268C73.9947 30.031 74.6203 30.1129 75.2036 29.9197C75.8789 29.7165 76.4318 29.044 76.2707 28.3618C76.1871 28.0036 75.9087 27.6867 75.9 27.3156C75.8766 26.575 76.9781 26.239 77.5966 26.6673C77.9748 26.9589 78.2487 27.3658 78.3776 27.8254C78.4098 27.9236 78.4945 27.9952 78.5967 28.0108C78.7236 28.0299 78.8469 27.9583 78.8934 27.8389L79.0545 27.4122C79.0991 27.2906 79.2227 27.2174 79.3504 27.2368C79.4578 27.2531 79.5452 27.3314 79.5727 27.4364C79.9167 28.7008 80.4114 29.9256 81.0425 31.0742C81.0679 31.1247 81.0771 31.1815 81.0687 31.2368C81.0465 31.3843 80.9089 31.4857 80.7617 31.4635C80.7523 31.4619 80.7426 31.4599 80.7332 31.4574C80.2814 31.3318 79.8188 31.2308 79.3543 31.1609C78.0261 30.96 76.6704 30.997 75.3552 31.2674C75.243 31.2932 75.1587 31.3843 75.1416 31.4977C75.1314 31.566 75.1467 31.6356 75.1849 31.6934C75.7111 32.4669 76.5368 32.9867 77.4617 33.1262C77.4967 33.1313 77.5333 33.1361 77.5683 33.1405C78.0551 33.2014 78.6051 33.1728 78.9308 33.5354C79.1725 33.8127 79.1861 34.206 79.1857 34.5642C79.1972 35.368 79.2084 36.1662 79.2191 36.9583C79.2191 36.9727 79.2255 36.9906 79.2159 37.0013C79.1006 37.1341 75.3544 36.8593 75.76 36.9806L76.038 38.6421Z" fill="#16B165"/>
<path fill-rule="evenodd" clip-rule="evenodd" d="M75.6753 38.8132C75.6366 38.6879 75.6387 37.0053 75.6053 36.9806C74.6253 36.2553 73.2494 36.122 72.0011 35.9076C70.6982 35.6743 69.2418 35.1167 68.722 33.9642C68.6847 33.8755 68.6039 33.8123 68.5089 33.798C68.4135 33.7836 68.3176 33.8198 68.256 33.8939C67.8996 34.3117 67.6663 34.8224 67.5842 35.3661C67.5763 35.4186 67.5696 35.4722 67.5648 35.5251C67.564 35.5303 67.5636 35.5354 67.5628 35.5407C67.5401 35.6889 67.4017 35.7911 67.2533 35.7689C67.2296 35.7653 67.2069 35.7585 67.185 35.749C65.9139 35.2026 64.5901 34.4397 64.2969 33.1645C64.2704 33.0638 64.1865 32.9886 64.0835 32.9731C64.0616 32.97 64.0389 32.9692 64.0167 32.9716C62.8482 33.0702 61.6564 32.1443 61.5263 30.9712C61.4741 30.5337 61.5207 30.0124 61.185 29.7316C61.0348 29.6346 60.865 29.5698 60.6879 29.5431C60.5981 29.5295 60.5066 29.5257 60.4159 29.5316C58.1444 29.4528 55.8848 29.3649 53.6235 29.2874C52.3894 29.2491 51.1113 29.2063 49.9524 29.6394C48.8449 30.0458 47.8586 30.9987 47.7197 32.1594C47.7194 32.1642 47.7186 32.169 47.7182 32.1739C47.7039 32.2669 47.643 32.346 47.5571 32.3837C45.3869 33.2956 44.8982 32.9186 43.441 34.7695C42.9765 35.3437 43.0025 37.8007 43.0387 38.5428C43.0576 39.113 41.4467 39.7251 41.4773 40.2885C41.5333 41.255 40.8608 42.0794 40.4961 42.9719L40.5909 49.7532C41.3269 50.8099 44.2281 52.78 45.4955 53.023C46.2825 53.1741 47.5579 51.9464 48.341 51.7682C50.3807 51.3029 52.0259 52.2125 54.0962 52.5255C54.1567 52.5345 54.2176 52.5437 54.278 52.5529C54.4236 52.5776 54.5234 52.7144 54.5011 52.8603C54.4984 52.8782 54.4939 52.8953 54.488 52.9123C54.3345 53.3316 54.6884 53.9608 55.1764 54.1421C55.7864 54.3715 56.515 54.269 57.1 54.5787C58.2923 55.2186 58.0132 56.91 57.3435 58.1579C57.3267 58.1873 57.3157 58.2191 57.3104 58.2522C57.2882 58.4009 57.3904 58.5393 57.5387 58.562C57.5554 58.5643 57.5721 58.5651 57.5892 58.5648C57.6051 58.5643 57.6211 58.5651 57.6369 58.5676C57.7876 58.5906 57.8914 58.7313 57.8684 58.8822C57.8636 58.9151 57.8525 58.9469 57.8362 58.976L57.5133 59.5371C57.4957 59.5665 57.4837 59.5991 57.4786 59.6333C57.4607 59.7523 57.5255 59.8688 57.6361 59.9165C59.2817 60.6292 57.8386 62.9596 57.1403 64.6951C56.4112 66.5336 56.7354 68.2536 56.4084 70.2043C56.2466 71.2756 56.4084 72.3633 56.5851 73.4276C57.011 76.0702 57.435 78.7184 57.8572 81.3733C57.8735 81.4851 57.9579 81.5749 58.0685 81.5984C60.2453 82.0347 61.9789 79.433 64.1972 78.8551C65.0522 78.6277 66.0082 78.6993 66.7269 78.1954C66.9948 77.9791 67.1723 77.6701 67.224 77.3293C67.265 77.0584 67.224 76.7817 67.1067 76.5342C67.0769 76.4817 67.0654 76.421 67.0744 76.3613C67.0899 76.2576 67.1656 76.172 67.2666 76.1437C68.1267 75.9214 68.7872 75.2299 68.969 74.3601C69.0266 74.0634 69.0276 73.7588 69.1038 73.4674C69.2387 73.058 71.1698 70.3761 71.4808 70.0536C73.4871 67.9653 72.6481 66.8446 74.0984 64.3567C74.481 63.6861 75.567 63.9772 75.9497 63.3068C78.6241 61.1549 80.4109 58.7736 80.2804 55.8577L81.4941 53.7981C81.5122 53.7678 81.524 53.7344 81.5293 53.6998C81.5515 53.5511 81.4492 53.4127 81.3009 53.3905C81.2708 53.3857 81.2397 53.386 81.2094 53.3921C80.4873 53.5364 79.6092 53.1912 79.087 52.6094C78.3398 51.7834 78.0551 50.6531 77.519 49.6785C77.0655 48.8409 76.4037 48.0598 76.2754 47.1038C76.1995 46.5554 76.3139 45.9946 76.3127 45.4339C76.2813 44.2193 75.6509 43.1166 75.2795 41.9649C74.9582 40.9774 74.8608 39.7876 75.4024 38.9481C75.4602 38.8561 75.5655 38.8079 75.6725 38.8216L75.6756 38.8143L75.6753 38.8132Z" fill="#16B165"/>
<path fill-rule="evenodd" clip-rule="evenodd" d="M81.0961 69.2864L80.2729 69.7011C80.2903 69.8717 79.5706 68.8994 79.5451 69.0687C79.4243 69.8666 79.4087 70.5709 78.7803 71.8733C77.4043 74.7243 70.745 76.292 73.4931 78.2331C73.6343 78.3198 76.084 77.2238 76.2456 77.2608C76.9212 77.415 77.6656 77.557 78.2825 77.244C80.0553 76.3433 79.0026 73.0175 80.7593 72.0821C81.009 71.952 81.3085 71.8749 81.4703 71.6419C81.9468 70.9487 80.6833 70.0125 81.0961 69.2864Z" fill="#16B165"/>
</svg>
