<svg width="1512" height="791" viewBox="0 0 1512 791" fill="none" xmlns="http://www.w3.org/2000/svg">
<path fill-rule="evenodd" clip-rule="evenodd" d="M1512 115.057C1008.22 -38.3523 504.215 -38.3523 0 115.057V790.561H1512V115.057Z" fill="#0073E6"/>
<mask id="mask0_61_209" style="mask-type:luminance" maskUnits="userSpaceOnUse" x="0" y="0" width="1512" height="791">
<path d="M1512 115.057C1008.22 -38.3523 504.215 -38.3523 0 115.057V790.561H1512V115.057Z" fill="white"/>
</mask>
<g mask="url(#mask0_61_209)">
<path fill-rule="evenodd" clip-rule="evenodd" d="M64.0404 214.722C62.9758 212.764 54.5463 190.3 45.0624 199.623C28.1296 216.264 88.6671 249.935 66.8412 255.892C50.8287 260.265 30.3226 241.851 25.5101 235.692C13.279 220.039 18.7733 199.727 11.62 192.362C2.26702 182.731 -21.3052 186.099 -19.7503 172.777L-18.5782 168.25C-10.1387 148.069 -44.2125 180.333 -6.65946 137.632C43.447 80.6539 134.069 11.8784 230.379 -23.6227C291.891 -42.6678 319.033 -16.2679 375.54 -13.7189C393.104 -12.9264 397.433 -16.8825 379.879 -22.407C361.838 -27.4243 365.919 -25.4731 352.347 -33.3317C350.336 -34.497 341.718 -35.5112 339.022 -35.9478C332.762 -37.0057 331.778 -37.9124 328.379 -40.814C376.749 -61.5317 380.416 -53.5355 433.196 -44.7836C456.893 -40.8543 470.504 -45.6702 478.638 -44.4612C497.572 -41.6503 444.497 -26.5243 446.512 -21.2013C448.574 -15.7507 480.226 -18.9344 488.263 -20.7009C522.908 -28.3177 523.559 -49.2536 556.897 -42.2413C573.404 -37.2811 558.399 -30.1614 573.676 -28.2236C596.062 -28.9994 620.098 -44.9717 653.671 -45.6299C674.886 -45.7071 747.675 -40.9988 752.501 -15.1294C756.091 4.13066 690.721 14.3602 675.249 -6.08878C664.811 -19.8882 670.309 -20.224 648.134 -19.4315C612.857 -17.8094 571.919 -0.288918 535.28 4.56725L530 5.26578C489.566 10.1824 389.121 29.7515 487.484 63.4054C577.833 94.319 563.537 -17 695.439 36.0248C717.235 45.3913 737.979 58.7843 737.905 85.4966C737.865 99.6352 728.552 98.0031 716.147 96.0317C707.193 94.6078 698.166 91.9715 689.34 89.7919C643.254 80.2945 609.721 101.251 569.216 119.235C507.792 146.508 464.419 176.31 408.203 210.753C370.439 233.892 359.659 215.753 318.348 214.141C282.538 212.744 209.201 215.27 194.25 255.251C184.407 290.251 254.25 276.576 271.405 275.794C305.955 275.646 299.82 281.107 327.324 302.456C384.668 346.967 385.719 335.576 457.541 331.277C582.098 324.365 598.151 344.425 707.277 388.96C751.9 407.172 809.032 411.733 846.43 429.095C883.913 446.498 855.86 468.979 838.988 494.325C802.987 548.414 808.992 523.693 762.216 555.037C732.099 576.201 723.495 604.636 680.867 629.635C655.898 644.281 635.137 647.451 611.182 658.353C603.944 661.644 607.615 667.645 605.748 678.704C602.094 700.318 610.906 685.112 625.089 701.326C634.727 712.345 612.485 704.053 642.703 732.428C661.705 750.27 646.605 747.91 628.077 746.254C588.483 742.718 528.234 721.903 521.598 676.343C517.229 646.343 518.461 658.769 506.935 634.76C500.205 620.739 498.476 584.375 493.438 564.604C475.115 492.702 428.098 502.086 384.651 457.44C336.298 407.75 406.205 378.777 357.869 351.773C314.066 327.297 230.937 304.514 180.84 300.491C151.854 298.953 121.176 298.55 108.065 268.221C95.1689 238.395 80.6306 239.221 64.0404 214.719V214.722Z" fill="#5FBA46"/>
<path fill-rule="evenodd" clip-rule="evenodd" d="M1463.37 191.469C1495.64 205.06 1531.28 200.406 1567.49 197.736C1645.36 341.255 1613.78 482.547 1449.99 614.923C1436.4 626.056 1420.1 632.047 1414.15 609.16C1408.51 587.441 1391.38 586.478 1382.46 568.537C1376.7 556.948 1375 549.794 1367.64 537.829C1343.1 497.931 1368.65 509.988 1359.31 475.713C1352.73 451.6 1320.34 403.334 1297.98 391.079C1227.17 352.27 1100.55 428.021 1027.51 351.743C1008.64 332.039 1012.29 316.064 1011.15 290.89C1010.28 271.821 1024.57 266.904 1040.43 255.788C1104.38 210.978 1107.01 198.018 1190.1 184.279C1215.06 180.152 1283.88 167.816 1304.35 180.612C1318.72 189.599 1310.43 193.716 1335.57 197.42C1351.26 199.731 1401.01 210.464 1412.05 204.036C1427.09 195.278 1429.54 185.162 1452.48 188.856L1461.52 190.895L1463.37 191.473V191.469Z" fill="#5FBA46"/>
<path fill-rule="evenodd" clip-rule="evenodd" d="M1498.72 114.577C1504.14 119.645 1544.68 157.487 1538.93 159.25C1480.23 167.924 1484.16 138.186 1467.12 136.863C1437.65 139.66 1448.29 171.602 1404.14 138.811C1389.51 127.94 1366.43 109.754 1348.19 122.415C1348.93 137.142 1381.75 147.939 1359.53 157.923C1350.87 161.815 1359.83 154.78 1345.7 147.633C1264.76 106.708 1208.42 178.302 1142 173.832C1113.51 171.917 1123.82 155.008 1141.04 143.217C1181.34 115.632 1237.16 76.9737 1284.61 67.08C1293.7 65.1859 1307.81 63.1306 1313.6 55.309L1312.52 52.488L1308.8 49.5226C1300 45.0022 1282.12 53.116 1256.67 34.4335C1234.21 17.9541 1281.31 11.664 1291.79 4.91369C1312.88 -8.67752 1298.38 -10.1317 1327.65 5.8641C1393.6 41.9126 1441.95 62.2943 1498.72 114.577H1498.72Z" fill="#5FBA46"/>
<path fill-rule="evenodd" clip-rule="evenodd" d="M1180.41 94.5539C1172.91 94.1039 1160.87 98.3522 1156.7 92.8277C1153 87.9312 1159.28 83.2329 1167.25 78.4204C1184.71 67.8752 1162.23 66.9819 1153.59 63.1567C1147.57 60.4868 1138.3 59.2644 1141.75 53.2295C1144.16 49.045 1149.56 46.1031 1157.3 44.8202C1166.91 43.235 1174.94 42.6876 1178.21 49.6461C1183.91 61.81 1193.33 72.7448 1215.6 78.1249C1224.55 80.2809 1220.4 83.2934 1216.35 86.5342C1207.38 93.6908 1194.02 93.3919 1180.4 94.5539H1180.41Z" fill="#5FBA46"/>
<path fill-rule="evenodd" clip-rule="evenodd" d="M1110.9 92.68C1108.52 92.5961 1105.53 92.8748 1103.23 92.3476C1097.25 90.9673 1096.71 87.6022 1098.57 84.7946C1104.48 75.9488 1112.17 67.6772 1131.44 65.6722C1139.13 64.8696 1146.33 65.4607 1149.66 69.5545C1153.71 74.5584 1147.77 78.0376 1140.83 81.171C1131.45 85.3924 1123.65 90.9102 1110.91 92.6767L1110.9 92.68Z" fill="#5FBA46"/>
<path fill-rule="evenodd" clip-rule="evenodd" d="M661.08 106.889C660.714 111.638 652.2 113.327 647.986 116.608C643.677 119.966 635.986 120.443 629.192 118.569C626.663 117.874 623.557 115.53 623.973 114.267C625.552 109.552 633.535 111.134 638.847 110.909C646.995 110.566 649.792 102.123 661.083 106.889H661.08Z" fill="#5FBA46"/>
<path fill-rule="evenodd" clip-rule="evenodd" d="M597.019 121.817C591.78 121.377 589.423 119.48 590.964 116.904C591.911 115.352 594.924 113.23 597.332 113.089C602.107 112.807 604.596 115.03 604.888 117.602C605.244 120.571 602.027 121.736 597.023 121.817H597.019Z" fill="#5FBA46"/>
<path fill-rule="evenodd" clip-rule="evenodd" d="M625.888 714.622C611.128 708.392 602.981 701.88 612.663 691.563C619.83 683.916 615.88 679.51 599.676 677.233C584.869 675.151 579.462 669.902 592.18 662.594C600.022 658.094 605.688 654.256 591.892 648.906C590.249 648.268 588.919 647.68 587.811 647.119C562.483 646.595 537.47 645.551 512.779 643.982C512.437 646.296 511.57 648.58 510.542 650.652C499.705 672.669 521.353 689.206 543.226 703.899C561.294 716.019 580.104 731.659 617.123 728.653C624.34 728.072 633.837 732.24 638.499 727.041C644.335 720.556 632.662 717.486 625.888 714.625V714.622Z" fill="#5FBA46"/>
<path fill-rule="evenodd" clip-rule="evenodd" d="M1567.49 197.736C1531.28 200.406 1495.63 205.061 1463.37 191.47C1452.17 186.758 1437.5 188.199 1426.52 193.031C1470.33 265.639 1488.62 345.527 1448.55 422.151C1428.89 459.751 1397.6 495.386 1357.31 527.865C1359.18 528.909 1361.29 529.91 1363.75 530.827C1377.3 535.898 1378.44 543.293 1378.97 551.588C1379.65 562.395 1375.45 574.17 1392.44 582.33C1409.24 590.39 1418.11 600.61 1415.61 613.811C1413.75 623.51 1427.45 627.816 1443.43 625.569C1613.4 489.885 1650.89 346.084 1567.48 197.736H1567.49Z" fill="#5FBA46" stroke="#5FBA46" stroke-width="0.286494" stroke-miterlimit="2.61313"/>
<path fill-rule="evenodd" clip-rule="evenodd" d="M1517.64 132.547C1464.87 77.0031 1390.35 31.9308 1302.38 -6.64648C1303.02 7.19661 1281.05 8.72801 1265.69 13.8428C1262.15 15.0148 1259.09 16.3112 1256.41 17.6612C1270.81 27.397 1284.47 37.4922 1297.35 47.8527C1303.15 45.8075 1309.66 43.1813 1314.22 47.7956C1318.18 51.8189 1320.29 57.6456 1318.22 62.1693C1317.87 62.935 1317.33 63.5462 1316.69 64.0735C1335.44 80.479 1352.39 97.3581 1367.55 114.281C1368.69 114.771 1369.81 115.261 1370.94 115.698C1388.77 122.599 1406.75 128.665 1407.77 143.613C1408.3 151.414 1422.38 158.883 1436.04 159.007C1448.4 159.118 1443.01 149.04 1447.72 143.821C1450.71 140.519 1452.63 137.282 1458.61 135.109C1467.01 132.05 1472.31 130.71 1475.75 137.799C1487.87 162.883 1490.98 163.628 1542.9 159.823C1534.5 150.725 1526.23 141.587 1517.64 132.547H1517.64Z" fill="#5FBA46"/>
<path fill-rule="evenodd" clip-rule="evenodd" d="M63.6004 112.541C74.74 94.1911 93.943 76.9259 114.55 61.3566C138.868 42.9966 167.696 26.094 199.183 11.4013C213.95 4.52003 229.963 -1.85075 246.623 -7.2644C253.176 -9.39023 259.781 -11.4724 266.538 -13.4034C272.899 -15.227 281.51 -11.7478 276.11 -8.02674C273.843 -5.93785 270.102 -4.05718 267.193 -2.24032C260.661 1.69566 253.945 5.56111 247.567 9.57769C233.748 18.2892 219.951 27.0008 206.186 35.7392C180.279 52.1783 155.817 69.3058 129.491 85.5434C116.8 93.3717 103.948 101.072 90.5679 108.545C85.6311 111.299 80.56 114.015 75.1867 116.507C69.8738 118.969 61.3604 116.43 63.597 112.538L63.6004 112.541Z" fill="#5FBA46"/>
<path fill-rule="evenodd" clip-rule="evenodd" d="M10.6965 159.998C9.05087 159.998 13.091 149.846 13.682 148.936C16.8993 144.019 22.1887 139.482 28.2505 135.486C32.6332 132.591 56.9308 119.342 58.4319 130.505C59.5268 138.68 49.9991 148.483 41.1298 154.628C36.1258 158.094 30.111 161.493 22.857 163.515C17.7288 164.942 11.3715 163.186 10.6965 160.002V159.998Z" fill="#5FBA46"/>
</g>
</svg>
