<svg width="129" height="108" viewBox="0 0 129 108" fill="none" xmlns="http://www.w3.org/2000/svg">
<g clip-path="url(#clip0_61_1086)">
<path fill-rule="evenodd" clip-rule="evenodd" d="M60.643 92.5716C60.643 93.3905 60.4939 94.0196 60.1444 94.7304L60.063 94.8772C60.0547 94.8919 60.0422 94.9097 60.0338 94.9244L56.6039 98.6204C56.5935 98.6319 56.5768 98.6477 56.5664 98.6581L55.6254 99.6123C54.8702 100.399 54.0012 101.196 52.8892 101.346C52.1048 101.452 52.2602 101.544 51.6051 101.434C51.3526 101.391 51.072 101.357 50.8738 101.329C50.4336 101.268 49.8588 100.974 49.5052 100.728C48.7291 100.188 48.2357 99.4676 47.9029 98.6141C47.7454 98.2104 47.7256 98.5103 47.711 97.9714C47.6953 97.3853 47.5702 96.3021 47.8184 95.7936C47.9978 95.4266 48.1157 94.9517 48.3817 94.612L49.0556 93.8455C50.2479 92.6596 52.7223 90.0227 53.7384 89.2038L54.2683 88.9008C55.2635 88.3283 56.2252 88.3734 57.3331 88.5285C58.3491 88.6701 59.4423 89.6043 60.0057 90.5543C60.0171 90.5742 60.0516 90.6287 60.063 90.6486L60.353 91.1938C60.4354 91.3951 60.448 91.6604 60.498 91.8848C60.5575 92.1553 60.6441 92.256 60.6441 92.5737L60.643 92.5716ZM128.999 36.1296V41.7307C128.972 42.688 128.928 43.4911 128.869 43.9514C128.81 44.4065 128.821 44.6047 128.684 45.0576C128.57 45.434 128.681 45.8115 128.536 46.2015C128.437 46.4668 128.412 46.3661 128.393 46.7425C128.356 47.4954 128.098 48.1339 127.911 48.8417C127.855 49.0545 127.885 49.1646 127.829 49.367C127.758 49.6249 127.692 49.5725 127.648 49.8692C127.606 50.1554 127.657 50.1628 127.572 50.4008L126.36 53.7434C126.354 53.7623 126.35 53.7833 126.342 53.8021L126.28 53.9667C126.212 54.1114 126.264 53.9625 126.17 54.1607L125.586 55.55C125.513 55.7555 125.574 55.6097 125.496 55.7639L124.654 57.4258C124.646 57.4404 124.636 57.4604 124.628 57.475C124.144 58.4082 123.625 59.399 123.012 60.2588L122.915 60.3899C122.906 60.4025 122.893 60.4203 122.883 60.4339L121.726 62.1587C121.716 62.1713 121.701 62.187 121.692 62.1996L119.82 64.5755C119.692 64.717 119.63 64.7978 119.5 64.9372L117.655 66.9587C117.523 67.0825 117.487 67.1349 117.36 67.2701L117.284 67.3467C117.274 67.3582 117.257 67.3739 117.247 67.3844L115.811 68.8282C115.8 68.8398 115.783 68.8555 115.773 68.866C115.71 68.9299 115.685 68.954 115.622 69.018L112.684 71.9182C112.552 72.0188 112.577 71.9874 112.5 72.0366C112.089 72.2956 111.82 72.9625 111.597 73.4102L111.153 74.1032C111.142 74.1148 111.128 74.1326 111.118 74.1441L110.655 74.7428C110.645 74.7544 110.629 74.7701 110.618 74.7816L110.507 74.8991C110.466 74.9441 110.403 75.0165 110.366 75.0616C110.356 75.0731 110.342 75.0909 110.332 75.1035L107.303 77.3022C106.882 77.5214 106.467 77.5612 106.011 77.7531L104.99 78.0184C102.899 78.5615 103.295 77.2278 102.943 79.8375C102.805 80.8598 102.863 80.2999 102.709 80.8944L102.481 81.8045C102.24 82.4483 101.85 83.2619 101.443 83.8008L100.536 84.9406C100.525 84.9521 100.509 84.9678 100.499 84.9794C100.489 84.9909 100.473 85.0066 100.463 85.0182L99.3901 85.9922C98.8915 86.3823 98.3574 86.7576 97.7764 87.0302L97.4321 87.2158C96.8375 87.5157 96.3086 87.6447 95.664 87.7946L94.3673 88.0116C93.8781 88.0085 93.6267 87.9938 93.2324 88.0871C93.2251 88.4247 93.1114 88.8976 93.0853 89.231C93.0509 89.6662 93.1541 90.03 93.0018 90.3634C92.8454 90.7052 92.909 90.3131 92.8527 90.8216L92.5971 91.781C92.451 92.256 92.2122 92.5548 91.99 92.9952C91.6551 93.6568 91.2013 94.2722 90.7058 94.8206L89.8212 95.6793C89.3789 96.0463 88.9074 96.4164 88.4005 96.6838L86.7304 97.4377C86.4404 97.5289 86.6104 97.531 86.3047 97.618C86.0899 97.6799 85.9939 97.6432 85.7894 97.7082C85.6549 97.7512 85.5318 97.8455 85.3534 97.877L83.6228 97.9619C83.0929 98.0028 83.2431 98.1968 83.2514 98.8049C83.2618 99.5504 83.0856 99.757 83.0178 100.394C82.9771 100.781 82.8321 100.943 82.7538 101.345L82.5191 102.021C82.468 102.134 82.4899 102.118 82.4325 102.238C82.1582 102.812 81.8891 103.387 81.502 103.887L81.2986 104.139C81.1818 104.294 81.1787 104.327 81.042 104.489L78.4174 106.715C77.9052 107.027 77.3367 107.338 76.7765 107.497C76.5596 107.559 76.4594 107.519 76.2623 107.588C76.062 107.657 76.1308 107.714 75.8314 107.763C75.3182 107.848 74.6933 108 74.2521 108C72.9471 108 72.6905 107.95 71.4627 107.763C71.1862 107.721 71.1904 107.633 70.9755 107.569L70.5958 107.495C69.9282 107.301 68.45 106.561 67.9702 106.106L67.893 106.031C67.8763 106.017 67.8304 105.974 67.8127 105.96C67.7428 105.9 67.725 105.891 67.6416 105.828L62.0784 100.475C61.9981 100.776 61.5871 101.07 61.367 101.28L58.4785 104.153C58.0383 104.566 57.5605 104.993 57.0285 105.279L56.0062 105.848C55.5628 106.116 54.9881 106.207 54.5145 106.4C53.9094 106.647 52.6201 106.782 51.8701 106.782C50.5306 106.782 49.863 106.483 48.7917 106.227C48.098 106.062 47.4888 105.615 46.8629 105.278C46.8483 105.27 46.8274 105.262 46.8128 105.253L45.3232 104.09C45.3075 104.076 45.2627 104.031 45.247 104.015L44.6451 103.328C43.5279 101.825 43.7418 102.138 42.9552 100.466L42.7925 99.8692C42.7445 99.4466 42.588 99.3155 42.4827 98.4327L42.3439 96.8998C42.1269 96.8998 41.3832 96.839 41.1662 96.7918C40.9044 96.7352 40.967 96.7006 40.6759 96.6765C39.8716 96.6083 39.7642 96.4762 39.1028 96.3577C38.7137 96.2885 38.139 95.996 37.7832 95.7842L37.3785 95.5829C37.3628 95.5755 37.343 95.5661 37.3274 95.5577C37.3128 95.5493 37.294 95.5378 37.2794 95.5294L37.0937 95.412C37.0781 95.4036 37.0582 95.3952 37.0426 95.3868L35.3047 94.0185C35.2703 93.9839 35.2442 93.9598 35.1899 93.9053L34.0372 92.4793C34.0289 92.4646 34.0174 92.4458 34.0091 92.4311L32.9555 90.0698C32.9012 89.7626 32.8637 89.8528 32.7834 89.6358C32.5883 89.1105 32.437 87.5314 32.437 86.9432L31.4825 86.8394C30.9954 86.7136 30.358 86.8132 29.8917 86.615L28.9696 86.3267L25.3978 84.064C25.3863 84.0535 25.3707 84.0378 25.3592 84.0263L25.2851 83.9487C25.2747 83.9372 25.2601 83.9204 25.2497 83.9088C25.184 83.8344 25.1787 83.8218 25.1141 83.7421L24.4339 82.9054C24.3922 82.8509 24.3786 82.831 24.3369 82.7754C24.3275 82.7628 24.314 82.745 24.3046 82.7324L23.0006 79.9382C22.6324 79.0711 22.6094 78.0383 22.6094 77.0632C22.2026 77.0537 22.0931 76.929 21.6268 76.9111C20.1309 76.8545 20.2832 76.6826 19.8086 76.6102C19.4184 76.5504 19.3902 76.4456 18.9824 76.3764C18.5776 76.3082 18.2595 76.0409 17.8985 75.87L17.6419 75.7483C17.6377 75.7462 17.5397 75.6844 17.5 75.6624C16.9399 75.3583 16.3932 74.9483 15.9238 74.5111C14.7148 73.384 14.527 72.9583 13.7384 71.6151L13.4161 70.8759C13.4077 70.8581 13.3483 70.7239 13.3462 70.7176C13.0374 69.797 13.1021 69.8033 12.8757 68.9865C12.472 67.5302 13.1417 68.5713 12.2196 67.7462L9.67322 64.9855C9.63671 64.9456 9.62002 64.9299 9.56369 64.868L5.06663 58.5959C5.05724 58.5822 5.04368 58.5644 5.03533 58.5518L4.21228 57.0231C4.15803 56.9078 4.19663 56.9833 4.13508 56.8732L2.41909 52.8973C2.32103 52.5974 2.27617 52.6687 2.2042 52.3531L2.06546 51.9599C1.86308 51.5667 1.49172 50.3546 1.4333 49.9352C1.37488 49.5148 1.4333 49.8692 1.28934 49.5473L0.755247 47.4241C0.645716 47.0865 0.715607 46.8264 0.586256 46.4542C0.394314 45.9017 0.480896 45.3019 0.289998 44.6235C0.166906 44.1863 0.234711 43.6274 0.117877 43.2007L0.052158 43.0382C0.045899 43.0204 0.0365106 43.0015 0.0312948 42.9826C0.0187769 42.9375 0.00834528 42.8725 0 42.7918V39.5949V35.8696C0.0239927 35.5571 0.0615464 35.2845 0.11892 35.078C0.152301 34.9563 0.13874 35.0098 0.151258 34.8829C0.242013 33.9833 0.440213 33.2399 0.451688 32.5249C0.457947 32.1516 0.575824 31.9408 0.645716 31.6556C0.76255 31.1775 0.610248 31.1817 0.81888 30.69C0.915894 30.4614 0.879383 30.5946 0.930498 30.2706C1.01291 29.7484 1.13287 29.5492 1.21945 28.9652C1.27578 28.5867 1.40096 28.5112 1.4406 28.1232C1.46877 27.8506 1.47398 27.8695 1.57308 27.6483C1.6701 27.4302 1.56891 27.7227 1.66175 27.4333C1.66384 27.426 1.70244 27.2708 1.70765 27.2519L2.14891 26.0986C2.20524 25.9507 2.21567 25.8113 2.26157 25.6792L5.23144 19.3924C5.23979 19.3777 5.25126 19.3588 5.25961 19.3441L5.3754 19.1564C5.46198 19.0034 5.48389 18.9174 5.58403 18.758C5.64558 18.6594 5.62472 18.7066 5.70504 18.5756C5.74676 18.5074 5.74677 18.5001 5.78745 18.4309L7.60255 15.7719C7.61193 15.7593 7.62445 15.7404 7.63384 15.7278C7.64323 15.7153 7.65679 15.6974 7.66618 15.6838L7.79866 15.5129C7.80909 15.5003 7.82369 15.4835 7.83308 15.472L7.96974 15.3053C7.97913 15.2927 7.99269 15.2749 8.00208 15.2623C8.01146 15.2497 8.02502 15.2319 8.03441 15.2193L13.1323 9.77863C13.3357 9.60667 13.5183 9.42738 13.728 9.23655L14.2819 8.72908C14.2934 8.71859 14.3101 8.70391 14.3226 8.69343L14.4092 8.62842C14.4227 8.61898 14.4425 8.6085 14.4561 8.59906L18.5578 5.73036C18.6131 5.69681 18.6611 5.6664 18.6986 5.64333L21.7937 3.96573C21.9929 3.8787 21.9324 3.87975 22.1338 3.77595L23.5796 3.10176C24.1043 2.83754 24.4694 2.78197 24.7834 2.63937L26.7393 1.94526C27.4455 1.73766 27.1388 1.71249 28.3625 1.44932C28.7474 1.36649 28.7693 1.26478 29.1907 1.2176C29.5684 1.17566 29.6612 1.0404 30.0263 0.99427C30.3559 0.95233 30.2683 1.01734 30.5458 0.908293C30.9359 0.753114 31.4523 0.746823 31.8706 0.64407C32.6728 0.445903 33.4656 0.442757 33.7034 0.357829C34.1343 0.204747 37.1615 -0.00390499 37.5777 -0.00390499C39.1446 -0.00390499 40.702 -0.006002 42.2532 0.16071C42.9813 0.239348 43.3527 0.206844 44.1267 0.40606C44.4553 0.490988 44.763 0.42703 45.1198 0.472115L45.9939 0.6577C46.3236 0.738435 46.5979 0.730047 46.8796 0.831752C47.0037 0.876837 47.1372 0.943942 47.2749 0.96596C47.4554 0.99427 47.5921 0.969106 47.7663 1.00371C48.098 1.07081 48.171 1.17461 48.606 1.22389L51.6416 2.2011C51.6468 2.20319 51.8127 2.24199 51.8252 2.24513C52.1089 2.30909 52.0203 2.27659 52.2352 2.36571L55.2249 3.61658C55.2405 3.62392 55.2582 3.63545 55.2739 3.64279L55.3751 3.69312C55.398 3.70255 55.8362 3.84096 56.2086 4.07163L58.4044 5.28474C58.5348 5.34975 58.4993 5.32564 58.6057 5.38645C58.7257 5.45565 58.6203 5.39903 58.7445 5.47452C58.7591 5.48291 58.7779 5.49444 58.7914 5.50283L59.8033 6.1571C59.8168 6.16549 59.8356 6.17807 59.8492 6.18751L60.9779 6.95396C61.4118 7.2402 61.8729 7.50862 62.2589 7.87035L63.5576 8.92095C64.8136 10.09 64.6519 9.62764 65.8056 8.68399L66.8185 7.87874C66.831 7.8693 66.8498 7.85672 66.8623 7.84728L70.3997 5.47452C70.4133 5.46614 70.432 5.45355 70.4456 5.44517L72.8365 4.12405C72.9878 4.03912 72.8417 4.10728 73.0431 4.02759C73.1265 3.99404 73.0963 4.01815 73.211 3.96782L74.5796 3.29154C74.5984 3.28525 74.6193 3.28001 74.6381 3.27372L75.6603 2.85641C76.8224 2.3007 78.5269 1.90227 79.2342 1.58353C79.3573 1.52796 79.2697 1.55207 79.4595 1.50594C79.4679 1.50384 79.6504 1.47239 79.6525 1.47239C79.8831 1.43359 79.9029 1.44198 80.0865 1.37592L83.048 0.704883C83.2671 0.674476 83.3119 0.679719 83.4976 0.625197C83.6895 0.569626 83.6343 0.561238 83.9065 0.504619C84.1078 0.462679 84.5157 0.490988 84.8172 0.432272C84.9852 0.39872 85.0018 0.358877 85.224 0.309597C85.7477 0.193214 86.2025 0.227814 86.7304 0.226766C87.4564 0.226766 87.8695 -0.00390499 88.5423 -0.00390499H91.4152C92.3592 -0.00390499 93.2032 0.211038 94.4435 0.220475C95.1507 0.225717 95.1518 0.446951 95.8768 0.452194C96.4244 0.456388 96.7009 0.622051 97.235 0.682864C98.0184 0.770939 98.3605 0.957572 98.6026 0.980639C99.4277 1.06033 98.9447 1.09597 99.942 1.23018C100.195 1.26478 100.347 1.37068 100.573 1.43254C100.827 1.50175 100.942 1.49965 101.168 1.59506L104.218 2.63308C104.347 2.69914 104.222 2.65195 104.371 2.70648L105.074 2.98747C105.184 3.02522 105.255 3.03466 105.361 3.07974L107.025 3.83991C107.062 3.85983 107.164 3.92484 107.166 3.92693L108.586 4.62838C108.605 4.63991 108.659 4.67556 108.679 4.68605C108.791 4.74896 108.712 4.70807 108.83 4.76259C108.851 4.77203 108.916 4.79719 108.937 4.80663L109.178 4.94503C109.899 5.4567 109.954 5.60139 110.365 6.48738C110.501 6.77991 110.471 7.15003 110.471 7.5212C110.471 7.71727 110.122 8.52357 110.019 8.66407C109.709 9.08557 109.262 9.50077 108.765 9.68321C108.634 9.73144 108.265 9.74508 108.093 9.77024C107.475 9.86146 107.038 9.69475 106.535 9.49973C106.37 9.43577 106.452 9.48819 106.267 9.38858L104.25 8.37468C104.094 8.30129 104.135 8.30653 103.998 8.24781C103.88 8.19749 103.835 8.19434 103.722 8.14506L102.374 7.59984C101.766 7.3094 101.425 7.27795 100.982 7.09865L98.0799 6.21581C97.8077 6.12774 97.7232 6.18541 97.4061 6.13298C97.2047 6.10048 97.0138 5.9778 96.8386 5.94425C96.6299 5.90336 96.3107 5.89812 96.1532 5.87295C95.8017 5.81529 95.7558 5.75657 95.5524 5.71673C95.134 5.63494 94.5947 5.67374 94.1556 5.60034C93.9647 5.56889 93.8364 5.50493 93.5443 5.4546C92.5095 5.27426 89.3195 5.39169 88.0865 5.39169C87.2446 5.39169 86.8639 5.5993 86.044 5.61922C85.1614 5.64019 84.812 5.90336 84.1537 5.92328L81.4207 6.52093C81.2819 6.57545 81.2068 6.63207 81.0337 6.66457C80.1981 6.81766 79.9133 7.03679 79.2947 7.19616L74.83 9.09291C74.7017 9.16945 74.8143 9.10863 74.686 9.17574C74.5264 9.25962 74.4868 9.27325 74.3376 9.35713L70.8691 11.495C70.6167 11.6534 70.4748 11.7697 70.2516 11.9385L68.2664 13.5155C68.255 13.526 68.2383 13.5407 68.2268 13.5511L66.3303 15.2938C66.2187 15.3944 66.1665 15.451 66.0622 15.5569L50.0696 31.6315L48.2764 33.7055C48.1971 33.8544 48.1773 33.9194 48.099 34.0588C48.0062 34.2245 47.9874 34.2738 47.8925 34.4593C47.7517 34.734 47.7339 34.993 47.6411 35.2698C47.5462 35.5508 47.4804 35.4166 47.4804 35.641V37.7695C47.4804 37.9613 47.6223 37.9666 47.6849 38.2476C47.8299 38.8966 47.93 38.9983 48.2263 39.6033C48.4746 40.1097 48.9242 40.6224 49.3706 40.9611C49.621 41.1509 49.8067 41.3344 50.1019 41.5189C50.9177 42.0285 50.7654 41.8303 51.4726 42.1176C52.2331 42.4259 53.5965 42.3955 54.4268 42.2434C54.7075 42.1921 54.5228 42.2067 54.746 42.1082C55.0319 41.9823 55.1696 41.9991 55.4637 41.8408L58.2636 39.5624C58.323 39.5037 58.3366 39.488 58.3762 39.4481L62.8368 34.9637C62.8483 34.9521 62.8639 34.9364 62.8743 34.9259L64.6957 33.1089C64.9106 32.918 64.9461 32.9138 65.1881 32.7681C65.7357 32.4378 65.7472 32.3676 66.6099 32.3728L75.6092 32.3739C76.5022 32.3749 76.4323 32.3256 77.2585 32.2072C77.61 32.1568 78.6052 32.1883 78.8921 32.1002C79.1518 32.0205 79.0266 32.0268 79.2071 31.9608C79.6911 31.7836 80.171 31.7364 80.632 31.5697C80.799 31.5099 80.7072 31.4973 80.9419 31.425C81.1192 31.3704 81.1463 31.4071 81.3132 31.3421L82.9113 30.4404C82.9896 30.3974 82.9844 30.4069 83.0647 30.366L89.2277 24.6286C89.7461 24.1316 90.1968 23.6346 90.8216 23.2666C90.8414 23.255 90.8988 23.2236 90.9186 23.212C91.1273 23.0946 91.1294 23.0265 91.4141 23.0265C92.3874 23.0265 92.4834 22.8535 93.1969 23.2875C93.2491 23.319 93.2856 23.341 93.3388 23.3735L93.827 23.7185C94.4466 24.3969 94.5906 24.9851 94.5906 25.9151C94.5906 26.5442 94.0544 27.276 93.6413 27.6965L92.8047 28.528C92.7942 28.5395 92.7796 28.5563 92.7682 28.5678L91.9368 29.4035C90.8581 30.4415 89.8452 31.5655 88.751 32.5857L87.4387 33.6981C87.4272 33.7086 87.4115 33.7243 87.4001 33.7348C86.747 34.3451 85.9323 34.776 85.1813 35.2289C84.9507 35.3673 84.618 35.5016 84.4594 35.7196C84.5512 36.0656 85.0561 36.4337 85.3096 36.6885L105.688 57.171C106.737 58.2258 109.383 60.7516 110.252 61.7802L110.355 61.905C110.443 62.014 110.479 62.0633 110.555 62.1597L110.857 62.5403C111.227 62.9639 111.553 63.5071 111.811 64.0135C111.818 64.0292 111.83 64.0471 111.838 64.0628L112.211 64.8282C112.503 64.7495 112.635 64.5168 112.834 64.3155C113.042 64.1068 113.194 63.9537 113.402 63.7451L114.662 62.4271C114.724 62.3653 114.753 62.3359 114.812 62.274C114.932 62.1482 114.968 62.1157 115.077 62.0077L117.838 58.5508C117.923 58.4302 117.977 58.3484 118.048 58.23L118.693 57.2066C118.799 57.0126 118.776 57.0609 118.908 56.891L120.493 54.0003C120.607 53.7759 120.593 53.8315 120.679 53.5788L121.021 52.783C121.106 52.6058 121.121 52.5963 121.19 52.4212L121.279 52.2063C121.353 52.0616 121.296 52.2094 121.389 52.0134C121.445 51.897 121.481 51.7638 121.536 51.6296L122.146 49.9615C122.227 49.7287 122.17 49.7151 122.271 49.4791L122.672 48.287C122.737 48.0658 122.698 47.9787 122.751 47.7575C122.801 47.5447 122.87 47.4922 122.904 47.38C122.97 47.1661 122.926 47.0676 122.977 46.8453C123.025 46.6304 123.095 46.5842 123.131 46.4689C123.209 46.2235 123.214 45.7465 123.26 45.4581C123.307 45.1572 123.446 44.9947 123.471 44.6068C123.511 44.0049 123.502 44.0982 123.63 43.6254C123.743 43.2112 123.734 42.0358 123.783 41.499C123.818 41.1215 123.929 41.0072 123.929 40.5816L123.7 35.6441C123.702 34.7666 123.589 34.8567 123.492 34.1804C123.454 33.912 123.492 33.653 123.458 33.3794L123.165 32.0016C123.111 31.7385 123.003 31.6095 122.965 31.3663C122.939 31.209 122.959 31.0874 122.934 30.9406L121.963 27.7374C121.904 27.4711 121.972 27.6619 121.873 27.447C121.82 27.3306 121.781 27.2781 121.727 27.1376L121.149 25.6666C121.072 25.4663 121.071 25.5439 120.995 25.3657L120.632 24.5143C120.593 24.4336 120.573 24.4084 120.55 24.3685L120.341 23.9701C120.236 23.7782 120.155 23.6157 120.056 23.4207C120.001 23.3117 119.966 23.2309 119.906 23.1156C119.433 22.2107 119.574 22.3638 119.277 21.6949C118.984 21.0375 119.349 19.9837 119.8 19.4804C120.326 18.8912 120.419 18.8691 121.032 18.6668C121.438 18.5326 121.623 18.2411 122.612 18.6469C122.881 18.757 122.896 18.758 123.14 18.8765C123.48 19.0432 123.357 18.9079 123.586 19.1879C123.906 19.579 124.163 19.8505 124.376 20.2941L125.278 22.0472C125.837 23.0233 126.115 24.0309 126.56 25.0144L127.677 28.4514C127.684 28.4692 127.693 28.4881 127.699 28.5049C127.863 28.9033 127.818 29.0847 127.924 29.4192L128.333 30.9081C128.431 31.2604 128.393 31.5351 128.527 31.8528C128.69 32.2418 128.568 32.7671 128.688 33.2106L128.905 34.5128C128.943 34.8735 128.973 35.4407 128.994 36.1233L128.999 36.1296ZM42.1176 91.5084C41.5709 91.5084 41.0327 91.4738 40.6123 91.2735L40.1366 91.068C39.3657 90.6371 39.2426 90.5721 38.6011 89.7993L38.4352 89.5865C38.0252 88.9396 37.9616 88.7162 37.8124 87.7034C37.7238 87.0994 37.8124 86.1799 38.0305 85.6515L38.3017 85.0884C38.6814 84.4572 38.478 84.7109 39.0006 84.1185C39.7465 83.2724 42.031 81.0789 43.0449 80.0503C43.4278 79.6624 43.9546 79.1822 44.4428 78.9473C44.6086 78.8676 44.9153 78.7177 45.0165 78.6873C45.223 78.6265 45.4859 78.6087 45.7165 78.5552C46.7701 78.3119 46.5218 78.4765 47.3897 78.6097C47.8059 78.6737 47.7548 78.6349 48.0417 78.7901C48.0563 78.7984 48.074 78.811 48.0886 78.8184C48.4182 78.9903 48.5132 78.9295 48.9659 79.3038L49.1672 79.4821C49.6398 79.8857 49.7879 80.0147 50.1478 80.6239L50.2625 80.8126C50.2709 80.8273 50.2824 80.8462 50.2897 80.8608C50.298 80.8766 50.3074 80.8954 50.3147 80.9112L50.4962 81.3369C50.7685 81.9439 50.7862 83.4989 50.5421 84.1678L50.2313 84.9196C50.1582 85.0391 50.226 84.9123 50.1405 85.0569L44.3197 90.9107L43.5373 91.2641C43.0366 91.4811 42.8916 91.5084 42.1176 91.5084ZM27.8263 77.2959C27.8263 76.9279 28.0391 75.9465 28.2216 75.5649C28.3666 75.2629 28.4031 75.135 28.592 74.8739L28.6921 74.746C28.7516 74.6694 28.7766 74.639 28.8235 74.574L31.1623 72.1362C31.2656 72.0366 31.2896 72.0125 31.3887 71.9087L32.1815 71.1098C32.2242 71.0647 32.2628 71.0248 32.2931 70.9944L33.2006 70.0822C33.2121 70.0707 33.2278 70.055 33.2382 70.0445L33.4291 69.8558C34.0049 69.3168 34.6235 68.8974 35.1586 68.7821C35.3902 68.7318 35.3443 68.7643 35.5822 68.6762C36.1069 68.4812 36.883 68.4749 37.4098 68.6521C37.5548 68.7014 37.7154 68.7412 37.8302 68.7622L38.1932 68.8534C38.7137 69.1008 39.3167 69.4825 39.7089 69.9145C39.8289 70.0466 40.0396 70.3171 40.1387 70.4702C40.7166 71.3583 40.8313 71.9381 40.8313 73.0411C40.8313 73.8254 40.678 74.3213 40.3692 74.9326C40.1867 75.2943 40.0125 75.5953 39.7277 75.8846C39.6505 75.9633 39.6129 75.9926 39.5347 76.0713L39.3125 76.304C39.301 76.3156 39.2854 76.3303 39.2739 76.3418C39.2624 76.3533 39.2468 76.368 39.2353 76.3795L38.9036 76.7308C38.8295 76.8021 38.7815 76.8398 38.7064 76.9122L35.6437 79.9895C35.5477 80.0839 35.5342 80.1007 35.4559 80.1804L34.4587 81.0024C33.4187 81.6126 32.5591 81.6273 31.3751 81.5591C31.0163 81.5382 30.2454 81.1702 29.9063 80.9835C29.7113 80.8766 29.5986 80.7591 29.4432 80.6134C29.0176 80.2139 28.6222 79.7924 28.3489 79.2818C28.3406 79.2671 28.3312 79.2472 28.3228 79.2315C28.3155 79.2157 28.3072 79.1948 28.2999 79.178C28.1173 78.7555 27.8252 77.6965 27.8252 77.2991L27.8263 77.2959ZM23.2134 71.6718H21.4745L20.4407 71.267C20.4261 71.2587 20.4073 71.2482 20.3917 71.2408L18.8697 69.9585C18.8593 69.947 18.8436 69.9312 18.8332 69.9197C18.8228 69.9082 18.8071 69.8914 18.7977 69.8799C18.7873 69.8673 18.7727 69.8505 18.7633 69.8379L18.2876 68.9478C18.2021 68.7381 18.2511 68.824 18.201 68.5787C17.9882 67.5312 17.9966 68.5713 17.9966 66.7323L18.2209 65.969C18.297 65.5988 18.2511 65.8463 18.4024 65.5443C18.4107 65.5286 18.4191 65.5087 18.4264 65.4929C18.4337 65.4772 18.441 65.4562 18.4493 65.4395L18.8374 64.7653C19.2515 64.2075 19.7971 63.7451 20.2738 63.2449L20.7641 62.75C20.7756 62.7396 20.7912 62.7238 20.8027 62.7134C20.9226 62.598 20.9425 62.576 21.0666 62.446C21.1094 62.4009 21.148 62.3611 21.1782 62.3306L22.1995 61.3052C22.2109 61.2947 22.2266 61.279 22.2381 61.2675L22.8421 60.6593C22.8535 60.6478 22.8692 60.6321 22.8796 60.6216C23.3198 60.1812 23.759 59.7115 24.266 59.355L24.7542 59.0866C25.5418 58.6913 26.5098 58.5089 27.3756 58.6745L29.0509 59.3466C29.7113 59.7388 30.1723 60.3836 30.5437 61.0378C30.7231 61.3545 30.9078 61.797 30.9265 62.1734C30.9432 62.5005 30.9745 62.6504 30.9923 62.8717C31.0163 63.1663 30.9443 63.9716 30.8087 64.2609L30.5145 64.954C30.1546 65.6387 29.922 65.883 29.366 66.4596L27.8534 67.98C27.843 67.9915 27.8273 68.0083 27.8169 68.0188C27.8065 68.0303 27.7908 68.046 27.7804 68.0576L27.0606 68.7789C27.0502 68.7905 27.0345 68.8073 27.0241 68.8177L26.4608 69.3913C25.911 69.9889 25.3112 70.6023 24.629 71.0458C24.4579 71.157 24.5049 71.1098 24.3286 71.1999C24.0459 71.3446 24.1491 71.3509 23.8112 71.44C23.59 71.4988 23.7173 71.4421 23.5201 71.5271C23.2969 71.6235 23.4523 71.6739 23.2124 71.6739L23.2134 71.6718ZM53.0812 47.7313C53.5788 47.7313 54.0701 47.5887 54.4602 47.5216C55.2864 47.38 54.6939 47.6506 55.8789 47.2762L56.7479 47.0089C56.9158 46.9617 56.9669 46.9869 57.1255 46.9323C57.8119 46.6964 59.1503 45.8891 59.699 45.4151L62.6772 42.6324C62.6876 42.6209 62.7033 42.6052 62.7137 42.5936C62.7794 42.5255 62.7617 42.5401 62.8243 42.4762L63.2447 42.0631C63.3344 41.9729 63.3844 41.9226 63.47 41.8335C63.5607 41.7391 63.568 41.7265 63.6557 41.6405L64.4506 40.8437C64.462 40.8332 64.4787 40.8175 64.4892 40.807L66.7966 38.4908C66.855 38.4311 66.8707 38.4174 66.9103 38.3765L67.024 38.2623C67.2452 38.0463 67.4403 37.7003 67.7584 37.6321L78.6824 37.5786C78.9859 37.6845 79.0047 37.8628 79.2832 38.1155L79.5138 38.3399C79.6129 38.4457 79.6108 38.452 79.6922 38.5412L80.5966 39.4565C80.6644 39.5226 80.6331 39.4911 80.7155 39.5656L81.5521 40.396C82.5348 41.284 83.4246 42.3305 84.378 43.2563C84.4761 43.3517 84.473 43.3423 84.5773 43.4356L84.8078 43.66C84.9069 43.7659 84.9048 43.7721 84.9862 43.8613L90.7058 49.5882C90.7173 49.5987 90.734 49.6144 90.7444 49.6249L92.1381 51.0362C92.9361 51.7575 94.1107 53.0126 94.8879 53.82L96.6341 55.5605C96.7301 55.6464 96.7176 55.6276 96.8313 55.7429L106.568 65.5642C106.64 65.6429 106.68 65.689 106.743 65.7676C106.809 65.8484 106.855 65.9071 106.908 65.9815C107.031 66.1535 106.978 66.078 107.079 66.2657L107.159 66.4146C107.575 67.158 107.731 68.067 107.62 68.8806C107.514 69.6565 107.635 69.4647 107.325 70.2584L105.908 72.0262L104.778 72.6395C103.54 73.0516 101.939 72.9017 100.9 72.0975C99.7166 71.1821 91.8085 63.0615 90.6412 61.8882C89.4363 60.6772 80.775 51.7827 79.4929 50.8244C78.6146 50.168 77.4734 50.254 76.6002 50.8537L75.7918 51.7135C75.7834 51.7282 75.7741 51.7492 75.7668 51.7638C75.7584 51.7785 75.748 51.7984 75.7396 51.8131L75.6291 52.006C75.3422 52.6152 75.4465 53.6994 75.7855 54.2477C76.1141 54.7772 76.521 55.1673 76.9299 55.6056L77.3972 56.048C77.4129 56.0637 77.4567 56.1099 77.4713 56.1256L80.6748 59.3655C80.6852 59.377 80.6999 59.3938 80.7113 59.4053L81.5792 60.2808C81.6324 60.3353 81.6293 60.3312 81.6929 60.3951L88.9565 67.6875C88.9711 67.7042 89.0128 67.7514 89.0284 67.7671L89.5709 68.2861C89.6835 68.4067 89.6721 68.4057 89.7847 68.5273L92.2049 70.9598C92.3102 71.0594 92.3165 71.0573 92.4051 71.1391L94.7126 73.4553C95.3792 74.0833 96.7541 75.4327 97.1828 76.1405C97.1912 76.1552 97.2016 76.174 97.2099 76.1898C97.2183 76.2044 97.2266 76.2254 97.2339 76.2411L97.3299 76.4487C97.9016 77.5434 97.7691 77.9837 97.7691 79.2755C97.7691 79.631 97.6491 79.5638 97.5437 79.8847L97.3873 80.3355C97.3789 80.3502 97.3664 80.368 97.3581 80.3827L96.9804 80.9919C96.6529 81.4071 96.3118 81.8045 95.8663 82.0761L95.0235 82.5206C94.1848 82.8215 93.4076 82.8792 92.5293 82.6402C91.7845 82.4378 91.7876 82.4808 91.1252 82.075C91.0177 82.01 91.1168 82.0803 90.9864 81.9859L90.4012 81.5099C90.3376 81.4511 90.3407 81.4522 90.2844 81.3998C90.1874 81.3086 90.1457 81.2729 90.0539 81.1754L89.1901 80.2957C89.1797 80.2842 89.164 80.2674 89.1536 80.2569L89.0785 80.1804C89.0253 80.1258 89.0284 80.13 88.9648 80.0661L87.641 78.7366C87.6306 78.725 87.615 78.7093 87.6035 78.6978L87.3771 78.4703C87.3656 78.4598 87.35 78.444 87.3385 78.4325L86.8847 77.9764C86.8743 77.9649 86.8587 77.9492 86.8472 77.9376L86.0533 77.1397C86.0001 77.0852 86.0033 77.0894 85.9396 77.0254L84.6159 75.6959C84.6054 75.6844 84.5898 75.6687 84.5783 75.6571C84.5627 75.6414 84.5178 75.5974 84.5022 75.5816L79.8142 70.8697C79.7986 70.8539 79.7527 70.8099 79.737 70.7952L79.0579 70.1095C79.0423 70.0938 78.9964 70.0497 78.9807 70.035L75.6854 66.7344C75.6165 66.6599 75.5998 66.6369 75.5039 66.5372C75.3943 66.424 75.3902 66.4198 75.2775 66.3097L74.0288 65.0568C74.0184 65.0452 74.0028 65.0295 73.9913 65.018L70.3997 61.408C69.1709 60.2064 67.7407 59.7713 66.3439 61.0683C65.6502 61.7131 65.8108 61.9857 65.6637 62.5131C65.6085 62.7113 65.5542 62.6043 65.5542 62.9346L65.8442 64.0869C65.9026 64.1833 66.0581 64.3658 66.1373 64.4759L66.3846 64.8355C66.9865 65.6167 83.3975 81.9712 85.611 84.1961C86.118 84.7057 86.6167 85.1293 87.0506 85.7133C87.7589 86.6674 87.4272 86.3896 87.7735 87.1907C88.0666 87.8669 88.0082 88.8934 87.7506 89.5781C87.6984 89.7176 87.6786 89.8371 87.6504 89.9335L87.4303 90.3959C87.423 90.4127 87.4157 90.4337 87.4084 90.4494C87.1111 91.1016 86.5415 91.6374 85.9469 92.0211L84.2685 92.6901C83.5341 92.8295 82.5942 92.6733 81.9402 92.3713C81.9245 92.364 81.9057 92.3524 81.8911 92.3451L81.7973 92.2874C81.0556 91.867 80.7009 91.6132 80.1167 91.0125L78.5301 89.4145C78.5144 89.3988 78.4717 89.3527 78.4571 89.3359L77.0551 87.933C77.0446 87.9215 77.029 87.9057 77.0185 87.8942L74.7497 85.6137C74.734 85.598 74.6913 85.5518 74.6767 85.5351L74.0309 84.8923C74.0205 84.8808 74.0049 84.8651 73.9944 84.8535L72.6321 83.4873C72.5903 83.4454 72.5444 83.3982 72.5194 83.3731L72.2576 83.1036C72.2419 83.0879 72.196 83.0449 72.1793 83.0302L71.7621 82.6129C71.7516 82.6014 71.736 82.5856 71.7256 82.5741L70.4393 81.2823C70.3298 81.1743 70.2589 81.1177 70.166 81.0244L67.3255 78.3319C66.226 77.1963 65.6554 76.5641 64.027 76.7507C63.6129 76.7979 63.4992 76.886 63.3938 76.951L63.2989 77.0076C62.4373 77.5371 61.9251 78.2322 61.9251 79.2755C61.9251 80.5473 62.9067 81.3641 63.5701 82.031L70.1483 88.6428C71.447 89.9482 75.7198 94.0804 76.9549 95.5588C77.0144 95.6301 76.9987 95.608 77.0613 95.6793L77.2021 95.8419C77.2543 95.9121 77.2199 95.8534 77.2929 95.9792C77.3503 96.0788 77.3388 96.0778 77.3951 96.1805L77.5975 96.5852C77.659 96.7289 77.5923 96.5894 77.6695 96.7415C77.8051 97.0078 78.0325 98.1066 78.0325 98.353C78.0325 98.6214 77.9814 98.6843 77.9271 98.9307C77.7488 99.7349 77.7112 100.259 77.174 100.91L77.006 101.122C76.7484 101.454 76.425 101.695 76.0985 101.958L75.1471 102.446C75.0084 102.512 75.145 102.488 74.8874 102.565C74.2782 102.745 73.4885 102.632 72.8887 102.611C72.3452 102.592 71.9363 102.392 71.4867 102.12C71.0308 101.845 70.6615 101.495 70.2839 101.125L69.1792 100.032C69.1677 100.02 69.1521 100.004 69.1416 99.9939L67.8575 98.7001C67.846 98.6896 67.8294 98.6739 67.8189 98.6634L67.5164 98.3593C67.3599 98.1947 67.3099 98.1339 67.1409 97.9766C67.1294 97.9661 67.1127 97.9514 67.1012 97.9399L65.5866 96.4227C65.5751 96.4122 65.5574 96.3976 65.5459 96.3871C65.5344 96.3766 65.5177 96.3619 65.5073 96.3504C65.0911 95.9121 65.476 95.7957 65.6356 94.8605C65.6898 94.5438 65.6637 94.7283 65.7169 94.5627L65.7555 94.4494C65.7785 94.3677 65.7806 94.3477 65.7973 94.2628C65.9423 93.5163 65.9225 91.824 65.7597 91.0796L64.8668 88.4814C64.7426 88.236 64.631 87.998 64.4756 87.7348C64.1981 87.2651 63.8309 86.8656 63.4919 86.4431L62.6386 85.5529C62.0398 85.0737 61.6789 84.734 60.9591 84.3534L59.7793 83.7914C59.2295 83.5796 58.6256 83.3594 57.9997 83.3007C57.7138 83.2745 57.7712 83.2472 57.5073 83.1875C57.0452 83.0826 56.5225 83.0774 56.0291 83.0774C56.0291 82.4462 56.0396 81.9785 55.9321 81.427C55.7704 80.5977 55.6724 80.5085 55.5461 80.0671C55.471 79.805 55.4846 79.5733 55.3688 79.3332L55.0882 78.7785C54.4248 77.5612 54.3674 77.2928 53.3899 76.2296L51.5821 74.7019C51.1002 74.4167 50.6089 74.12 50.0821 73.9292C50.0643 73.9229 50.0435 73.9166 50.0257 73.9093L49.3946 73.708C49.0567 73.6388 48.8105 73.4825 48.4662 73.4249C47.4199 73.2477 47.3375 73.1963 46.1984 73.1963C46.1984 72.499 46.0503 71.721 45.9533 71.0112L45.4651 69.3734C45.4025 69.2183 45.4348 69.2497 45.3618 69.0977C45.1135 68.5818 44.8371 68.0051 44.4939 67.5386L43.4841 66.273C43.4424 66.2227 43.4351 66.2122 43.3798 66.1493L42.0748 65.0295C41.8787 64.8827 41.91 64.9163 41.7045 64.7936C41.0275 64.3889 40.3598 63.9904 39.5889 63.8038C38.9724 63.6549 38.4613 63.3351 37.657 63.3131C37.2366 63.3016 36.7922 63.3152 36.3687 63.3152C36.158 62.4072 36.2112 61.3534 35.9285 60.6415C35.6541 59.9526 36.0672 60.4171 35.0429 58.339C34.7278 57.7005 34.2949 57.1458 33.8265 56.5974L32.0271 54.9859C31.6588 54.7049 31.2802 54.5612 30.9026 54.3673L30.8066 54.3117C30.6334 54.2142 30.5364 54.1722 30.3539 54.0831C29.922 53.8713 29.3555 53.7623 28.908 53.6365L28.4136 53.4498C27.9848 53.3733 25.2069 53.368 24.8449 53.4792C24.5236 53.5788 24.726 53.5767 24.411 53.6511L23.4054 53.9332C22.9359 54.0391 23.2197 53.9563 22.9109 54.1209L22.5541 54.2939C22.5395 54.3023 22.5218 54.3148 22.5072 54.3232L22.3633 54.4061C22.3476 54.4145 22.3278 54.4228 22.3121 54.4312C21.9481 54.6168 21.5016 54.8024 21.2001 55.0614L19.1847 56.8354C18.1666 57.8588 15.2677 60.5388 14.405 61.9112C14.2861 62.1 14.3403 61.9532 14.2892 62.1744C13.8073 61.8504 13.5027 61.3639 13.1188 60.9183C13.0499 60.8386 13.0562 60.8491 13.0103 60.7988L12.5492 60.2735C12.5388 60.262 12.5252 60.2441 12.5148 60.2315L10.3763 57.2129C10.2782 57.0368 10.2866 57.0735 10.199 56.9351L10.0592 56.696C10.0508 56.6813 10.0383 56.6635 10.03 56.6488L8.46107 53.7424C8.45272 53.7266 8.44333 53.7078 8.43499 53.692L7.0455 50.2246C6.94118 49.9594 6.96518 50.1575 6.88902 49.8503L6.06389 46.7279C5.98669 46.4479 5.99608 46.5811 5.93766 46.3986L5.67166 45.1457C5.53396 44.5512 5.63619 44.1475 5.41713 43.4251C5.37644 43.2898 5.28673 41.7821 5.28673 41.5797C5.28882 40.8458 5.13756 40.4411 5.13756 39.7532V38.6135C5.13756 38.0578 5.26691 37.7978 5.28986 37.3218C5.30134 37.0764 5.27317 36.809 5.29299 36.5647C5.31698 36.2764 5.36393 36.247 5.3681 35.8801C5.37644 35.1346 5.35662 35.2101 5.53605 34.5285C5.64245 34.1238 5.54752 33.6205 5.68209 33.155L6.14629 30.9615C6.19011 30.778 6.18698 30.8703 6.25896 30.6942C6.37788 30.4006 6.31111 30.3754 6.37996 30.0556L7.33967 27.2205C7.36783 27.1376 7.38765 27.038 7.42729 26.929L7.78823 25.999C7.79553 25.9832 7.807 25.9644 7.81431 25.9486L10.2 21.3541C10.4514 20.963 10.6246 20.5436 10.9167 20.1745C11.7449 19.126 12.4678 18.0031 13.3733 17.0196L13.6915 16.6558C13.7019 16.6442 13.7175 16.6285 13.728 16.617L14.091 16.2217C14.1014 16.2101 14.1171 16.1934 14.1275 16.1829L16.5998 13.7273C16.6113 13.7168 16.6269 13.7 16.6384 13.6895L16.7584 13.5826C16.7698 13.5721 16.7876 13.5585 16.8001 13.548L19.5592 11.3807C19.6729 11.2969 19.6636 11.3073 19.7825 11.2256C19.8013 11.213 19.8545 11.1773 19.8722 11.1637C19.8847 11.1543 19.9024 11.1406 19.916 11.1312L25.6231 7.9752L26.9917 7.45095C27.2233 7.39643 27.0648 7.46773 27.2901 7.37022L28.376 6.94243C28.7975 6.83338 28.7171 6.74216 29.2544 6.6845L30.4738 6.38987C30.865 6.31018 30.6605 6.27453 31.0309 6.1896C31.3542 6.11516 31.3824 6.20323 31.6808 6.08265C32.1898 5.87715 32.4767 5.97676 32.9618 5.84989C33.6805 5.66221 34.3335 5.68737 34.9072 5.5259C35.6062 5.32878 36.3228 5.39693 37.0499 5.39903C37.6435 5.40008 37.9731 5.32144 38.4842 5.32039C39.4867 5.31934 41.862 5.32459 42.7956 5.55316C43.3308 5.68422 44.2487 5.68108 44.7839 5.83416C45.0488 5.9107 45.15 5.90336 45.4452 5.92957C45.9397 5.97466 45.6174 5.99144 46.02 6.11201C46.2652 6.18541 46.4269 6.13927 46.6887 6.20009C47.082 6.29026 46.8764 6.31123 47.2572 6.38882C48.2399 6.59013 49.2382 6.95082 50.1854 7.24649L56.1397 10.0775C56.1533 10.0869 56.171 10.1005 56.1835 10.1089C56.196 10.1183 56.2138 10.132 56.2263 10.1414L58.3815 11.5464C58.4743 11.6135 58.5014 11.6429 58.5911 11.7152L60.3311 13.0825C61.0707 13.5931 60.2957 13.9066 59.7146 14.4979L58.0184 16.2133C57.9986 16.2353 57.9131 16.3328 57.912 16.3339L57.7566 16.4817C57.6596 16.5698 57.6179 16.6023 57.524 16.704L57.3821 16.8655C57.3717 16.877 57.356 16.8938 57.3456 16.9053C57.3352 16.9168 57.3195 16.9326 57.3091 16.9441L56.5528 17.7043C56.5424 17.7158 56.5267 17.7315 56.5152 17.7431L55.833 18.4256C55.8226 18.4372 55.8069 18.4529 55.7965 18.4644L54.5353 19.7048C54.4967 19.7457 54.4602 19.7908 54.4289 19.8264C54.4143 19.8432 54.3726 19.8904 54.358 19.9072L48.992 25.3059C48.9815 25.3174 48.9659 25.3332 48.9544 25.3447L48.0062 26.2915C47.9947 26.302 47.978 26.3167 47.9666 26.3272C47.1466 27.0674 46.4415 27.9324 45.6174 28.6779C45.4974 28.7859 45.4578 28.832 45.3545 28.9453L44.3958 30.1102C44.3854 30.1217 44.3708 30.1395 44.3614 30.151L44.2925 30.2339C43.9337 30.6596 43.9483 30.69 43.7 31.1587L43.2942 31.8905C43.118 32.2449 42.9406 32.5018 42.8342 32.8719L42.2772 34.8966C42.2459 35.2069 42.2793 35.5634 42.2709 35.879C42.2615 36.268 42.1332 36.4641 42.1332 36.7126C42.1332 36.96 42.2615 37.1571 42.2709 37.5461C42.2991 38.7121 42.345 38.9658 42.7414 40.0374L43.1054 41.1918C43.191 41.3564 43.2181 41.3365 43.312 41.5158L43.8127 42.4563C44.1319 43.1095 44.6222 43.5928 45.0885 44.1381L47.0746 45.866C47.6348 46.2456 48.3369 46.5287 48.896 46.8474C49.2017 47.0215 48.896 46.903 49.2945 46.9785C49.8839 47.0896 50.5964 47.508 51.264 47.5069C52.0151 47.5069 52.3426 47.7334 53.0801 47.7334L53.0812 47.7313Z" fill="white"/>
<path fill-rule="evenodd" clip-rule="evenodd" d="M55.6525 72.5833C55.6525 73.4913 55.5753 73.4084 55.9341 74.1235C56.0499 74.3531 56.2158 74.653 56.3942 74.8008C57.3268 75.5767 58.2145 75.7319 59.2931 75.3303C59.8762 75.1133 60.7942 74.0742 60.7942 73.4189C60.7942 72.5654 60.8965 72.2855 60.4698 71.6165C60.0943 71.0283 59.9023 70.8406 59.2837 70.5292C59.2681 70.5219 59.2493 70.5104 59.2337 70.503C58.4346 70.1266 57.1713 70.3395 56.437 71.0157C56.1459 71.2842 56.0301 71.5285 55.8622 71.8818C55.7328 72.1544 55.6514 72.2446 55.6514 72.5822L55.6525 72.5833Z" fill="white"/>
<path fill-rule="evenodd" clip-rule="evenodd" d="M115.54 15.809C116.611 15.809 116.728 15.9254 117.427 15.5018C117.882 15.225 118.414 14.7563 118.555 14.2037C118.732 13.5086 118.924 13.3146 118.678 12.7316C118.478 12.2577 118.615 12.0553 117.93 11.3549C117.638 11.0572 116.845 10.6409 116.523 10.6409C115.468 10.6409 115.452 10.6105 114.56 11.1767C114.447 11.249 114.328 11.3256 114.222 11.4451L113.861 11.9935C113.575 12.4611 113.711 12.1004 113.551 13.1301C113.502 13.4415 113.501 13.1961 113.58 13.517C113.638 13.7508 113.615 13.7717 113.658 14.0517C113.708 14.3799 113.896 14.5497 114.091 14.8328C114.456 15.3655 114.261 15.0855 114.63 15.355L115.092 15.6507C115.253 15.7345 115.295 15.809 115.54 15.809Z" fill="white"/>
</g>
<defs>
<clipPath id="clip0_61_1086">
<rect width="129" height="108" fill="white"/>
</clipPath>
</defs>
</svg>
