<svg width="128" height="125" viewBox="0 0 128 125" fill="none" xmlns="http://www.w3.org/2000/svg">
<path fill-rule="evenodd" clip-rule="evenodd" d="M105.999 120H102.749C103.322 118.981 102.999 107.342 102.999 105.25C104.55 105.25 105.436 104.859 106.749 104.75L106.753 116.754C106.77 118.754 106.83 118.805 105.999 120V120ZM127.999 93.0907V99.25C127.999 103.233 124.134 105.25 120.499 105.25V118.5C120.499 124.331 112.562 125.303 108.749 122.75C104.202 125.156 101.965 123.5 99.7493 123.5C97.8064 123.5 95.7868 125.151 91.2494 122.75C89.1914 123.839 88.0372 124 85.4994 124C78.1604 124 79.4994 116.696 79.4994 111.5C78.5912 111.711 76.4496 112.164 75.7495 112.5C75.7495 117.435 76.7275 124 69.9996 124C67.2907 124 66.3569 123.997 63.9996 122.75C61.6423 123.997 60.7087 124 57.9996 124C51.1954 124 52.2497 117.344 52.2497 112.5C51.5496 112.164 49.408 111.711 48.4998 111.5C48.4998 116.467 49.8608 124 42.7498 124C40.0409 124 39.1071 123.997 36.7498 122.75C35.7229 123.293 34.8081 124 33.2498 124C30.3147 124 28.1123 123.556 27.9999 123.556C25.8353 123.556 23.695 125.102 19.2499 122.75C17.3569 124.017 15.4125 124 12.9999 124C10.0844 124 7.50002 121.415 7.50002 118.5V105.25C3.84397 105.25 0 103.246 0 99.25V93.1267C0.122498 87.5383 0.974813 83.1771 5.81189 78.312C6.72804 77.3905 8.28631 76.5658 9.00002 75.5001C8.7761 74.539 8.27279 73.8871 7.96058 72.7896C7.22479 70.2033 7.68853 69.0324 7.94864 66.682C8.22049 64.2251 5.21988 54.4062 9.7179 40.2179C10.3958 38.0794 13.2847 28.7502 15.7501 28.7502C16.7798 28.7502 17.7501 29.7205 17.7501 30.7502L14.3412 38.5912C13.6506 40.6242 12.0501 45.2546 12.0002 47.5L14.9137 49.0865C17.069 50.1673 18.3898 51.2817 18.5047 53.9955L18.7501 58C24.881 58 24.9759 59.7249 28.0001 61.7499C28.86 61.174 29.0079 60.5148 30.0001 60.2499C29.4532 59.5036 29.7087 59.9077 28.7628 59.4871C27.5376 58.9426 26.2317 58.3742 25.2998 57.4499C23.9499 56.1112 23.7501 54.3237 23.7501 51.7498C23.7501 47.666 26.9213 47.2011 30.6026 46.0958C33.6953 45.1673 35.7861 47.696 38.2498 48.9998C39.0106 47.8637 40.2925 46.7075 41.1893 45.6891C42.1425 44.6068 43.2545 43.7793 44.1762 42.676C45.6144 40.9543 45.4125 40.9087 47.6614 39.9113C49.4476 39.119 53.9999 36.5977 53.9999 40.2499C53.9999 42.1063 51.0317 42.706 49.7556 43.2557C48.8095 43.6632 48.2534 43.7859 47.5503 44.5503L42.5676 50.0675C38.7475 54.0375 37.2742 52.9712 32.9591 50.2786C31.7429 49.5198 31.6502 49.8004 30.282 50.2782C29.4612 50.565 28.2724 50.8792 27.5002 51.2499C27.5863 55.1153 28.2676 54.8813 31.3334 56.4167C36.5245 59.0164 34.2233 57.4068 38.6934 58.0565C42.2811 58.5779 47.672 62.5579 48.0001 66.4999C49.2543 66.6041 51.1888 66.9998 52.5001 66.9998C53.8315 64.2251 53.6963 63.3428 56.182 60.9318C57.5573 59.5978 60.3972 58 63.0001 58C67.3741 58 69.6926 58.8171 72.5665 61.6835C74.2337 63.3462 75.7501 66.2783 75.7501 69.4999C75.7501 72.9437 74.8528 73.1627 74.2501 75.7499C75.5055 76.4141 76.354 77.4823 77.5 78.2499C78.8459 77.3487 79.5117 76.5374 81 75.7499C80.78 74.8057 80.2833 74.1266 79.9631 73.0366C78.9976 69.7487 79.6358 66.3913 81.2746 63.5245C81.9507 62.3419 81.7658 62.3202 81.7519 60.5019L81.7499 49.7499C81.7415 43.1895 84.0057 43.6345 91.3572 41.6073C92.6554 41.2494 92.9338 41.3902 93.6594 40.4094L96.4196 36.1697C99.771 30.4322 103.517 33.9999 111.75 33.9999C109.874 30.4557 107.839 27.2321 105.466 24.0339L103.067 21.1826C101.273 19.3183 99.5278 17.5872 97.5354 15.9645L92.8015 12.4485C92.2129 12.0788 91.7897 11.8614 91.25 11.5001C90.7242 12.5958 91.1092 13.3004 90.1905 14.4406C88.4686 16.5784 84.3623 16.6186 82.4232 17.9231C81.9656 18.2309 82.2194 17.9702 81.9605 18.4602C81.1593 19.9759 80.9312 21.8943 80.3519 23.6017C79.98 24.6981 79.7143 25.2753 78.9386 25.9383C76.0911 28.3724 70.6372 26.7048 70.2534 21.7466C69.9235 17.4832 70.2253 16.7462 66.8556 14.1443C65.6863 13.2415 65.2329 12.0605 63.6564 11.5936C62.1035 11.1334 60.8807 10.8596 59.3385 10.4115C57.716 9.94043 56.5451 9.83265 55.4259 8.82423C54.6148 8.09361 53.6662 6.21717 54.2503 4.99994C52.2911 4.99994 50.0124 5.8284 48.3026 6.30228C46.9028 6.69006 45.5748 6.8404 44.8999 8.14929C44.2709 9.36891 39.7506 17.9117 39.7506 18.7499C39.7506 19.3931 40.7884 22.9881 41.0279 23.4727C41.5151 24.4588 43.687 25.187 44.7507 25.7498C45.2574 24.7921 45.4704 24.0116 45.8037 22.8027C48.2678 13.8614 50.4405 15.8273 58.981 16.7695C62.0001 17.1026 63.1509 17.5484 64.1489 20.1014C64.9965 22.2694 65.5843 24.1747 66.4277 26.3225C68.8049 32.3757 70.4622 34.5373 63.6432 37.3925C62.0661 38.0529 57.7504 40.5353 57.7504 36.9997C57.7504 34.763 62.3198 33.9037 64.5003 32.7499C64.4085 31.6444 63.8216 30.5915 63.4694 29.5308L61.3235 23.6767C60.9849 22.8178 60.438 21.5557 60.2503 20.7501C57.0329 20.7501 54.046 19.8178 51.0003 19.75C50.0746 21.6792 49.5168 24.4636 48.6524 26.6521C48.2258 27.7321 47.6195 28.6206 46.6351 29.1362C45.5424 29.7085 44.3025 29.7384 43.1825 29.3297C42.2499 28.9893 40.8668 28.1988 39.9964 27.7539C38.8653 27.1761 38.2806 26.7921 37.6594 25.5911C37.171 24.6469 35.7505 19.794 35.7505 18.5C35.7505 16.8315 39.0001 12.1478 39.5004 10.0001C38.4053 10.5796 37.6884 10.8836 36.6018 11.6013C31.3625 15.0615 26.5401 18.8539 22.6438 23.8931C20.0107 27.2987 18.2508 25.1413 18.2508 23.7499C18.2508 22.1662 24.944 15.4795 26.3243 14.3235C29.5423 11.6294 32.865 9.07757 36.5825 7.08201C44.0281 3.08492 52.938 0 64.2504 0C72.4068 0 81.9358 2.33422 87.42 5.08028C95.3209 9.03641 99.5248 12.2148 105.69 18.3103C109.483 22.0608 113.573 28.1352 115.535 32.9647C119.239 42.0814 120.75 47.2677 120.75 57.9998C120.75 60.2469 119.928 65.8848 120.086 66.8942C121.065 73.1607 119.862 71.7997 119 75.4997L122.313 78.4371C127.023 83.1479 127.874 87.5958 128 93.0903L127.999 93.0907ZM21.2498 104.75C22.6635 104.867 23.2008 105.25 24.9997 105.25V119.25C24.9997 120.205 24.923 119.341 25.2497 120H21.9997C20.7847 118.185 21.2496 116.303 21.2496 112.75C21.2496 110.083 21.2496 107.416 21.2496 104.75L21.2498 104.75ZM75.7495 108.5V105.25C77.5483 105.25 78.0857 104.867 79.4994 104.75V107.5C78.9521 107.545 76.1472 108.309 75.7495 108.5V108.5ZM48.4996 104.75C49.9133 104.867 50.4507 105.25 52.2495 105.25V108.5C51.7051 108.238 49.2535 107.563 48.4996 107.5V104.75V104.75ZM52.2495 91.75V101.25C47.5469 101.25 48.4996 99.0195 48.4996 91.9999C48.4996 86.1656 53.005 79.5642 56.4996 78.7499C62.015 82.4433 65.9747 82.4495 71.4994 78.7499C74.9691 79.5582 79.4994 86.1522 79.4994 91.9999C79.4994 99.0195 80.4519 101.25 75.7495 101.25V91.75C75.7495 90.2424 71.9355 88.4206 71.744 92.9946C71.4913 99.0394 72.341 116.138 71.4994 119.75C69.6983 120.169 69.402 120 67.2496 120C66.6486 120 66.5146 119.595 65.9995 119.25L66.0011 101.748C66.0137 99.6256 66.1012 97.75 63.9994 97.75C61.133 97.75 61.9995 102.982 61.9995 107.5C61.9995 111.416 61.9995 115.333 61.9995 119.25C60.5022 120.253 61.8004 120 57.7496 120C57.0745 120 57.0604 119.881 56.4996 119.75C55.7491 116.529 56.3841 99.0796 56.2598 93.2398C56.1556 88.3439 52.2497 90.2227 52.2497 91.75H52.2495ZM107.499 81.5001C110.391 81.5001 112.34 81.094 114.581 79.8321C115.341 79.4041 115.651 78.9766 116.499 78.7501C118.638 79.8818 120.792 82.1854 121.991 84.2581C124.7 88.9391 124.249 93.0324 124.249 98.5001C124.249 99.2052 123.807 100.049 123.447 100.448C122.659 101.321 121.716 101.25 120.499 101.25V92.2501C120.499 89.6442 117.076 89.1996 116.548 91.7989L116.5 119.25C115.002 120.253 116.3 120 112.249 120C111.574 120 111.56 119.881 110.999 119.75C109.87 114.902 111.447 95.7242 110.404 89.0958C109.875 85.7374 108.786 83.9312 107.5 81.5003L107.499 81.5001ZM44.2496 119.75C42.4485 120.169 42.1522 120 39.9997 120C39.3988 120 39.2648 119.595 38.7497 119.25L38.7515 101.748C38.7638 99.6256 38.8515 97.75 36.7498 97.75C33.8834 97.75 34.7498 102.982 34.7498 107.5C34.7498 111.416 34.7498 115.333 34.7498 119.25C33.2524 120.253 34.5508 120 30.4998 120C29.8247 120 29.8105 119.881 29.2498 119.75C28.4993 116.529 29.1342 99.0796 29.0099 93.2398C28.9057 88.3439 24.9997 90.2227 24.9997 91.75V101.25C20.2971 101.25 21.2498 99.0195 21.2498 91.9999C21.2498 86.2833 25.6715 79.5837 29.2498 78.7499C34.7652 82.4433 38.7249 82.4495 44.2496 78.7499C45.9001 79.1345 46.4583 80.6552 47.7495 81C47.6726 81.9255 47.4681 82.1408 47.0503 82.8009C46.0588 84.3673 45.3038 86.7486 44.9267 88.6772C43.7495 94.6979 45.4042 114.793 44.2496 119.75ZM16.9998 119.75C15.1987 120.169 14.9024 120 12.7497 120C12.1488 120 12.0147 119.595 11.4997 119.25L11.5158 92.7341C11.4516 88.9122 7.49982 89.69 7.49982 92.2501V101.25C2.99782 101.25 3.74991 99.2442 3.74991 93.0002C3.74991 86.3827 6.53693 82.0736 11.4999 78.7503C13.193 79.2025 14.1905 81.5003 20.4999 81.5003C16.7938 88.5048 17.2499 90.309 17.2499 99.0002C17.2499 103.552 17.7682 116.453 17 119.75L16.9998 119.75ZM48.4996 70.5002C49.5216 70.5228 49.5733 70.6811 50.7668 70.733C53.0358 70.8316 51.9878 71.1476 52.9627 73.7871C53.2733 74.6285 53.5525 74.9041 53.7495 75.7503C53.0633 76.1134 52.5645 76.462 51.9608 76.9615C51.2461 77.5529 51.1731 78.0037 50.2496 78.2503C49.2827 77.6028 48.9117 76.7621 46.9996 75.7503C47.2675 74.6003 48.4457 72.9249 48.4996 70.5004V70.5002ZM93.2494 78.7501C93.2494 79.7295 94.1796 80.5 95.2493 80.5C96.7984 80.5 97.7106 79.0941 98.9992 78.7501C102.946 80.8385 106.749 85.9484 106.749 92.0001C106.749 99.0197 107.702 101.25 102.999 101.25V91.7502C102.999 90.1537 99.1842 88.4435 98.9938 92.9948C98.7411 99.0396 99.5908 116.138 98.7492 119.75C96.9482 120.17 96.6519 120 94.4992 120C93.8982 120 93.7642 119.595 93.2492 119.25L93.251 101.748C93.2633 99.6258 93.351 97.7502 91.2492 97.7502C88.3829 97.7502 89.2493 102.983 89.2493 107.5C89.2493 111.417 89.2493 115.333 89.2493 119.25C87.7014 120.287 88.9709 120 84.7493 120C84.1483 120 84.0143 119.595 83.4992 119.25C83.4992 114.402 83.8057 92.729 83.1143 88.8852C82.7921 87.0937 81.9712 84.5689 81.1443 83.1053C80.7057 82.3288 80.4752 82.22 80.2493 81.2503C80.7033 80.5722 82.6539 79.0056 83.7492 78.7503C84.4379 79.2114 85.9762 80.5002 86.9992 80.5002C88.0237 80.5002 89.0049 79.3107 88.8947 78.3176C88.671 76.3035 83.4995 75.4524 83.4995 70.7503C83.4995 67.5958 83.401 66.4716 85.9315 63.9326C91.0633 58.7831 98.9994 63.6106 98.9994 68.7504C98.9994 70.491 99.1104 71.5199 98.3462 73.0971C97.4944 74.8544 96.5552 75.6663 94.8902 76.641C94.3176 76.976 93.2496 77.3837 93.2496 78.7503L93.2494 78.7501ZM56.2496 70.2502V68.7502C56.2496 65.117 60.2296 61.7503 63.9996 61.7503C67.7696 61.7503 71.7496 65.117 71.7496 68.7502C71.7496 71.2707 71.5823 73.3242 69.6948 75.1952C64.7256 80.1218 56.2496 76.6829 56.2496 70.2502ZM28.9998 70.2502V68.7502C28.9998 65.117 32.9798 61.7503 36.7498 61.7503C40.5198 61.7503 44.4998 65.117 44.4998 68.7502C44.4998 71.2707 44.3325 73.3242 42.4449 75.1952C37.4758 80.1218 28.9998 76.6829 28.9998 70.2502ZM102.249 65.2502C102.249 65.1079 103.016 64.1366 103.209 63.9602C103.491 63.7035 104.278 63.1381 104.663 62.9142C109.835 59.9075 116.499 63.1244 116.499 70C116.499 76.4628 108.407 79.9158 103.432 75.5673C100.816 73.2806 103.956 72.5241 102.736 67.2633C102.577 66.5784 102.249 65.9361 102.249 65.25V65.2502ZM24.9999 69.5001C24.9999 71.2202 25.0824 71.6076 25.4909 73.0374C25.8423 74.2672 25.6878 74.4949 24.8281 75.3267C20.3502 79.6597 11.5001 77.5197 11.5001 69.2501C11.5001 66.1901 13.613 63.6271 16.0411 62.5412C18.5316 61.4272 20.8787 61.5781 23.1774 62.8228C23.6936 63.1024 25.75 64.8038 25.75 65.25C25.75 66.3086 24.9999 67.0853 24.9999 69.4999V69.5001ZM116.749 61.0002C112.912 58.4305 112.562 58.0002 107.749 58.0002C103.927 58.0002 101.696 60.447 99.7495 61.7501C97.1683 57.8956 90.2335 56.8776 85.7495 59.25V47.25C87.4498 46.8539 94.4012 45.0389 95.4352 44.1858C96.5845 43.2376 97.288 41.9398 98.1493 40.6498L100.749 36.7502L111.969 38.0308C112.871 38.1167 113.35 38.148 113.724 38.7754C114.838 40.6433 116.257 48.9594 116.611 51.3887C117.126 54.9268 116.749 57.511 116.749 61L116.749 61.0002ZM11.2501 51.7502C12.3969 51.8457 13.2053 52.5651 14.5001 53.2502C14.5001 55.3279 14.7501 56.7173 14.7501 59.0003C13.3256 59.332 12.3273 60.2787 11.2501 61.0002C11.2501 59.6706 11.0049 57.3151 11.0672 56.5698C11.1837 55.1762 11.2501 53.5356 11.2501 51.7504V51.7502ZM57.9998 5.50048C57.9998 4.14723 58.6306 4.00047 60.9998 4.00047C71.4463 4.00047 79.0328 5.02043 87.4997 9.50035C87.2476 12.531 87.2605 12.1454 84.7817 13.0323C79.6428 14.871 79.3693 14.0073 77.8441 18.5944C77.363 20.0411 76.8233 22.0548 76.2498 23.2502C74.5267 22.4233 74.3382 23.4462 74.0574 20.9426C73.8855 19.4114 73.8937 18.3115 73.6893 16.8109C73.3667 14.4432 71.5157 12.9267 69.8552 11.6449C67.8599 10.1043 67.6364 8.68164 64.6461 7.85399L59.3345 6.41543C58.515 6.22254 57.9998 6.35935 57.9998 5.50028V5.50048Z" fill="white"/>
</svg>
