<svg width="120" height="123" viewBox="0 0 120 123" fill="none" xmlns="http://www.w3.org/2000/svg">
<g clip-path="url(#clip0_61_1104)">
<path fill-rule="evenodd" clip-rule="evenodd" d="M50.9309 88.9197C50.9309 86.8968 50.9368 85.562 52.4509 83.7612C55.7465 79.8463 63.1514 82.9917 69.3155 82.9917C78.7891 82.9917 82.7888 74.3705 86.5312 69.9716C87.4409 68.9026 88.6039 67.8971 89.6233 66.8698C92.2525 64.2162 96.0128 63.4784 100.124 63.4784C101.788 63.4784 102.434 63.9405 103.851 63.9722L104.098 69.9002C104.098 79.9811 100.537 89.9569 96.0986 96.5275C95.5241 97.3783 95.1051 98.0487 94.4808 98.8717L89.1325 105.165C88.6298 105.623 88.5181 105.625 88.0214 106.037C87.6144 106.374 87.393 106.64 87.02 107.017C85.6874 108.36 84.0955 109.329 82.5535 110.48L75.1744 114.779C73.9735 115.257 73.4728 114.76 72.4973 114.167C69.0881 112.094 66.423 110.115 63.4287 107.622L58.6709 102.719C58.3198 102.285 58.0864 102.128 57.7154 101.694C57.081 100.952 56.5564 100.26 55.9699 99.4766C55.3894 98.7011 55.0123 98.0368 54.4498 97.2831C52.8978 95.2126 50.9329 91.7082 50.9329 88.9237L50.9309 88.9197ZM18.8814 67.9249C14.4308 67.9249 11.8056 67.1137 8.13103 63.2979C6.8603 61.9771 4.48042 59.1866 4.94722 57.3045C6.83038 49.7106 10.473 43.1936 14.9395 37.575C16.5055 35.6036 19.3681 32.6525 21.367 31.1195L24.9936 28.3013C28.7998 25.6853 33.8269 23.1646 38.2914 21.7624C39.9731 21.2349 41.553 20.8045 43.4162 20.4337C44.2321 20.273 45.0879 20.1005 46.1372 19.9279C46.995 19.7871 48.2637 19.7256 49.1933 19.5095C49.1933 22.4943 50.1229 25.0785 50.8271 27.5179C51.9901 31.5419 54.0069 38.0867 50.2606 41.8132C46.1871 45.8631 37.1264 42.6581 31.4889 47.6044C26.3761 52.0925 29.4501 60.8486 24.7901 65.3982C23.4975 66.6615 21.345 67.9229 18.8814 67.9229V67.9249ZM68.8188 17.784C70.4546 18.6447 71.1289 19.1782 73.1955 19.8545C75.0667 20.4654 76.2656 20.8244 78.2804 21.223C82.5535 22.0679 90.3534 22.7719 93.0564 25.7984C93.8883 26.7305 94.8558 28.6384 95.3126 29.9771C96.3878 33.1305 97.1399 37.1526 97.1399 41.25C96.2123 40.8077 95.1171 40.4349 94.1616 40.0124C91.4266 38.8026 88.7335 36.8273 86.4534 35.0781C85.3862 34.259 83.0621 31.9862 82.1944 30.9152C81.5361 30.1021 80.9815 29.4337 80.3491 28.5511C79.7906 27.7717 79.1622 26.433 78.0091 26.433C76.9459 26.433 76.0223 27.1946 76.0223 28.1624C76.0223 30.6713 83.134 37.6623 86.4035 39.824L90.9279 42.7354C80.9576 42.7354 73.2793 37.7932 70.0875 28.3806C68.8248 24.656 68.8168 22.6787 68.8168 17.788L68.8188 17.784ZM101.118 41.0021C101.118 33.2138 99.4998 28.4361 95.6517 22.7243C99.1288 17.5619 109.374 10.9794 110.559 5.92806H111.056C111.25 6.64799 111.511 6.7412 111.972 7.48691C113.318 9.66453 113.446 9.609 114.537 12.3459C118.688 22.766 115.148 31.5241 106.765 37.7237C104.858 39.1338 103.218 39.8974 101.12 41.0021H101.118ZM92.6694 20.747C91.6919 20.5209 90.4551 19.7812 88.179 19.2834C82.3959 18.0161 73.6823 17.3556 69.8701 13.7739C68.8906 12.8536 67.7974 11.3364 66.2135 12.7168C64.452 14.2538 65.0326 20.6121 65.0904 22.9722C65.3956 35.3359 76.4113 46.4342 89.1924 46.4342H92.9188C95.0293 46.4342 96.4138 45.9781 98.1373 45.9404C99.2325 47.999 100.242 50.1489 101.084 52.3979C101.688 54.0163 103.065 58.1256 103.107 60.0196C102.159 59.9403 101.383 59.8252 100.132 59.7459C97.1599 59.5575 94.6822 59.9561 91.8535 61.1818C88.937 62.4431 87.1596 63.9028 85.1428 66.1181L78.3682 74.4498C70.8077 84.1341 62.6467 75.7191 53.6299 78.7555C51.1004 79.6063 49.0138 81.6015 47.9505 83.9754C44.5054 91.6665 51.3777 100.323 55.7125 105.163C56.325 105.847 56.5005 106.198 57.2047 106.89L62.1859 111.569C63.9274 113.034 69.2058 116.541 69.5669 117.076C68.5595 117.159 67.58 117.548 66.784 117.766C64.4421 118.409 59.7382 119.283 57.4042 119.309C56.2532 119.321 55.146 119.365 54.0967 119.406C43.5259 119.825 31.8181 115.343 24.064 109.704C18.63 105.754 13.5551 100.294 10.3533 94.4371C6.84634 88.0233 3.73036 80.0565 3.73036 72.1215C3.73036 69.7316 3.45706 66.4434 3.97971 64.2162L6.52117 66.8757C11.628 71.8973 18.5083 73.3114 25.1033 69.9022C29.4561 67.6532 31.1637 62.9072 31.5627 58.0462C32.612 45.2958 39.6479 49.5519 48.2079 47.178C52.9656 45.8571 56.1514 41.6526 56.1514 36.7976C56.1514 32.3987 56.1035 32.1785 54.9106 27.9046C53.604 23.2201 53.1591 22.6767 52.9377 17.7642C52.8818 16.5207 52.3173 15.7908 51.1323 15.6778C49.7778 15.5489 45.3472 16.247 43.9548 16.5207C33.8648 18.5059 26.2983 22.4982 19.3442 28.1148C18.9093 28.4659 18.7497 28.6979 18.3128 29.0668C13.7765 32.8826 9.24416 38.3782 6.62889 43.6339C6.10425 44.689 5.66936 45.1828 5.25244 46.2161C2.06464 54.0995 0.00195312 59.2659 0.00195312 69.1545C0.00195312 77.3295 2.04071 85.6493 4.7218 91.137C8.94693 99.78 12.9387 105.468 20.8702 111.638C42.3649 128.355 72.5672 126.449 92.2365 107.007L95.4064 103.489C96.3858 102.227 97.3414 101.101 98.287 99.6849C108.828 83.9001 111.006 65.0571 103.103 47.4219C102.692 46.5036 102.113 45.7659 101.864 44.7009C105.289 43.9076 111.212 39.4472 113.979 36.4921C117.222 33.0254 120.001 27.1014 120.001 22.2245C120.001 15.8523 119.448 13.5041 116.773 8.14337C115.932 6.45561 111.936 -0.00585938 110.063 -0.00585938C107.471 -0.00585938 108.864 1.93972 106.514 5.8527C105.389 7.7249 102.654 10.6165 100.832 12.0623C100.328 12.4629 100.032 12.8021 99.5657 13.2721C98.658 14.1884 97.9518 14.6187 97.0781 15.4914C95.9709 16.598 93.0544 19.3191 92.6714 20.743L92.6694 20.747Z" fill="white"/>
<path fill-rule="evenodd" clip-rule="evenodd" d="M17.8879 87.9328C17.8879 86.834 17.7802 86.1121 19.2623 85.0987C21.2013 83.7719 25.2908 83.6569 27.1919 86.0943C28.1495 87.3219 28.8995 87.9447 30.258 88.7281C31.9237 89.688 36.0272 90.1025 36.0272 94.1067C36.0272 97.4147 31.1059 97.0716 28.325 97.0716C22.0492 97.0716 17.8899 90.6498 17.8899 87.9328H17.8879ZM13.9121 87.4389C13.9121 92.1472 19.0609 98.5016 24.1857 100.197C28.3709 101.584 39.7516 102.216 39.7516 94.1067C39.7516 91.2607 37.8325 88.2243 35.7738 86.9471C34.7964 86.3422 34.162 86.2172 32.975 85.7789C29.5818 84.5235 28.716 80.2754 23.3558 80.2754C18.2609 80.2754 13.9141 83.286 13.9141 87.4389H13.9121Z" fill="white"/>
</g>
<defs>
<clipPath id="clip0_61_1104">
<rect width="120" height="123" fill="white"/>
</clipPath>
</defs>
</svg>
