<svg width="130" height="130" viewBox="0 0 130 130" fill="none" xmlns="http://www.w3.org/2000/svg">
<g clip-path="url(#clip0_61_1092)">
<path fill-rule="evenodd" clip-rule="evenodd" d="M23.3593 74.9022C23.3593 80.7357 24.6047 78.7088 21.7711 81.1844C20.9594 81.8936 20.8619 82.3692 20.1426 83.1171C18.504 84.8196 14.7747 82.0886 13.2688 84.6146C12.8621 85.2952 12.61 85.67 12.2689 86.4078C9.22524 92.9791 9.51767 93.49 12.2235 95.6865C13.0688 96.3739 12.9058 96.4311 13.9663 96.9907C13.4016 102.656 13.9663 100.261 13.9663 103.085L10.6756 105.895C9.69917 106.989 10.0605 107.908 10.5697 109.528C11.0807 111.15 13.2302 116.797 14.7276 116.797C15.941 116.797 18.8183 116.641 19.5527 116.289C20.5981 117.849 21.919 119.454 23.6148 120.351C23.6148 124.926 21.835 125.993 27.2046 128.188C29.5575 129.15 31.0801 129.916 32.3104 130H32.7406C33.6095 129.936 34.3523 129.46 35.1876 128.37C37.401 125.486 36.0935 126.192 42.658 126.192C43.6781 126.192 45.2831 130 46.9738 130C48.8158 130 53.3518 128.015 54.9602 127.069C57.6105 125.508 56.3686 124.679 56.3686 120.351C58.066 119.454 59.387 117.849 60.4306 116.289C60.8458 116.488 64.0339 116.856 64.7179 116.789C66.2591 116.639 66.7162 115.631 67.2893 114.516C68.2237 112.7 69.8237 109.375 69.8237 106.895C69.8237 106.177 67.8741 104.493 67.3195 104.066C65.054 102.318 66.2675 102.848 66.2675 100.039C66.2675 98.7671 66.0137 98.4764 66.0137 96.9924C66.8674 96.421 67.338 96.0244 68.1935 95.3639C70.9413 93.2412 69.7749 91.3741 68.1548 87.4884C66.491 83.4969 66.1801 83.5356 63.7297 83.5356C61.1651 83.5356 57.6357 83.6264 57.6357 85.8213C57.6357 88.7271 61.56 87.8498 63.7297 87.3439C64.4188 88.6464 65.3952 90.8497 65.7616 92.4228L62.4037 94.9051C61.5449 95.9386 62.2071 98.2697 62.2071 100.041C62.2071 104.175 60.4811 104.377 65.7616 107.911C65.0893 109.311 65.2591 109.848 63.7297 112.735C59.1954 112.735 59.7802 110.834 57.024 114.409C56.4728 115.123 55.298 116.296 54.6274 116.836C51.7485 119.151 52.204 117.859 52.6107 123.903C51.251 124.583 49.0309 125.684 47.4797 125.684C47.2848 124.953 46.6293 124.355 46.1318 123.731C43.6916 120.677 44.9336 122.943 38.048 122.167C35.1943 121.844 34.917 122.234 33.9473 123.577C33.4498 124.266 32.7003 124.931 32.5003 125.684C30.7659 125.684 28.6163 124.538 27.4214 123.906C27.8601 117.397 28.1659 119.257 25.4635 116.977C24.7862 116.405 23.598 115.212 23.0669 114.55C20.0518 110.79 21.0064 112.735 16.2503 112.735C14.7411 109.883 14.8957 109.323 14.2184 107.911C19.4704 104.396 17.7729 104.026 17.7729 100.295C17.7729 95.1017 19.0603 96.0462 15.9931 93.695C15.21 93.095 15.173 92.9286 14.2184 92.4228C14.6201 90.6968 15.5041 88.754 16.2503 87.3439C16.9629 87.6868 20.6199 87.9775 21.3392 87.6111C21.9375 87.3069 23.5644 85.065 24.1946 84.3692C24.6484 83.8667 25.1374 83.6028 25.7122 83.0936C26.2685 82.6012 26.9912 82.2298 27.3407 81.6751C28.0079 80.6197 27.4231 77.8786 27.4231 76.1728C28.6684 75.882 29.4684 75.0434 32.2482 74.3947L34.5826 77.3929C35.7304 78.5929 37.8665 77.9492 41.1353 77.9492C43.1336 77.9492 44.1773 78.6719 45.4025 77.3929C46.426 76.324 46.7033 75.2568 47.9906 74.3947C49.9469 74.8501 51.4426 75.9123 52.5602 76.1728C52.5602 78.1105 52.3065 79.0046 52.3065 80.9979C52.3065 82.5373 55.1753 83.0684 55.9484 81.339C56.4475 80.2248 56.624 76.5005 56.624 74.9039C56.624 73.1863 50.8645 71.1779 49.6158 70.741C47.478 69.9914 46.7453 69.7494 45.6008 70.9897C44.6848 71.9846 43.6143 73.0939 42.9134 74.1426C41.1269 73.7258 38.8598 73.7258 37.0733 74.1426C36.3842 73.114 35.3775 72.0687 34.4784 71.1527C33.0918 69.7393 32.5776 70.0183 30.5642 70.6805C29.0499 71.1796 27.9155 71.6099 26.576 72.2788C25.6433 72.7443 23.3627 73.7241 23.3627 74.9056L23.3593 74.9022Z" fill="white"/>
<path fill-rule="evenodd" clip-rule="evenodd" d="M83.5356 64.7463C83.5356 67.2975 84.028 69.0941 83.3709 69.9008C82.8852 70.4974 81.9155 71.3175 81.3138 71.9192C78.5895 74.6519 80.0718 73.3797 75.4098 73.3797C72.3662 73.3797 70.0771 82.645 70.0771 82.7744C70.0771 84.0668 73.1157 86.4062 74.1392 87.0902C73.7796 91.4111 73.7796 88.6095 74.1392 92.9304L71.1477 95.5253C69.7561 96.8984 69.9948 97.4362 70.6721 99.4429C71.0973 100.7 73.0989 106.641 74.8989 106.641L79.5878 106.501C80.3945 106.809 80.8819 107.883 81.4332 108.485C82.0869 109.199 82.7693 109.375 83.3692 110.115C84.0196 110.917 83.5306 112.747 83.5306 115.273C83.5306 116.96 88.9254 118.804 90.606 119.37C92.3438 119.955 93.1371 120.51 94.5253 119.16C95.3673 118.34 96.4563 117.042 96.9891 116.036C98.4378 116.036 98.7453 116.289 100.29 116.289C105.478 116.289 101.209 115.258 106.063 119.415C106.834 120.076 107.236 120.059 108.343 119.799C109.711 119.476 111.779 118.668 112.989 118.071C117.669 115.762 116.871 116.542 116.484 110.201C117.432 109.957 120.111 107.27 120.348 106.389C125.18 106.389 125.829 108.157 128.217 102.831C130.084 98.6647 130.881 96.7858 128.513 94.9236C127.666 94.2581 127.14 93.6884 126.188 93.1859V86.8381C126.993 86.623 129.997 84.2348 129.997 82.7761C129.997 81.5492 128.758 78.4468 128.294 77.3695C127.503 75.5359 126.748 73.3813 124.666 73.3813C121.518 73.3813 117.81 73.4654 117.81 75.9208C117.81 78.872 121.464 77.4434 123.904 77.4434C125.135 79.7677 125.208 80.7526 125.936 82.2668C120.506 85.9037 122.382 85.4264 122.382 89.8834C122.382 91.4263 121.725 94.1069 122.481 95.1169L125.936 97.7555C125.605 98.4446 125.363 99.3218 125.032 100.152C124.632 101.154 124.345 101.749 123.904 102.579C115.457 102.011 120.457 102.219 114.548 106.933C110.879 109.859 112.733 108.982 112.733 113.752C111.4 114.458 109.52 115.407 107.91 115.784C107.538 115.229 107.132 114.839 106.675 114.226C103.55 110.022 103.666 113.054 97.6411 112.078C96.426 111.881 95.9 111.779 95.1303 112.399C94.379 113.004 92.9707 114.963 92.4211 115.784C90.6951 115.382 88.7523 114.498 87.3423 113.752C87.6935 113.021 88.0179 109.468 87.6078 108.663C87.2297 107.918 85.1036 106.688 83.8196 105.085C80.7475 101.25 81.5121 102.579 76.1694 102.579C75.9341 101.572 74.9728 100.246 74.3913 97.7555L77.3896 95.4211C78.6097 94.2564 77.9459 92.5287 77.9459 89.3759C77.9459 85.9659 79.4702 85.6684 74.3913 82.2668C74.8653 80.2349 75.9207 78.5106 76.1694 77.4434C81.5743 77.4434 80.3727 78.9694 82.8466 75.9947C83.939 74.6821 87.3708 71.7444 87.5103 71.5175C88.0599 70.6285 87.7187 67.0588 87.3423 66.2723L91.0816 64.679C91.6682 64.4723 91.9236 64.4791 92.4211 64.2404L94.9034 67.5983C96.1504 68.6352 98.9386 67.4353 102.651 67.9832C103.841 68.1596 104.491 68.2033 105.202 67.6269L107.908 64.2404C108.673 64.6068 109.448 64.7463 110.345 65.1042C111.184 65.4387 112.012 65.8891 112.733 66.2706C112.733 68.6773 111.251 72.3646 114.256 72.3646C115.98 72.3646 116.178 71.2671 116.407 69.6907C117.205 64.2018 117.31 63.8202 112.807 61.8791C111.022 61.1094 108.903 60.1766 106.893 60.1766C105.794 60.1766 103.37 63.9849 102.831 63.9849C101.539 63.9849 101.169 63.7681 100.278 63.7429C97.179 63.6539 97.9437 64.9059 96.3941 63.0589C95.984 62.5682 95.8261 62.422 95.4681 61.9531C93.4581 59.3212 91.732 59.8321 87.5086 61.8657C86.4532 62.3749 83.5339 63.5396 83.5339 64.7463H83.5356Z" fill="white"/>
<path fill-rule="evenodd" clip-rule="evenodd" d="M73.3801 5.07859L73.6339 9.64822C71.9364 10.5457 70.6155 12.1507 69.5718 13.7103C68.8995 13.3876 66.113 13.2027 65.0022 13.2027C63.545 13.2027 62.4493 15.9674 61.8678 17.1774C59.3351 22.4395 59.53 23.542 62.7199 25.8965C64.8475 27.4662 63.7333 27.1906 63.7333 29.7065C63.7333 31.1552 63.9871 31.4628 63.9871 33.0073C62.9131 33.5753 62.7854 33.8862 61.809 34.6375C59.0544 36.7534 60.2342 38.6458 61.8476 42.5112C63.7417 47.0557 64.0291 46.4641 67.2895 46.4641C69.0373 46.4641 68.9331 45.7145 70.039 46.7498C70.8272 47.4876 70.9028 48.0674 71.8188 48.7917C74.6069 50.9984 73.3835 49.864 73.3835 55.0975C73.3835 56.8016 78.8808 58.7579 80.3934 59.2604C83.1866 60.1881 84.1865 60.2015 87.094 55.8605C88.8805 56.2773 91.1477 56.2773 92.9342 55.8605C93.5846 56.8319 95.7661 59.8452 97.2417 59.8772C98.1811 59.8973 106.645 57.1579 106.645 55.0991C106.645 53.4051 106.51 50.1984 106.036 48.8506C105.28 46.6943 102.258 47.7783 102.327 48.7514L102.635 53.8252C101.692 54.0353 101.314 54.3714 100.443 54.7395C99.5374 55.1227 98.9374 55.3899 98.0097 55.6067C96.7896 54.7899 96.5039 53.8303 95.5425 52.7429C94.2787 51.3127 92.6233 52.0522 88.8688 52.0522C86.8705 52.0522 85.8268 51.3295 84.6017 52.6085C84.168 53.0622 83.8857 53.5311 83.5025 54.0471C83.0454 54.6622 82.6404 55.0504 82.2689 55.605C79.4909 54.958 78.6909 54.1177 77.4455 53.8269C77.9564 46.2422 77.9867 49.4102 74.3397 45.7616C71.4574 42.8776 72.6288 41.1751 66.2744 42.6558C65.5853 41.3533 64.6089 39.15 64.2425 37.5769L67.6004 35.0946C68.4592 34.061 67.797 31.73 67.797 29.9586C67.797 25.8243 69.5214 25.6226 64.2425 22.0882C64.9148 20.6883 64.745 20.1521 66.2744 17.2631C70.8087 17.2631 70.2239 19.1639 72.9801 15.5892C73.5313 14.875 74.7061 13.7019 75.3767 13.1624C78.2556 10.8465 77.8001 12.1389 77.3934 6.09537C78.6421 5.45841 80.79 4.3139 82.5244 4.3139C82.6118 4.64162 84.6319 7.86843 85.8251 7.86843C89.5696 7.86843 87.6251 7.34239 91.9561 7.83146C95.0115 8.17599 95.0064 7.71213 96.1577 6.26679C96.8097 5.44665 97.287 4.95422 97.7593 4.06013C99.1441 4.72566 100.322 4.8954 102.583 6.09201C102.003 14.6901 102.319 9.702 106.939 15.4464C109.971 19.2177 108.835 17.2631 113.754 17.2631C115.263 20.1152 115.108 20.6748 115.786 22.0882C115.293 22.4176 114.759 22.9033 114.229 23.3252C110.841 26.0209 112.231 25.1671 112.231 29.9603C112.231 34.8845 110.915 33.935 114.011 36.3047C114.794 36.9047 114.831 37.071 115.786 37.5769C115.384 39.3029 114.5 41.2457 113.754 42.6558C105.352 40.6978 107.142 45.7313 109.747 46.1532L115.023 46.4641C116.678 46.4641 117.579 43.9818 118.107 42.6927C119.604 39.0256 121.046 36.8559 118.364 34.745C117.517 34.0795 116.991 33.5098 116.039 33.0073C116.039 29.7569 116.537 32.4056 115.991 26.9184C116.801 26.4041 117.45 25.873 118.135 25.1991C118.991 24.3604 119.848 24.0882 119.848 22.8496C119.848 20.5068 116.865 13.2011 115.278 13.2011C114.065 13.2011 111.188 13.3574 110.455 13.7086C109.409 12.149 108.088 10.544 106.393 9.64654C106.393 4.26852 108.169 4.1408 102.768 1.84506C100.423 0.848445 98.9021 0.0753558 97.6719 -0.00195312H97.2803C96.403 0.0568689 95.6568 0.534167 94.8182 1.62826C92.6048 4.51222 93.9123 3.80635 87.3478 3.80635C86.0722 3.80635 85.1092 -0.00195312 82.7782 -0.00195312C80.9648 -0.00195312 76.6758 1.97615 75.0456 2.93074C74.1229 3.47023 73.3835 3.7324 73.3835 5.07691L73.3801 5.07859Z" fill="white"/>
<path fill-rule="evenodd" clip-rule="evenodd" d="M13.2032 14.7264L13.5107 19.8003C12.5629 20.0439 9.88394 22.7313 9.64697 23.6136C4.56811 23.6136 4.16644 21.8523 1.77826 27.1715C-0.964522 33.2839 -0.347731 33.6184 2.45724 35.8822C3.09084 36.3931 5.04541 38.0872 5.83866 38.0872C7.98651 38.0872 8.36129 35.8385 7.39493 34.7545L4.06224 32.247C4.42862 31.4823 4.56811 30.7075 4.92608 29.8101C5.26053 28.9714 5.71094 28.1429 6.09244 27.4219C14.5393 27.99 9.53941 27.7799 15.4485 23.0674C18.9526 20.2725 17.2636 20.9414 17.2636 16.2491C18.5963 15.5432 20.4769 14.5937 22.0887 14.2172C25.5978 19.4574 25.855 17.7717 29.7053 17.7717C35.1606 17.7717 33.7892 19.0053 36.2698 15.9567C36.9605 15.1079 37.0126 15.281 37.5757 14.2155C39.6075 14.6895 41.3319 15.7449 42.4007 15.9936C42.4007 17.6205 41.9251 20.4254 42.389 21.3363L44.7654 23.5329C46.5586 25.0321 47.7687 26.9849 48.325 27.3379C49.3804 28.0051 52.1215 27.4202 53.8273 27.4202C54.0761 28.4874 55.1315 30.2134 55.6054 32.2453C55.113 32.5747 54.5298 33.0403 54.0223 33.4554C50.9081 36.0116 52.0492 34.8385 52.0492 40.6232C52.0492 44.0332 50.5249 44.3307 55.6038 47.7323C55.1298 49.7642 54.0744 51.4885 53.8257 52.5574C45.0343 52.5574 51.1047 50.9003 44.2394 56.9354C43.3503 57.7169 42.3436 58.0362 42.1537 59.4379C42.0529 60.1824 42.4461 63.2966 42.6545 63.7302C41.4764 64.3537 38.979 65.4344 37.5757 65.7621C37.0782 64.8226 37.0563 64.947 36.4143 64.1302C33.7842 60.7891 35.0816 62.2076 29.959 62.2076C25.5793 62.2076 25.7087 60.3538 22.0887 65.7621C21.324 65.3957 20.5492 65.2562 19.6518 64.8983C18.8131 64.5638 17.9846 64.1134 17.2636 63.7319C17.2636 62.3151 17.7543 60.3118 17.6804 59.4328C17.5678 58.0749 14.9813 57.0027 12.0536 53.1977C10.8016 51.5692 9.42513 52.5591 6.09076 52.5591C4.86054 50.2348 4.78659 49.2499 4.05888 47.734C4.92776 47.1508 5.36641 46.7424 6.23361 46.1004C7.52433 45.1475 7.86718 45.2702 7.86718 43.4181C7.86718 42.2299 6.56638 41.8955 5.58153 41.8955C5.28069 41.8955 -0.00488281 45.1761 -0.00488281 47.2281C-0.00488281 48.7054 1.27576 51.4734 1.73625 52.596C4.00678 58.1388 4.59164 56.3674 9.64361 56.3674C10.3965 57.7892 12.0301 59.4228 13.4519 60.1757C13.4519 65.394 11.6805 65.747 17.1863 68.1217C18.9711 68.8914 21.0904 69.8242 23.1004 69.8242C24.1995 69.8242 26.623 66.0159 27.1625 66.0159C28.4549 66.0159 28.8246 66.2327 29.7154 66.2579C33.1758 66.3587 32.0027 64.7453 34.5236 68.0477C36.5337 70.6796 38.2597 70.1687 42.4831 68.1351C46.8863 66.0142 46.4578 66.2562 46.4578 63.2227C46.4578 59.8732 45.0629 61.7084 48.6796 58.0816C51.4039 55.3489 49.9216 56.6212 54.5836 56.6212C57.6424 56.6212 59.9163 47.2281 59.9163 47.2264C59.9163 46.0786 56.7147 43.487 55.8542 42.9106C56.2138 38.5897 56.2138 41.3913 55.8542 37.0704C56.8642 36.3931 57.9482 35.3662 58.8474 34.4772C60.2507 33.0907 59.8877 32.5411 59.3062 30.5731C58.9348 29.3143 56.876 23.3598 55.0928 23.3598C49.6779 23.3598 51.056 24.58 48.6409 21.6859C48.0174 20.938 47.2544 20.6641 46.6242 19.8826C45.2797 18.2171 48.004 14.9298 45.2141 13.1786C43.4226 12.0542 41.4613 11.3299 39.384 10.6291C37.7723 10.0845 36.7942 9.5501 35.4631 10.8375C34.6346 11.6391 33.5237 12.9803 33.0027 13.9651C31.554 13.9651 31.2464 13.7113 29.7019 13.7113C25.9995 13.7113 27.7255 14.7214 25.4466 12.1265C23.2836 9.6627 22.6248 9.15683 17.0031 11.9299C16.2636 12.2946 15.593 12.6055 14.7981 13.0256C14.0704 13.4088 13.1645 14.2458 13.1981 14.7264H13.2032Z" fill="white"/>
<path fill-rule="evenodd" clip-rule="evenodd" d="M23.3596 55.6042C23.3596 53.8832 23.1058 52.7656 23.1058 50.7791C24.2823 51.3438 25.7377 51.7387 26.9141 52.3018C26.1999 53.3689 24.4503 54.8714 23.3596 55.6025V55.6042ZM29.1998 49.0027L24.1209 46.9708C24.4386 45.6044 27.8301 38.5189 27.9292 37.3223L33.0081 39.3542L31.1241 44.0717C30.4771 45.6128 29.5729 47.3994 29.1998 49.0027ZM34.7862 35.5459C33.0972 35.4047 31.3258 34.1459 29.7073 33.7678C29.7779 32.9291 30.3947 31.5964 30.7224 30.9746C32.4014 31.1141 34.2585 32.6233 35.8013 32.7527C35.5139 33.351 34.845 34.8333 34.7862 35.5459ZM33.7711 25.1361C35.3055 25.1361 36.292 25.2302 37.4113 26.3394C38.5357 27.4537 37.6466 27.82 37.3256 29.1982L32.2468 27.1663C32.6602 26.3831 32.7745 25.1344 33.7694 25.1344L33.7711 25.1361ZM23.1075 59.9217C25.5276 59.9217 28.7746 56.1756 30.4132 54.5319C31.7106 53.2295 32.0283 52.206 32.7173 50.4884L36.4584 41.534C37.7559 38.4433 41.8969 29.378 41.8969 27.168C41.8969 21.837 32.0552 18.3581 29.3796 23.7916C27.336 27.9394 23.3125 38.9122 20.9899 44.0936C20.5765 45.0162 20.3479 45.6431 19.9513 46.6095C19.3194 48.1456 19.432 47.8212 19.2706 49.7506C19.0068 52.9152 18.5631 59.9234 23.1075 59.9234V59.9217Z" fill="white"/>
<path fill-rule="evenodd" clip-rule="evenodd" d="M86.5829 89.884C86.5829 77.9364 101.371 72.3298 109.122 80.0405C112.734 83.632 113.497 85.5496 113.497 90.9008C113.497 96.2351 109.839 100.24 105.63 102.331C100.699 104.779 94.4197 103.452 90.5727 99.6047C88.4232 97.4552 86.5813 94.0923 86.5813 89.8857L86.5829 89.884ZM98.7709 107.403C103.588 107.403 106.191 107.055 110.305 104.21C110.873 103.816 112.155 102.704 112.618 102.206C123.78 90.1983 114.443 72.6172 100.803 72.6172C95.2281 72.6172 90.8585 74.3819 87.5291 77.8792C79.6487 86.1563 81.3478 99.5997 92.0198 105.521C93.4718 106.326 96.6348 107.403 98.7709 107.403Z" fill="white"/>
<path fill-rule="evenodd" clip-rule="evenodd" d="M82.0113 26.4055C82.0113 23.1753 82.5978 20.5821 84.9927 18.4679C92.0363 12.2496 101.562 17.7923 101.562 25.1349C101.562 35.3985 90.6817 38.1161 85.1154 32.9499C83.6449 31.5852 82.0113 29.1483 82.0113 26.4055ZM77.9492 25.3904C77.9492 34.2305 84.5507 37.1128 84.5507 37.5783C84.5507 38.1648 82.939 41.9194 82.5911 42.7278C81.6819 44.8319 78.4702 50.02 82.7743 50.02C84.1944 50.02 85.27 46.5932 85.8935 45.0134L88.3607 39.101C90.4447 39.2741 92.569 39.7799 95.1723 39.0573C101.036 37.4304 105.626 32.2221 105.626 25.6442C105.626 21.3518 103.811 18.6427 101.86 16.2074C100.211 14.1487 95.8899 11.9336 92.9303 11.9336C88.3506 11.9336 85.1507 12.6462 81.8147 16.0528C79.9156 17.9906 77.9492 21.6426 77.9492 25.3904Z" fill="white"/>
<path fill-rule="evenodd" clip-rule="evenodd" d="M41.8948 109.941V101.817C43.4208 102.623 44.688 103.24 44.688 105.625C44.688 107.853 43.3755 109.158 41.8948 109.941ZM36.0547 93.437V93.1833C36.0547 91.669 36.616 90.4606 37.8328 90.1363V95.7227C36.9437 95.2521 36.0547 94.8168 36.0547 93.437ZM37.8328 85.8204C32.3354 87.1011 30.1372 94.0488 33.8228 97.7025C34.5454 98.4201 36.6462 99.9411 37.8328 100.04V110.196C35.1488 110.196 34.9589 108.674 33.2631 108.674C32.1657 108.674 31.5119 109.329 31.3321 110.297C30.8632 112.823 36.1437 114.26 37.8328 114.26C37.8328 115.924 38.0143 118.662 40.4176 117.878C41.9251 117.388 41.8948 115.927 41.8948 114.006C47.0224 113.579 51.4324 105.158 46.6645 100.351C45.5788 99.2571 43.799 97.9159 41.8948 97.7563V89.8859C42.7856 90.0943 45.8998 92.7144 46.8258 89.7195C47.5451 87.3952 43.3419 85.8557 41.8948 85.8221C41.8948 84.5532 42.0629 82.2676 39.863 82.2676C37.821 82.2676 37.8311 83.7701 37.8311 85.8221L37.8328 85.8204Z" fill="white"/>
<path fill-rule="evenodd" clip-rule="evenodd" d="M103.848 95.7207C105.207 95.7207 105.879 94.7981 105.879 93.9426C105.879 92.0435 102.579 90.4318 102.579 89.6268C102.579 88.4201 105.624 82.6286 105.515 81.5648C105.353 80.0068 102.853 78.5548 101.634 81.064L98.6174 88.4655C97.7099 90.7511 98.2107 90.9847 99.9753 92.7359C100.856 93.6115 102.411 95.719 103.848 95.719V95.7207Z" fill="white"/>
</g>
<defs>
<clipPath id="clip0_61_1092">
<rect width="130" height="130" fill="white"/>
</clipPath>
</defs>
</svg>
