<svg width="113" height="113" viewBox="0 0 113 113" fill="none" xmlns="http://www.w3.org/2000/svg">
<path fill-rule="evenodd" clip-rule="evenodd" d="M71.7274 95.1233C71.3285 90.3298 69.9375 93.021 71.695 82.511C72.0218 80.5572 71.9705 76.8054 74.8174 76.8054C77.9318 76.8054 77.4978 80.6815 85.4192 80.5509C87.7115 80.5131 88.3445 80.153 84.7205 84.7223C80.7823 89.6869 77.144 92.2583 71.7274 95.1242V95.1233ZM112.999 22.9962V24.299C112.826 30.6312 110.205 36.9329 105.779 41.5553C105.216 42.1433 104.919 42.2648 104.343 42.7672C101.674 45.0965 97.3454 47.5788 93.5774 47.893C93.6584 48.8609 94.2031 50.0295 94.4894 50.9542C98.0846 62.568 95.4492 76.1247 88.313 85.6659L84.9735 89.6095C84.2568 90.554 83.2601 91.2463 82.3814 92.0936C79.4273 94.9414 75.725 96.9501 72.0254 98.7319C68.0206 100.661 61.8963 102.187 56.0584 102.187C53.8408 102.187 51.8888 101.745 49.8783 101.745V110.574C49.8783 112.055 49.104 112.841 48.281 113.001H47.6427C46.9413 112.862 46.3471 112.258 46.3471 111.235V91.8136C46.3471 90.7637 47.4707 90.4432 48.2846 90.2199C49.1256 89.9885 49.8216 89.6986 50.6148 89.2394C54.8177 86.8076 56.9407 80.7292 56.9407 75.4819C56.9407 72.8555 57.9149 68.1989 54.0713 68.1989H39.9464C37.8882 68.1989 36.9482 70.9486 38.6922 72.1019C39.6114 72.7097 44.4374 72.3918 45.6853 72.3918C49.1724 72.3918 53.8516 71.6175 53.8516 74.1575C53.8516 76.9819 49.7252 75.0056 45.679 77.903C40.5163 81.5999 41.8795 86.5726 40.6766 87.698C39.3864 88.9054 37.5955 87.6827 37.7576 85.9C38.3185 79.7379 40.0697 79.3643 42.3747 75.9222C39.9446 75.9222 38.4104 75.9888 36.8888 75.0074C35.6264 74.1926 34.8125 72.9339 34.429 71.288C32.0124 71.8507 30.7483 71.2736 28.691 70.1842C25.8098 71.7094 25.645 71.5302 22.7324 71.288C22.7324 77.1386 22.4082 79.8937 24.2792 84.0867C25.3353 86.4528 27.0217 88.6011 29.0394 90.1407C29.6985 90.6431 30.4566 91.2184 30.4566 92.2547V110.794C30.4566 112.11 30.0064 113.001 28.691 113.001C26.6813 113.001 26.9199 111.237 26.9253 109.249V92.6959C25.5811 91.9846 24.7285 90.8628 23.7651 89.6761C20.5958 85.7721 19.2002 81.8051 19.2002 76.1437V62.6805C19.2002 58.52 23.4761 55.4425 27.1459 57.3837C27.1459 55.9125 27.1495 54.4404 27.1459 52.9692C27.1333 47.9623 28.0598 50.2636 31.1678 48.3837C32.0952 47.8228 32.7786 47.2942 33.4953 46.5172C37.5811 42.0874 39.0388 29.8848 36.7726 27.8941C36.1595 27.3557 35.278 27.1468 34.2093 27.1468H21.1873C17.6561 27.1468 17.5283 31.4001 21.4034 31.5658C23.4535 31.6531 32.495 31.2102 33.6646 31.6639C34.1111 31.8368 34.6496 32.5742 34.6496 33.1063C34.6496 35.4428 31.3767 34.8737 29.6102 35.3509C27.7483 35.8533 26.4635 36.76 25.2137 38.0169C20.6246 42.6322 23.2348 47.2321 20.0826 47.2321C16.6711 47.2321 19.708 39.7708 20.0781 39.0622C20.8677 37.5505 22.2561 36.2414 23.1726 34.8728C20.8002 34.8728 19.0841 35.0115 17.6129 34.0319C16.5811 33.3449 15.2629 31.8404 15.2278 30.2378C12.7743 30.8095 11.4985 30.48 9.48982 29.1339C5.53723 31.2255 6.9607 30.5412 3.30973 30.2378C3.30973 35.368 3.26291 39.3945 4.92498 42.968C6.05494 45.3972 7.49642 47.3924 9.51863 48.968C10.2848 49.565 11.0348 49.8972 11.0348 50.983V85.6335C11.0348 86.9174 9.90939 87.4774 9.00813 87.2397C7.72961 86.9021 7.7026 86.0972 7.71791 84.5359L7.72421 60.6943C7.72421 58.1625 7.86827 55.2066 7.74132 52.7315C7.66659 51.2729 6.90488 51.3936 6.00542 50.495C2.69659 47.1898 0 42.3404 0 36.8581V20.9676C0 18.3764 2.67588 15.8914 5.29683 15.8914C7.21641 15.8914 8.1906 16.5667 9.48982 17.4364C10.1084 16.5126 11.6795 15.8914 13.2416 15.8914C14.9388 15.8914 16.0075 16.6279 17.214 17.4364C17.729 16.7332 19.2687 15.8914 20.5247 15.8914C22.5037 15.8914 23.6966 16.6045 24.9391 17.4364C27.5646 15.678 29.9082 15.1027 32.5067 17.5931C34.338 19.3479 34.2084 21.4106 34.2084 23.8362C35.4626 23.8362 36.8149 23.9884 37.7486 24.4953C38.6868 25.0058 38.6075 25.3245 39.7852 24.7996C47.1628 21.5106 56.6418 20.8632 64.6658 22.7324C64.6992 21.2414 65.1574 18.7852 65.5194 17.6273C66.8393 13.3956 68.9282 10.0021 72.002 6.89498C75.1281 3.7347 81.8465 0 88.06 0H90.4873C92.5996 0 99.3523 1.30643 100.037 3.27642C100.389 4.28663 99.735 5.51742 98.4321 5.51742C97.8055 5.51742 96.7566 4.9673 96.1326 4.7269C82.9288 -0.359245 68.1953 10.1021 68.1953 22.7324V25.3812C68.1953 32.2141 72.4864 38.3203 77.7274 41.6715C79.1329 42.57 80.4186 43.2543 82.177 43.8432C100.835 50.0908 117.019 28.8764 106.29 12.8878C105.753 12.0874 105.522 11.6714 104.889 10.979C102.726 8.61377 104.361 7.28303 105.495 7.28303C106.571 7.28303 108.036 9.42499 108.586 10.1507C111.488 13.988 112.879 18.4709 112.998 22.9953L112.999 22.9962ZM30.4557 66.2109C30.4557 62.0143 29.9488 60.4729 33.1045 60.4729C35.1258 60.4729 34.6496 64.746 34.6496 65.9903C34.6496 68.8174 30.4566 68.7445 30.4566 66.2109H30.4557ZM22.7315 66.2109C22.7315 64.5839 22.1525 60.4729 24.7177 60.4729C27.5142 60.4729 26.9244 63.4729 26.9244 65.9903C26.9244 68.8174 22.7315 68.7445 22.7315 66.2109ZM45.905 62.0179C45.905 60.1784 50.098 59.3735 50.098 62.9011V64.6667H45.905V62.0179ZM38.1808 64.8873C38.1808 62.8129 37.6964 60.2523 40.3876 60.2523C42.6925 60.2523 42.3738 63.5764 42.3738 64.6667L38.1808 64.8873ZM55.8369 33.5475C55.8369 29.6895 58.8486 27.4764 60.2514 25.3812C63.399 26.1141 64.6514 25.6513 64.899 27.1333C65.857 32.8713 67.3012 36.1946 71.2331 40.6631C72.8483 42.4989 76.6857 45.2189 78.9465 46.1922C82.5272 47.7336 85.0104 48.3342 90.0462 48.3342L92.0324 55.3966C88.6749 55.1175 87.5359 54.9572 83.8327 55.5839C78.86 56.4257 80.1521 56.0467 77.0935 53.7832C72.2838 50.2231 67.2049 55.176 63.7826 55.176C62.2853 55.176 62.017 54.1181 62.017 52.9692C62.017 49.1499 69.625 44.0502 61.0932 38.2231C59.5716 37.1832 55.8378 35.7003 55.8378 33.5475H55.8369ZM52.3057 33.3269C52.3057 38.2132 58.0275 39.9734 60.1892 41.775C64.7676 45.5899 56.667 48.8447 58.9476 55.3768C60.3369 59.3573 65.2925 58.8243 68.4843 57.4512C69.3891 57.0623 71.8174 55.8387 72.8312 55.8387C76.1986 55.8387 75.8384 59.3699 81.2181 59.3699C83.4942 59.3699 84.9816 58.7081 87.3982 58.7081C93.4954 58.7081 92.2664 58.2814 92.6059 60.7835C92.9651 63.4332 91.7875 70.5056 90.906 73.2508C90.6017 74.1989 89.4438 76.7478 89.3844 77.4672C88.1491 77.4672 86.6338 77.089 85.4129 77.0251C80.0314 76.7415 82.6533 77.252 78.6431 74.7454C75.3234 72.6701 71.4834 73.1058 69.6061 76.4489C68.6544 78.1434 68.0395 83.6932 67.7145 86.2547C67.086 91.2112 67.6388 92.1575 68.6382 96.4486C64.7703 97.3499 62.7895 98.6554 57.1613 98.6554C53.2213 98.6554 53.3636 98.5042 49.8783 98.2142V93.3586C53.2645 91.7334 55.411 90.7592 57.6061 86.5203C60.3288 81.2631 60.472 77.1404 60.472 71.0674C60.472 67.2823 57.3306 64.7496 53.6301 64.6667C53.6301 60.5953 52.4407 56.9425 47.6715 56.9425C46.04 56.9425 45.1253 57.8276 44.1403 58.4875C42.3945 56.9704 41.9983 56.9425 39.7258 56.9425C38.2591 56.9425 37.3984 57.7466 36.4152 58.267C34.4326 57.218 33.4944 56.4554 30.4566 57.1631V52.3075C32.7183 52.1193 35.8668 49.2606 37.3002 47.233C40.8017 42.2828 42.1856 30.8554 40.8296 28.0301C45.0568 26.0016 51.1667 25.1606 55.8378 25.1606C55.5713 26.1582 52.3066 29.215 52.3066 33.3269H52.3057ZM11.0339 24.0577C11.0339 22.5559 10.7989 19.4226 13.2407 19.4226C15.9454 19.4226 15.4475 22.4983 15.4475 24.4989C15.4475 28.0265 11.033 28.3218 11.033 24.0577H11.0339ZM3.30973 24.0577C3.30973 22.9601 3.2188 21.6231 3.70409 20.7002C4.62246 18.9562 7.72331 19.1939 7.72331 22.0715C7.72331 24.0721 8.22121 27.1477 5.51652 27.1477C3.88146 27.1477 3.30973 25.7315 3.30973 24.0577ZM26.4833 22.0715C26.4833 20.6471 27.3098 19.4226 28.6901 19.4226C30.0712 19.4226 30.8968 20.6462 30.8968 22.0715V23.8371H26.4824V22.0715H26.4833ZM18.7591 24.0577C18.7591 20.9757 18.6474 19.4226 21.1864 19.4226C23.4463 19.4226 23.1726 22.4352 23.1726 23.8371C21.9832 23.8371 19.69 23.6966 18.7582 24.0577H18.7591Z" fill="white"/>
<path fill-rule="evenodd" clip-rule="evenodd" d="M7.72363 94.2398V111.675C7.72363 112.378 8.42502 112.885 9.18132 113H9.80797C10.4697 112.893 11.0343 112.426 11.0343 111.455V94.2398C11.0343 91.9591 7.72363 91.9591 7.72363 94.2398Z" fill="white"/>
<path fill-rule="evenodd" clip-rule="evenodd" d="M100.419 71.5079C100.419 73.8038 103.95 73.8038 103.95 71.5079C103.95 69.2786 100.419 69.2786 100.419 71.5079Z" fill="white"/>
<path fill-rule="evenodd" clip-rule="evenodd" d="M51.6436 14.5651C51.6436 15.7419 53.2867 16.8025 54.4554 15.8481C57.3167 13.5135 51.6436 11.0771 51.6436 14.5651Z" fill="white"/>
<path fill-rule="evenodd" clip-rule="evenodd" d="M88.9423 97.5498C90.9834 97.5498 91.2679 95.0458 89.7445 94.2985C87.1577 93.0308 86.3186 97.5498 88.9423 97.5498Z" fill="white"/>
<path fill-rule="evenodd" clip-rule="evenodd" d="M81.8799 100.199C81.8799 102.067 83.352 101.965 84.0867 101.965C85.6713 101.965 85.9297 98.6543 83.6455 98.6543C82.701 98.6543 81.8799 99.335 81.8799 100.199Z" fill="white"/>
<path fill-rule="evenodd" clip-rule="evenodd" d="M55.8369 108.808C55.8369 109.798 55.9918 111.015 57.3819 111.015C58.4498 111.015 59.1475 110.317 59.1475 109.249C59.1475 106.964 55.8369 107.222 55.8369 108.808Z" fill="white"/>
<path fill-rule="evenodd" clip-rule="evenodd" d="M62.6787 108.586C62.6787 109.976 63.8951 110.131 64.8855 110.131C66.471 110.131 66.7285 106.82 64.4443 106.82C63.2333 106.82 62.6787 107.786 62.6787 108.586Z" fill="white"/>
<path fill-rule="evenodd" clip-rule="evenodd" d="M58.7061 14.7871C58.7061 16.9939 62.0167 16.8084 62.0167 15.2283C62.0167 14.2379 61.8618 13.0215 60.4717 13.0215C59.4038 13.0215 58.7061 13.7193 58.7061 14.7871Z" fill="white"/>
<path fill-rule="evenodd" clip-rule="evenodd" d="M101.302 64.4454C101.302 65.5132 102 66.211 103.067 66.211C105.348 66.211 105.348 62.9004 103.067 62.9004C102.123 62.9004 101.302 63.5811 101.302 64.4454Z" fill="white"/>
<path fill-rule="evenodd" clip-rule="evenodd" d="M102.405 59.1485C105.811 59.1485 104.685 55.8379 103.067 55.8379C100.437 55.8379 100.865 59.1485 102.405 59.1485Z" fill="white"/>
<path fill-rule="evenodd" clip-rule="evenodd" d="M93.577 92.254C96.1151 92.254 95.5146 88.9434 94.0182 88.9434C90.6616 88.9434 91.7763 92.254 93.577 92.254Z" fill="white"/>
<path fill-rule="evenodd" clip-rule="evenodd" d="M44.8018 15.2294C44.8018 17.6334 48.1124 17.5262 48.1124 15.2294C48.1124 13.1091 44.8018 12.8714 44.8018 15.2294Z" fill="white"/>
<path fill-rule="evenodd" clip-rule="evenodd" d="M75.9209 103.951C75.9209 105.019 76.6187 105.717 77.6865 105.717C79.4872 105.717 80.601 102.406 77.2453 102.406C76.6214 102.406 75.9209 103.326 75.9209 103.951Z" fill="white"/>
<path fill-rule="evenodd" clip-rule="evenodd" d="M95.7842 84.5297C95.7842 87.2911 99.0948 86.5024 99.0948 84.7503C99.0948 82.4561 95.7842 82.3121 95.7842 84.5297Z" fill="white"/>
<path fill-rule="evenodd" clip-rule="evenodd" d="M99.9785 50.3198C99.9785 52.8958 103.289 53.1065 103.289 50.5404C103.289 48.186 99.9785 48.7919 99.9785 50.3198Z" fill="white"/>
<path fill-rule="evenodd" clip-rule="evenodd" d="M37.96 16.9947C37.96 19.1691 41.2706 19.6526 41.2706 16.9947C41.2706 14.7573 37.96 15.0481 37.96 16.9947Z" fill="white"/>
<path fill-rule="evenodd" clip-rule="evenodd" d="M98.6533 78.1289C98.6533 80.8417 101.964 80.1601 101.964 78.3494C101.964 76.6748 100.103 76.0634 99.0882 77.0187C98.7623 77.3257 98.6533 77.4977 98.6533 78.1289Z" fill="white"/>
<path fill-rule="evenodd" clip-rule="evenodd" d="M69.5205 106.82C69.5205 108.888 72.8311 108.982 72.8311 106.82C72.8311 104.416 69.5205 104.522 69.5205 106.82Z" fill="white"/>
<path fill-rule="evenodd" clip-rule="evenodd" d="M90.6714 24.7202C91.0513 24.5195 92.3938 23.3247 92.844 22.96C93.5868 22.3586 94.2341 21.6356 95.2506 21.4348C98.7423 20.7442 100.864 24.7959 98.4712 27.189C97.0586 28.6017 95.1795 28.5306 93.63 27.2665C93.2005 26.9162 90.8911 25.048 90.6714 24.7202ZM95.7008 18.6914H96.3086C97.7924 18.7634 99.2482 19.3577 100.306 20.4156C101.773 21.8823 102.118 23.1509 102.118 25.2451C102.118 27.433 100.432 29.5597 98.3875 30.4276C93.7479 32.3949 91.1873 28.3055 88.5745 26.5561L86.9367 27.8895C84.6813 29.8982 82.2053 31.9691 78.7002 30.4006C77.8772 30.0324 77.0867 29.5156 76.5276 28.816C76.4024 28.6593 76.3331 28.6161 76.2017 28.4432C75.9703 28.1389 75.8064 27.849 75.6407 27.5186C75.0168 26.2734 75.0303 25.7178 75.0303 24.3718C75.0303 21.4852 77.8727 18.6923 80.8845 18.6923C83.0012 18.6923 84.0204 19.2262 85.4889 20.4669C86.5369 21.3529 87.5579 22.1776 88.5745 23.0618L89.3803 22.382C89.6387 22.1569 89.8755 21.9498 90.1348 21.7382L92.5423 19.7772C93.4787 19.0993 94.5835 18.7463 95.7008 18.6923V18.6914ZM81.3211 28.2163C77.4154 28.2163 76.6969 23.7803 78.9091 22.1344C79.6843 21.5582 80.6369 21.1485 81.8947 21.4384C82.3656 21.5465 82.8797 21.7959 83.2083 22.0471C83.4244 22.2127 83.4973 22.3037 83.7296 22.4864C83.952 22.6611 84.0861 22.7854 84.3031 22.9609C84.7614 23.3319 86.0912 24.5177 86.4757 24.7211C86.3145 24.9615 86.1768 25.0732 85.9517 25.246L84.1816 26.7091C83.4235 27.4321 82.4196 28.2163 81.3202 28.2163H81.3211Z" fill="white"/>
</svg>
