<svg width="110" height="106" viewBox="0 0 110 106" fill="none" xmlns="http://www.w3.org/2000/svg">
<path fill-rule="evenodd" clip-rule="evenodd" d="M83.6267 96.0504C83.9958 96.9257 84.8647 97.6161 86.2559 97.6161C87.3274 97.6161 88.0702 96.9167 88.4034 96.0324C88.5385 95.6759 88.606 95.2969 88.6105 94.9179C88.615 94.5434 88.5475 94.169 88.4169 93.826C88.0927 93.0004 87.3274 92.3642 86.0443 92.3642C84.7882 92.3642 83.9733 93.0274 83.6222 93.8802C83.4781 94.2231 83.4106 94.5976 83.4106 94.9676C83.4106 95.3375 83.4826 95.712 83.6312 96.0549L83.6267 96.0504ZM110 50.904V54.3827V54.4007C109.937 56.3408 109.77 58.3712 109.478 60.4873C109.185 62.6079 108.766 64.8188 108.199 67.1199C107.366 70.4993 106.083 73.7344 104.503 76.8025C102.927 79.8616 101.05 82.7628 99.0149 85.488C98.272 86.4851 96.7278 88.335 95.2466 89.9277C94.2876 90.9565 93.3467 91.8904 92.6444 92.4409C92.6759 92.5582 92.7119 92.68 92.7434 92.8018C92.937 93.4922 93.1486 94.2411 93.1486 94.9811C93.1486 95.8745 92.9595 96.7453 92.6219 97.5529C92.0861 98.8253 91.1767 99.9578 90.0332 100.77C88.8851 101.582 87.5075 102.078 86.0398 102.078C85.1799 102.078 84.2975 101.911 83.4196 101.541C82.4291 101.126 81.9654 100.729 81.6547 100.463C81.3756 100.224 81.3486 100.201 79.7143 101.027C73.1232 104.361 65.6813 105.963 58.1942 105.999C50.4236 106.04 42.6034 104.393 35.6342 101.253C35.4406 101.167 35.31 101.104 35.166 101.036C34.6077 100.779 33.8874 100.441 33.4146 100.283C32.4692 100.923 31.2716 101.722 29.7004 101.722C28.2732 101.722 27.0622 101.514 26.0132 101.036C24.9462 100.553 24.0593 99.7999 23.2804 98.7215C22.9833 98.3109 22.7401 97.8597 22.5466 97.3544C22.353 96.8581 22.2089 96.3121 22.1099 95.703C21.8127 93.8892 22.1504 93.226 22.3575 92.8199C22.3845 92.7702 22.416 92.7657 22.407 92.7522C22.2539 92.4409 21.5606 91.7506 19.6877 89.8961L18.9314 89.1472C18.3326 88.5516 17.7428 87.8883 17.18 87.2115C16.6128 86.5302 16.0725 85.8264 15.5728 85.1541C12.1017 80.4933 9.35988 75.2368 7.49151 69.6601C5.70417 64.3225 4.72721 58.6961 4.67769 53.011C3.39909 52.623 2.36811 51.8921 1.59825 50.9626C0.670814 49.8391 0.126059 48.4224 0 46.9695V46.9199V45.6972V45.6475C0.103548 44.4654 0.486228 43.3058 1.16154 42.2907C1.78283 41.3612 2.65174 40.5581 3.78177 39.9896C5.05136 39.3489 5.7762 39.3308 6.24442 39.3173C6.43351 39.3128 6.51455 39.3083 6.65412 38.9608C6.73065 38.7668 6.85221 38.3247 6.96026 37.9231C7.02329 37.693 7.08182 37.4764 7.11783 37.3591C7.16736 37.1831 7.22138 36.9936 7.2664 36.8177C7.36545 36.4432 7.45099 36.1364 7.63107 35.6807C7.85618 35.1031 8.08579 34.5076 8.29738 33.9526C9.15279 31.7147 9.75157 30.1581 11.1247 27.7712C11.2373 27.5727 11.3408 27.3697 11.4399 27.1666C11.5569 26.9275 11.683 26.6839 11.8631 26.377C11.9081 26.3003 11.9711 26.1875 12.0386 26.0702C12.5294 25.1904 13.2632 23.8774 14.3887 23.8774C15.0055 23.8774 15.6223 24.1527 16.077 24.5587C16.5497 24.9829 16.8694 25.5604 16.8694 26.1514L16.8064 26.4041L13.3397 33.3525C12.5204 35.1122 11.7415 37.5576 11.2283 39.1774C11.0752 39.6647 10.9401 40.0798 10.8366 40.3911C11.3003 40.6844 11.674 41.0002 12.0071 41.3567C12.3493 41.7222 12.6419 42.1237 12.9526 42.5749L17.2701 41.7898H17.2746C19.5346 41.4108 22.2359 41.086 24.9552 40.8604C27.5079 40.6483 30.0876 40.5175 32.3386 40.5039C32.6088 40.0031 32.8609 39.6015 33.1625 39.2316C33.5317 38.7804 33.9684 38.3878 34.6032 37.9502C36.8182 36.4251 38.4705 36.6417 39.7311 36.8041C39.9067 36.8267 40.0733 36.8493 40.2308 36.8628C40.6225 36.2492 41.3429 35.3107 42.1307 34.3361C43.3238 32.8697 44.6879 31.3131 45.3002 30.704C45.6919 30.316 46.1736 29.7971 46.6914 29.2421C48.024 27.8073 49.6132 26.0973 50.9504 25.24C50.8828 24.9919 50.8153 24.7753 50.7523 24.5678C50.4281 23.5029 50.176 22.6863 50.5317 20.9131C48.3031 19.7355 45.6829 18.3729 42.9906 17.1546C40.3389 15.9499 37.6196 14.8806 35.1525 14.2535C35.0669 14.4339 34.9634 14.6144 34.8418 14.7994C34.2475 15.6883 33.203 16.5952 31.8884 17.1591C30.5738 17.7231 28.9846 17.9533 27.3008 17.5021C26.6615 17.3306 26.0042 17.0599 25.3469 16.6719C24.7121 17.3938 23.3749 18.815 22.2269 19.9159C21.2364 20.868 20.3225 21.6124 19.9128 21.6124C19.5121 21.6124 19.1565 21.5628 18.8413 21.4681C18.3416 21.3192 17.9589 21.0665 17.6933 20.7416C17.4142 20.3987 17.2701 19.9881 17.2701 19.5415C17.2701 19.3339 17.3016 19.1218 17.3691 18.9008C17.6213 18.0525 18.8773 16.8614 20.1649 15.6476C21.0654 14.7994 21.9748 13.9376 22.488 13.2563L22.4025 12.9134C22.0648 11.5914 21.7047 10.1837 22.371 8.2977C22.9067 6.77266 24.0593 5.42359 25.5179 4.5573C26.8956 3.73612 28.5479 3.34359 30.2136 3.63235C31.8164 3.90758 32.6268 4.49413 33.5812 5.17995C33.7118 5.2747 33.8468 5.36945 33.9864 5.46871C35.256 4.8235 36.9173 4.11513 38.6146 3.47894C40.555 2.74801 42.5404 2.10731 44.0171 1.74185C48.6273 0.600326 52.9898 0.0137737 57.3569 0.000237927C61.7239 -0.0132979 66.0864 0.550695 70.7011 1.69673C71.9482 2.00805 73.3348 2.41864 74.6855 2.88337C75.9911 3.33005 77.2832 3.83088 78.4042 4.3317C78.6923 4.46255 78.9535 4.60242 79.2101 4.7468C79.5928 4.95435 79.9754 5.16641 80.4121 5.29726L80.5112 5.22958C82.4876 3.88953 84.3155 2.65326 87.8811 4.20085C88.9887 4.67912 90.1187 5.64919 90.9336 6.87192C91.6539 7.9593 92.1356 9.25423 92.1356 10.6033C92.1356 11.1808 92.0186 11.6771 91.897 12.1735C91.8385 12.4126 91.7845 12.6472 91.744 12.8954C92.3787 13.3646 92.901 13.888 93.4052 14.3888C93.8284 14.8084 94.2336 15.2145 94.6568 15.5348C94.8324 15.4897 95.008 15.4356 95.1926 15.3814C95.9084 15.1694 96.6873 14.9393 97.5202 14.9393C98.3395 14.9393 99.285 15.219 100.14 15.6161C101.122 16.0718 102.009 16.6944 102.459 17.2359C105.912 21.3778 104.053 24.5587 103.215 25.998C103.076 26.2327 102.981 26.35 102.981 26.377C102.981 26.5305 103.305 27.1531 103.805 28.1187C105.628 31.6335 109.622 39.3444 109.996 50.8949V50.913L110 50.904ZM27.1342 92.8966C26.6975 93.3748 26.4319 94.0246 26.4319 94.7736C26.4319 95.4458 26.747 96.082 27.2242 96.5558C27.7195 97.0476 28.3813 97.3589 29.0521 97.3589C30.2992 97.3589 31.0826 96.6731 31.4202 95.7978C31.5733 95.4052 31.6408 94.9766 31.6228 94.5525C31.6093 94.1283 31.5103 93.7132 31.3302 93.3388C30.9385 92.5266 30.1371 91.9355 28.935 92.0348C28.2147 92.0935 27.5799 92.4048 27.1297 92.8966H27.1342ZM87.1023 61.8319C86.9942 61.9402 86.9222 62.0169 86.7736 62.0891C86.9132 62.5177 87.0528 63.0591 87.1923 63.6457C87.4985 64.9541 87.7911 66.5108 87.9352 67.3455C87.9757 67.5891 88.0342 67.8508 88.0972 68.1305C88.2548 68.8479 88.4394 69.6781 88.4394 70.4226C88.4394 71.722 87.9667 72.7553 86.2559 72.7553C84.2254 72.7553 83.9058 70.7971 83.4466 67.9681C83.3205 67.1921 83.1809 66.3393 82.9874 65.4324C82.9378 65.1888 82.8748 64.9451 82.8163 64.706C82.7037 64.2638 82.6002 63.8352 82.5416 63.3795C82.0599 63.375 81.6637 63.3524 81.2721 63.2847C80.8804 63.217 80.5157 63.1042 80.097 62.9147C79.4712 63.8938 78.4898 64.9677 77.6659 65.8791C77.4588 66.1092 77.2607 66.3258 77.0581 66.5514C76.7564 66.8898 76.4098 67.2868 76.0586 67.6884C74.5414 69.4164 72.9927 71.1806 71.2774 72.7688C70.9937 73.0305 70.7957 73.1839 70.5976 73.3328C70.3815 73.4952 70.1744 73.6532 69.9042 73.9194C69.7422 74.0818 69.5891 74.2397 69.4405 74.3976C69.2244 74.6232 69.0173 74.8443 68.7247 75.115C66.3701 77.2988 63.3672 79.5097 60.6344 81.5265C59.743 82.1852 58.8741 82.8214 58.0412 83.4531L57.9917 83.4847L49.1225 88.8764L49.073 88.9035L41.0232 92.7702L40.9872 92.7838C40.7396 92.883 40.4019 93.0274 40.0237 93.1853C38.8262 93.6907 37.2144 94.3675 36.1969 94.6156C36.1564 95.3511 36.0304 95.9241 35.8863 96.5287C36.3545 96.7047 36.9038 96.9573 37.3765 97.1829C37.6331 97.3047 37.8717 97.413 37.9843 97.4627C40.1318 98.4057 42.2748 99.1907 44.4718 99.8134C46.6643 100.436 48.9154 100.892 51.288 101.19L57.5414 101.632C59.6619 101.569 61.7914 101.393 63.8264 101.122C65.8748 100.851 67.8243 100.481 69.5666 100.034C72.1958 99.3577 75.1042 98.1349 77.1166 97.2912C77.9315 96.9483 78.6023 96.6686 79.075 96.4971C79.0615 96.267 79.0435 96.0459 79.0255 95.8293C78.9084 94.4848 78.8004 93.2575 80.187 91.0241C80.4707 90.5684 80.7543 90.221 81.0785 89.9097C81.3936 89.6029 81.7313 89.3457 82.1365 89.0479C82.5236 88.7682 82.9018 88.5245 83.352 88.344C83.6672 88.2177 84.0138 88.123 84.4055 88.0733C84.4415 86.8822 84.5811 85.3797 84.6982 84.0938C84.7342 83.7148 84.7657 83.3674 84.8152 82.7898C84.8557 82.3161 84.8332 81.8062 84.8107 81.3144C84.7972 80.9896 84.7837 80.6737 84.7837 80.4211C84.7837 78.9547 85.0808 77.8041 86.8817 77.8041C87.512 77.8041 88.0477 77.8989 88.4619 78.2057C88.9031 78.5351 89.1507 79.0539 89.1507 79.8616C89.1507 80.7595 89.1507 80.5835 89.1507 80.4481C89.1552 82.4379 89.1643 86.6566 88.8446 88.4298C89.2318 88.5787 89.5379 88.7637 89.8486 88.9757C90.5194 88.4478 91.4558 87.5003 92.4193 86.449C93.887 84.8473 95.3952 83.0064 96.1155 82.0048C98.3666 78.8599 98.9158 77.7816 100.059 75.5482C100.37 74.9436 100.717 74.2623 101.099 73.5313C100.834 73.211 100.406 72.7508 99.9423 72.277C99.2175 71.5371 98.4206 70.7836 98.0469 70.4813C97.4211 69.9804 96.8448 69.457 96.2731 68.9337C95.6563 68.3742 95.044 67.8147 94.4092 67.3184C93.4863 66.6055 92.8019 66.0596 92.1807 65.5633C90.6634 64.3495 89.5199 63.4381 87.1248 61.8183L87.0978 61.8454L87.1023 61.8319ZM80.7318 54.4955C80.2906 54.9827 80.016 55.6505 80.016 56.413C80.016 57.5636 80.7048 58.3396 81.5782 58.6871C81.9294 58.8269 82.3075 58.8991 82.6812 58.8991C83.0549 58.8991 83.4241 58.8314 83.7662 58.6916C84.6081 58.3487 85.2609 57.5365 85.2609 56.201C85.2609 56.1423 85.2609 56.0972 85.2564 56.0611C85.2159 55.4249 84.8872 54.8158 84.4055 54.3646C83.9238 53.9134 83.298 53.6201 82.6452 53.6201C82.5867 53.6201 82.5371 53.6201 82.5011 53.6247C81.8168 53.6698 81.182 53.9901 80.7273 54.5L80.7318 54.4955ZM73.767 63.569L76.6844 60.1309C76.6259 60.0045 76.5583 59.8692 76.4818 59.7248C76.2252 59.233 75.919 58.651 75.7615 57.726C75.5949 56.7559 75.6219 56.3273 75.6624 55.7408C75.6759 55.5422 75.6894 55.3257 75.6984 55.0459C73.5059 53.8999 71.2954 52.9073 69.0038 51.9868C66.5952 51.0213 64.101 50.1369 61.4493 49.2481C59.9141 48.7337 55.5965 47.6147 51.6167 46.7665C49.091 46.2296 46.7184 45.7964 45.3092 45.7062C45.1877 46.392 44.886 47.0508 44.4943 47.6463C43.873 48.5848 43.0176 49.3744 42.3153 49.8256C40.5055 50.9987 38.9207 50.913 37.4665 50.8363C37.2775 50.8272 37.0884 50.8182 36.8948 50.8092C36.8227 50.9807 36.7327 51.2017 36.6246 51.4589C35.6747 53.7465 33.2976 59.4676 32.1676 64.0066C31.4607 66.8537 30.5153 72.4801 30.1371 77.9079C29.8805 81.5942 29.8805 85.1767 30.3982 87.6988C31.3842 87.956 32.2306 88.3034 32.9689 88.7682C33.6713 89.2103 34.27 89.7608 34.7878 90.4376C35.301 90.2165 35.8368 90.027 36.3725 89.833C36.8588 89.6615 37.345 89.4856 37.7592 89.3141C39.6501 88.5335 41.5905 87.6718 43.4949 86.7423C45.2417 85.8941 46.957 84.9917 48.5732 84.0532C50.212 83.1057 51.8778 82.1311 53.5211 81.1024C55.1508 80.0827 56.7491 79.0133 58.2573 77.8718L63.4752 73.7344C63.7994 73.4817 63.9795 73.3102 64.173 73.1298C64.3171 72.9944 64.4747 72.85 64.7043 72.656C64.8844 72.5026 65.06 72.3673 65.2175 72.2454C65.4426 72.074 65.6272 71.9296 65.9379 71.6183C66.0684 71.4874 66.199 71.3521 66.3251 71.2167C66.5862 70.9415 66.8293 70.6843 67.1354 70.4181C68.9903 68.7803 69.7151 67.9952 70.6111 67.0296C71.1738 66.4205 71.7996 65.7437 72.7496 64.7962C73.0692 64.4804 73.2088 64.2954 73.3799 64.0698C73.4789 63.9389 73.5915 63.7946 73.785 63.5645L73.767 63.569ZM92.0006 44.0323L87.9757 51.689C88.9617 53.1599 90.4518 55.461 89.5379 58.0464C90.4564 58.5607 91.87 59.6436 92.6714 60.2527L93.0676 60.555C93.7339 61.0558 94.3417 61.5251 94.945 62.0078C95.5707 62.5042 96.156 62.9779 96.7728 63.4787L102.959 69.0149L104.814 62.0214C105.484 57.9787 105.764 54.2834 105.592 50.6242C105.426 46.9605 104.809 43.3239 103.693 39.403C103.085 37.2598 102.414 35.428 101.667 33.7044C100.973 32.1027 100.208 30.5686 99.3525 28.9443C98.8618 29.0662 98.3125 29.197 97.7588 29.2557C97.3176 30.9882 96.4892 33.3841 95.5437 35.8296C94.3642 38.8796 93.0045 42.0199 92.0006 44.0323ZM25.0182 88.8674C25.3018 88.6869 25.5675 88.52 25.9231 88.3846L25.698 82.9162C25.5405 81.513 25.5945 80.579 25.6575 79.5232C25.6935 78.869 25.734 78.1651 25.7295 77.2943C25.7025 74.1765 26.2383 70.2421 27.0667 66.3258C27.9896 61.9537 29.2862 57.5906 30.5693 54.4007L33.0995 48.3728C32.2621 47.1184 32.001 46.7033 31.5913 45.0429C30.0426 45.052 28.6109 45.1242 27.2107 45.2324C25.653 45.3588 24.1538 45.5302 22.6051 45.7378C22.1234 45.8009 21.5246 45.8777 20.9033 45.9544C19.9984 46.0672 19.0529 46.189 18.0895 46.3243C17.7113 46.3785 17.2431 46.4552 16.7478 46.5409C15.8564 46.6943 14.8795 46.8613 14.0691 46.9289C14.0106 47.5787 13.8665 48.1878 13.6684 48.7472C13.3803 49.5549 12.9751 50.2633 12.5249 50.8318C12.1422 51.3145 11.4489 51.9282 10.679 52.3974C10.2063 52.6817 9.70204 52.9208 9.21581 53.0471C9.26084 56.3499 9.75607 59.9053 10.5709 63.3479C11.4714 67.1469 12.7545 70.8061 14.2537 73.8472C15.2576 75.8866 16.1491 77.5966 17.1305 79.2164C18.112 80.8362 19.197 82.3973 20.5971 84.1524C21.5651 85.3707 22.8617 86.7242 23.8387 87.7439C24.2844 88.2132 24.6671 88.6102 24.9372 88.9125L25.0227 88.8584L25.0182 88.8674ZM5.88425 43.9601C5.01085 44.3165 4.32202 45.1332 4.32202 46.3965C4.32202 47.5967 5.02885 48.3953 5.92477 48.7518C6.28044 48.8916 6.65862 48.9638 7.03229 48.9683C7.40597 48.9728 7.77514 48.9052 8.1173 48.7698C8.93668 48.4404 9.57148 47.6644 9.57148 46.3965C9.57148 45.1061 8.91417 44.2985 8.07228 43.9511C7.73012 43.8112 7.36095 43.7435 6.98277 43.7435C6.6136 43.7435 6.23542 43.8157 5.88876 43.9601H5.88425ZM36.1924 44.9076C36.5571 45.7784 37.381 46.4642 38.6281 46.4642C39.3349 46.4642 39.9427 46.1709 40.3839 45.7107C40.8701 45.2099 41.1628 44.515 41.1808 43.7931C41.1808 43.748 41.1808 43.8112 41.1808 43.7525C41.1808 43.175 40.8926 42.5433 40.4514 42.047C40.0192 41.5597 39.452 41.2213 38.8757 41.2033H38.8397C37.4215 41.2033 36.5571 41.871 36.1879 42.7283C36.0439 43.0712 35.9718 43.4412 35.9718 43.8112C35.9718 44.1812 36.0484 44.5557 36.1924 44.9031V44.9076ZM45.4758 37.2734C44.9355 37.9231 44.2197 38.7804 43.9496 39.2857C44.0216 39.3805 44.0936 39.4707 44.1702 39.5609C44.5439 40.0212 44.9085 40.4678 45.0706 41.1672C46.1016 41.2439 47.4612 41.4875 48.5867 41.6861C48.9604 41.7537 49.3116 41.8124 49.5052 41.8485C53.2014 42.4711 56.8751 43.3058 60.4768 44.3346C64.11 45.3723 67.6802 46.6131 71.1333 48.0298C72.2543 48.4901 73.4384 49.018 74.5909 49.5323L75.0051 49.7173C75.2662 49.8346 75.5589 50.0016 75.8785 50.182C76.6124 50.6017 77.5128 51.116 78.0125 51.0393C78.0395 50.4392 75.856 46.8342 74.9916 45.4039L74.726 44.9662C73.1953 42.3899 70.3634 38.4194 67.3695 34.8911C65.132 32.2516 62.8134 29.8648 60.9135 28.5112C60.0446 28.9489 59.2207 29.2647 58.3518 29.4046C57.3659 29.5625 56.3484 29.4858 55.1823 29.0932C54.8177 28.9714 54.543 28.8315 54.2819 28.7007C54.1423 28.633 54.0118 28.5653 53.8767 28.5067L45.971 36.6598C45.8225 36.8493 45.6559 37.0478 45.4713 37.2734H45.4758ZM96.2461 19.6994C95.3772 20.0513 94.6928 20.8544 94.6928 22.0997C94.6928 23.336 95.3952 24.1527 96.2821 24.5136C96.6332 24.6535 97.0114 24.7302 97.3851 24.7302C97.7588 24.7347 98.1279 24.667 98.4701 24.5271C99.2985 24.1888 99.9378 23.3947 99.9378 22.0997C99.9378 20.8319 99.2805 20.0378 98.4341 19.6949C98.0919 19.555 97.7183 19.4873 97.3401 19.4873C96.9664 19.4873 96.5927 19.5595 96.2461 19.6994ZM59.7835 21.2966C59.4008 20.3987 58.5499 19.6858 57.3433 19.6858C56.704 19.6858 56.1098 19.9836 55.6506 20.4258C55.1463 20.9131 54.8132 21.5628 54.7681 22.1809C54.7636 22.217 54.7636 22.2622 54.7636 22.3163C54.7636 22.9119 55.0203 23.5571 55.4209 24.0669C55.8036 24.5542 56.3124 24.9062 56.8301 24.9422C56.8481 24.9422 56.8796 24.9422 56.9201 24.9422C58.4959 24.9422 59.4188 24.2925 59.797 23.4533C59.9501 23.1194 60.0176 22.754 60.0176 22.3885C60.0131 22.0185 59.9366 21.644 59.788 21.2921L59.7835 21.2966ZM91.3523 25.8762C90.7175 24.6896 90.3708 23.1871 90.3708 21.6756C90.3708 20.2047 90.7985 19.3204 91.2892 18.4044C91.0011 18.1518 90.6004 17.7863 90.2087 17.4254C89.8216 17.0689 89.4344 16.7034 89.1597 16.4327C88.3584 16.9245 87.5705 17.2539 86.8141 17.4569C85.0988 17.9172 83.5276 17.7186 82.2535 17.1998C80.9659 16.6764 79.9664 15.8191 79.3992 14.9663C79.2866 14.7994 79.1921 14.6325 79.111 14.4655C78.2421 14.7001 77.0851 15.0882 75.9055 15.5123C74.2037 16.1259 72.4434 16.8253 71.4034 17.2945C69.0308 18.3638 67.9368 18.9639 66.3791 19.8167C65.7758 20.1461 65.105 20.516 64.3306 20.9266C64.3486 21.0575 64.3711 21.1793 64.3936 21.2966C64.5242 22.0095 64.6413 22.6457 64.2586 24.1436C64.173 24.4865 64.092 24.6806 64.02 24.843C63.9705 24.9603 63.9299 25.0596 63.8984 25.2355C65.4832 26.3635 67.3155 28.1954 69.0848 30.1535C70.9532 32.22 72.7406 34.4173 74.0912 36.0822C74.3748 36.4296 74.5999 36.759 74.8295 37.0929C74.9691 37.2959 75.1132 37.5035 75.2662 37.711C76.3873 39.2316 78.2782 42.1192 79.7909 44.7497C80.7993 46.5003 81.6457 48.1472 82.0059 49.2345C82.4471 49.2345 82.8838 49.2345 83.3205 49.2481C83.4151 49.2526 83.5006 49.2571 83.5906 49.2616C83.7617 49.2706 83.9508 49.2797 84.0048 49.2797C84.5226 49.2751 86.4765 45.4445 88.5069 40.9957C90.8075 35.9514 93.0766 30.1581 93.4998 28.0194C92.6039 27.6269 91.879 26.8598 91.3523 25.8762ZM83.9958 8.23904C83.0864 8.61805 82.3616 9.44824 82.3616 10.5943C82.3616 11.8847 83.0504 12.6743 83.9238 13.0172C84.275 13.1525 84.6531 13.2202 85.0313 13.2202C85.4095 13.2202 85.7877 13.1571 86.1343 13.0307C86.9627 12.7239 87.6065 12.0426 87.6065 11.0229C87.6065 9.47531 86.9762 8.58646 86.1568 8.22099C85.8282 8.0721 85.4635 8.00893 85.0988 8.01345C84.7252 8.01796 84.3515 8.09917 83.9958 8.24355V8.23904ZM28.0481 8.21197C27.1522 8.58646 26.4409 9.42117 26.4409 10.5943C26.4409 11.9072 27.1027 12.6968 27.9581 13.0307C28.3048 13.1661 28.6784 13.2292 29.0566 13.2292C29.4348 13.2292 29.813 13.1616 30.1686 13.0307C31.024 12.7149 31.6903 12.02 31.6903 11.0184C31.6903 9.46629 31.0465 8.56841 30.2136 8.19392C29.8805 8.04503 29.5158 7.97735 29.1511 7.98186C28.782 7.98637 28.4038 8.06308 28.0526 8.21197H28.0481ZM71.8356 12.2817C73.8841 11.42 75.9911 10.6574 78.0395 10.1476C78.044 9.66933 78.0666 9.44373 78.1341 9.13241C77.6974 9.01058 77.3462 8.82108 76.977 8.61805C76.7654 8.50073 76.5493 8.38342 76.3197 8.28416C72.5425 6.64633 69.2964 5.71687 65.9604 5.19348C62.6243 4.6701 59.1757 4.5573 55.0023 4.5573C51.9588 4.5573 48.6273 5.11227 45.4758 5.93344C41.8471 6.88095 38.466 8.1849 36.0439 9.41666L36.1384 9.91297C37.9438 10.3777 40.6901 11.3794 43.4138 12.4983C46.4573 13.7526 49.4872 15.1604 51.162 16.1575L51.4141 16.3064C51.6392 16.4418 51.8373 16.5545 52.0984 16.717L52.2064 16.7847C52.3595 16.8794 52.4045 16.9065 52.6521 17.087L52.6837 17.1095C52.7782 17.0328 52.8683 16.9561 52.9583 16.8794C53.2869 16.5952 53.6201 16.3109 54.1108 16.0582C55.4345 15.3724 57.1723 15.1965 58.739 15.4581C60.0986 15.6837 61.3502 16.2432 62.1381 17.0824C62.6243 16.7711 63.1106 16.4914 63.6103 16.2207C64.1911 15.9048 64.8709 15.5619 65.5957 15.201C67.5361 14.2264 69.6656 13.1932 71.8356 12.2817Z" fill="#818181"/>
</svg>
