<svg width="110" height="106" viewBox="0 0 110 106" fill="none" xmlns="http://www.w3.org/2000/svg">
<path fill-rule="evenodd" clip-rule="evenodd" d="M85.0704 27.6557H16.1034C9.98015 27.6557 4.71458 22.7442 4.71458 16.8557C4.71458 11.6046 7.03289 7.58664 11.4616 5.71088C12.8494 5.12046 14.2321 4.75994 16.1034 4.75994H85.0704C92.4983 4.75994 98.606 12.775 95.2325 20.8058C94.7023 22.0754 93.8602 23.2458 92.9662 24.1445C91.1781 25.9367 88.5375 27.6505 85.0704 27.6505V27.6557ZM18.4685 71.7125C18.4685 68.4835 22.7672 68.4835 22.7672 71.7125C22.7672 74.3198 18.4685 74.3198 18.4685 71.7125ZM13.7435 71.0646C13.7435 75.5477 16.8987 78.4057 19.9759 78.4057C22.2058 78.4057 23.7652 78.1758 25.517 76.415C29.3895 72.5224 27.6481 64.5805 20.189 64.5805C16.8727 64.5805 13.7435 67.7259 13.7435 71.0594V71.0646ZM18.4685 44.0673C18.4685 40.8383 22.7672 40.8383 22.7672 44.0673C22.7672 46.6745 18.4685 46.6745 18.4685 44.0673ZM13.7435 43.4194C13.7435 47.9024 16.8987 50.7605 19.9759 50.7605C22.2058 50.7605 23.7652 50.5306 25.517 48.7697C29.3895 44.8772 27.6481 36.9352 20.189 36.9352C16.8727 36.9352 13.7435 40.0806 13.7435 43.4142V43.4194ZM18.4685 16.422C18.4685 13.193 22.7672 13.193 22.7672 16.422C22.7672 19.0293 18.4685 19.0293 18.4685 16.422ZM13.7435 15.7741C13.7435 20.2572 16.8987 23.1152 19.9759 23.1152C22.2058 23.1152 23.7652 22.8853 25.517 21.1245C29.3895 17.2319 27.6481 9.28997 20.189 9.28997C16.8727 9.28997 13.7435 12.4354 13.7435 15.7689V15.7741ZM41.2461 71.4931C41.2461 68.8858 45.758 68.3477 45.758 71.4931C45.758 74.6385 41.2461 74.1003 41.2461 71.4931ZM36.5211 71.4931C36.5211 74.7273 39.4476 78.4057 43.1798 78.4057C45.3473 78.4057 47.1614 77.8832 48.6117 76.3053C51.0651 73.6353 51.0443 69.5337 48.7104 66.8011C45.4929 63.0287 38.933 64.2774 37.1865 68.7134C36.9785 69.2411 36.5211 70.8661 36.5211 71.4983V71.4931ZM41.2461 43.8478C41.2461 41.2406 45.758 40.7024 45.758 43.8478C45.758 46.9933 41.2461 46.4551 41.2461 43.8478ZM36.5211 43.8478C36.5211 47.0821 39.4476 50.7605 43.1798 50.7605C45.3473 50.7605 47.1614 50.238 48.6117 48.66C51.0651 45.9901 51.0443 41.8885 48.7104 39.1558C45.4929 35.3834 38.933 36.6322 37.1865 41.0682C36.9785 41.5959 36.5211 43.2208 36.5211 43.8531V43.8478ZM41.2461 16.2026C41.2461 13.5953 45.758 13.0572 45.758 16.2026C45.758 19.348 41.2461 18.8098 41.2461 16.2026ZM36.5211 16.2026C36.5211 17.7544 37.358 19.7399 38.5016 20.9051C44.9263 27.4571 54.6154 18.4336 48.7104 11.5054C44.682 6.78199 36.5211 10.0371 36.5211 16.2026ZM80.3506 77.1047C80.0232 76.6135 79.4358 75.95 79.0095 75.4275C77.7828 73.9227 73.1202 67.7154 72.1794 67.1668C71.0826 66.5294 68.7435 66.66 68.7435 69.33C68.7435 70.5265 70.8539 72.721 71.8467 73.9854C72.4913 74.8109 78.1103 82.0371 78.8016 82.5439C80.8808 84.08 82.3155 81.9273 83.5162 80.7151L95.1181 69.053C96.059 68.1073 98.6112 66.1009 98.6112 64.57C98.6112 63.3108 97.504 62.1927 96.2461 62.1927C94.6191 62.1927 89.4939 68.008 88.1372 69.3718L80.3506 77.0942V77.1047ZM59.725 53.9947C60.7802 53.9059 64.0809 52.5735 65.3908 52.1346L76.6704 48.3517C84.8885 45.5982 80.5118 45.734 93.803 50.1909L105.27 53.9947C105.27 59.8258 105.265 65.6568 105.27 71.4879C105.27 74.5445 104.932 76.7442 104.168 79.0223C103.399 81.316 102.593 83.1238 101.361 85.0518C99.8743 87.3822 97.556 90.3029 95.5496 92.1682C95.0558 92.628 94.853 92.6751 94.3644 93.1349C92.3216 95.0524 84.114 101.056 82.5234 101.014C81.2811 100.983 75.9011 97.2574 74.4197 96.2333C70.9111 93.8141 68.1457 90.9979 65.474 87.7323C64.8086 86.9172 64.1797 85.9714 63.6339 85.0518C61.3416 81.1958 59.725 77.6063 59.725 71.4879C59.7302 65.6568 59.725 59.8258 59.725 53.9947ZM55 52.2652V73.2121C55 84.2315 63.9146 94.9897 72.5328 100.727C74.1026 101.772 75.5529 102.738 77.1383 103.653C82.565 106.782 82.435 106.782 87.8617 103.653C93.0181 100.68 96.3657 98.015 100.602 93.7828C104.88 89.5087 110 81.2481 110 72.7784V52.26C110 50.0499 106.782 49.5639 104.116 48.6705L93.3716 44.9973C91.5471 44.386 83.1991 41.46 82.4974 41.46C81.6033 41.46 69.9702 45.6191 68.1301 46.2409L57.4898 49.7991C56.2371 50.2327 54.9948 50.6873 54.9948 52.26L55 52.2652ZM0 72.559V70.4324C0.171534 67.705 1.00841 65.0246 2.48984 62.757C3.46187 61.2678 5.9621 58.3001 7.5215 57.8821V57.4484C6.91853 57.2864 6.44032 56.811 5.9673 56.4191C2.38588 53.4356 0.384652 49.3706 0 45.2063V42.2751C0.228712 39.7671 1.05519 37.3062 2.48984 35.1117C3.46187 33.6226 5.9621 30.6548 7.5215 30.2368V29.8032C6.91853 29.6412 6.44032 29.1657 5.9673 28.7738C4.10642 27.222 4.94329 28.0789 3.38909 26.1823C0.639354 22.8331 0.005198 19.4943 0.005198 15.1158C0.005198 12.2577 1.53341 8.65253 3.1032 6.56777C5.80096 2.973 10.2972 0 15.6928 0H85.0912C95.7783 0 104.298 11.38 99.552 22.7442C98.5748 25.085 95.3728 29.2336 93.2572 29.8032V30.2368C97.0518 31.2557 95.5704 37.3846 91.1105 34.3384C90.5387 33.9465 90.18 33.7428 89.4679 33.3979C88.3815 32.8702 86.6142 32.3947 85.0964 32.3947H16.1294C14.2581 32.3947 12.8806 32.7553 11.4876 33.3457C3.18637 36.8621 2.45345 48.6861 9.69426 53.3364C13.3485 55.6824 15.5888 55.2905 21.2858 55.2905C25.7977 55.2905 30.3095 55.2905 34.8214 55.2905C36.4328 55.2905 43.6528 54.9927 44.7963 55.6301C45.9035 56.2467 46.3297 57.626 45.5656 58.9689C45.3421 59.3607 45.0978 59.5645 44.6508 59.7787C43.4137 60.3744 22.944 60.0452 21.0675 60.0452C15.4952 60.0452 13.1041 59.7213 9.55912 62.0829C3.34231 66.2316 2.55741 76.6188 10.3596 81.3892C11.9346 82.3505 13.8319 82.9566 16.3321 82.941L38.4652 82.9357C40.6223 82.9357 44.0426 82.5961 45.1238 83.5889C46.8132 85.1407 45.4669 87.6905 43.6216 87.6905H15.6928C11.5603 87.6905 7.68264 85.7729 4.78216 83.1082C3.53984 81.9639 2.3443 80.0986 1.58019 78.552C0.660146 76.6919 0.140346 74.6437 0.005198 72.5694L0 72.559Z" fill="#818181"/>
</svg>
