<svg width="105" height="105" viewBox="0 0 105 105" fill="none" xmlns="http://www.w3.org/2000/svg">
<path fill-rule="evenodd" clip-rule="evenodd" d="M74.3151 90.9893C74.2111 91.2708 74.1332 91.535 74.1418 91.626C74.1548 91.7689 74.2674 92.0894 74.432 92.4142C74.5576 92.6611 74.7049 92.8906 74.8478 93.0162C75.2462 93.3627 75.727 93.5099 76.1947 93.4926C76.4676 93.484 76.7361 93.4147 76.983 93.3021C77.2255 93.1894 77.4464 93.0249 77.6239 92.8213C77.9141 92.4878 78.0917 92.0417 78.07 91.509C78.0484 90.894 77.7972 90.435 77.4377 90.1318C77.2428 89.9629 77.0089 89.8416 76.7621 89.7593C76.5066 89.677 76.2424 89.6424 75.9782 89.651C75.4628 89.6684 74.9734 89.8633 74.6572 90.2357C74.5749 90.331 74.4277 90.6515 74.3064 90.9893H74.3151ZM50.5684 98.2957C50.4644 98.5772 50.3865 98.8414 50.3951 98.9323C50.4774 99.8288 51.0448 100.405 51.7291 100.643C52.0106 100.743 52.3094 100.786 52.6039 100.769C52.8898 100.756 53.1713 100.686 53.4182 100.561C53.9682 100.284 54.3666 99.7076 54.332 98.8154C54.3103 98.2004 54.0591 97.7413 53.6997 97.4381C53.5048 97.2692 53.2709 97.148 53.024 97.0657C52.7685 96.9834 52.5 96.9487 52.2401 96.9574C51.7248 96.9747 51.2354 97.1696 50.9192 97.5421C50.8369 97.6374 50.6897 97.9578 50.5684 98.2957ZM49.0309 93.7005C49.4423 93.4493 49.8884 93.2371 50.3302 93.0898C50.3259 92.8473 50.3172 92.6134 50.3042 92.3839C50.2869 91.9768 50.2695 91.574 50.2695 91.2405C50.2695 89.5081 50.59 88.0832 52.4957 88.0832C54.2237 88.0832 54.5096 89.6467 54.5096 91.3704C54.5096 91.7039 54.4922 92.1154 54.4793 92.5138C54.4706 92.7044 54.4663 92.8863 54.4619 93.0812C55.7396 93.471 56.6967 94.1986 57.3593 95.1644C58.1476 96.3077 58.5157 97.7716 58.5157 99.3827C58.5157 100.773 57.8054 102.181 56.7487 103.233C55.6963 104.285 54.2887 105 52.8984 105H51.885C50.7763 105 49.6762 104.584 48.7494 103.883C48.0174 103.328 47.3895 102.592 46.9477 101.743C46.5016 100.89 46.2417 99.9198 46.2417 98.8933C46.2417 97.5897 46.6662 96.2038 47.6753 94.8742C48.0001 94.4454 48.4852 94.034 49.0222 93.7048L49.0309 93.7005ZM26.8217 90.985C26.7177 91.2665 26.6398 91.5307 26.6484 91.6216C26.6614 91.7646 26.774 92.0851 26.9386 92.4099C27.0642 92.6567 27.2115 92.8863 27.3544 93.0119C27.5146 93.1548 27.7485 93.2804 28.004 93.3757C28.2466 93.4623 28.4934 93.5143 28.7057 93.5056H28.723C29.2297 93.4796 29.7018 93.2544 30.0439 92.8993C30.3904 92.5398 30.5983 92.0547 30.581 91.509V91.4917C30.555 90.8897 30.3081 90.435 29.953 90.1318C29.7581 89.9629 29.5242 89.8416 29.2773 89.7593C29.0218 89.677 28.7576 89.6424 28.4934 89.651C27.9781 89.6684 27.4887 89.8633 27.1725 90.2357C27.0902 90.331 26.943 90.6515 26.8217 90.9893V90.985ZM32.361 86.5977C33.3268 87.2647 34.0587 88.2218 34.4442 89.5038L34.8989 89.5081C36.4321 89.5211 37.151 89.5298 37.3806 89.0361C37.6621 88.4254 37.6361 87.1044 37.5885 84.6098C37.5712 83.683 37.5495 82.5959 37.5408 81.3096C37.5322 79.7894 38.0129 78.9276 38.6452 78.5378C38.9311 78.3602 39.2429 78.2823 39.5591 78.2866C39.8622 78.2909 40.1611 78.3689 40.4339 78.5075C41.1269 78.8583 41.6769 79.6162 41.6769 80.5084V89.0317C41.6769 89.8676 41.417 90.6385 41.0143 91.2968C40.5509 92.0547 39.8969 92.6567 39.2472 93.0249C38.0259 93.7135 36.705 93.6832 35.1415 93.6442C34.9293 93.6399 34.7084 93.6355 34.4485 93.6312C34.0587 94.9088 33.3311 95.866 32.3653 96.533C31.222 97.3212 29.7581 97.6893 28.147 97.6893C26.7567 97.6893 25.3492 96.979 24.2967 95.9223C23.2443 94.8699 22.5297 93.4623 22.5297 92.0721V91.0586C22.5297 89.6684 23.24 88.2608 24.2924 87.2084C25.3448 86.156 26.7524 85.4413 28.1426 85.4413C29.7538 85.4413 31.2176 85.8095 32.361 86.5977ZM22.9844 15.0328C22.586 14.6343 22.3261 14.093 22.3261 13.5256C22.3261 12.1094 25.3275 9.54545 26.6614 8.40208L27.0209 8.09458C28.8183 6.52677 30.0396 5.8035 31.6984 4.81604C32.0145 4.62547 32.348 4.43058 32.7724 4.17505C35.2974 2.65055 38.1082 1.60246 41.1312 0.93982C44.1369 0.281513 47.3418 0 50.6723 0C55.7222 0 60.8155 1.40756 65.3976 3.78527C70.1703 6.25825 74.393 9.78799 77.4334 13.8764C79.7938 17.0467 80.2788 18.1424 81.1494 20.113C81.4092 20.6977 81.7037 21.3647 82.0632 22.1269C88.0356 22.2179 93.4926 24.7472 97.5897 28.7273C101.838 32.8591 104.623 38.5586 104.996 44.7302V44.7606V47.5497V47.58C104.879 49.4856 104.528 51.4173 103.917 53.3402C103.337 55.1765 102.514 57.0129 101.431 58.8232L101.401 58.8709L98.9626 62.1148L98.9323 62.1537C98.8197 62.2793 98.7504 62.3746 98.6984 62.4439C98.5642 62.6301 98.4949 62.7211 98.1311 62.9636C97.4771 63.3967 96.7019 63.4574 96.0695 63.2321C95.7447 63.1152 95.4589 62.9203 95.2423 62.6604C95.0214 62.3963 94.8699 62.0628 94.8309 61.6773C94.7573 60.967 95.0648 60.0662 96.0002 59.0787C96.507 58.546 96.6239 58.3771 96.966 57.8921L97.122 57.6712C97.5031 57.1298 97.8322 56.6447 98.1354 56.1423C98.4386 55.6356 98.7288 55.0986 99.0319 54.4403C99.3178 53.8253 99.5603 53.2276 99.7682 52.6039C99.9761 51.9803 100.158 51.322 100.327 50.5987C100.903 48.0911 100.99 45.7653 100.665 43.5262C100.336 41.2828 99.5906 39.1086 98.4992 36.9085C97.8669 35.6352 97.1133 34.5092 96.2428 33.4827C95.3723 32.4563 94.3891 31.5208 93.315 30.6373C92.2713 29.7841 90.998 28.9525 89.6121 28.2682C88.3604 27.6532 87.0178 27.1508 85.6622 26.8563C83.54 26.3973 82.2451 26.3453 81.3832 26.315C80.6383 26.2846 80.1749 26.2673 79.7375 26.0335C79.0315 25.6523 78.698 24.8771 77.8188 22.8372L77.6369 22.4128C77.0479 21.0442 76.3506 19.8142 75.5841 18.6448C74.8131 17.4711 73.9599 16.3451 73.0678 15.193C71.5043 13.1791 69.4081 11.3125 67.0867 9.73602C64.6267 8.06426 61.9155 6.713 59.3083 5.84681C54.0505 4.0971 48.8923 3.73329 43.968 4.64713C38.9311 5.58262 34.1367 7.85205 29.7234 11.3428C29.1474 11.7976 28.4415 12.5122 27.7442 13.2224C26.5099 14.4741 25.2972 15.6998 24.4916 15.6998C23.9243 15.6998 23.3829 15.4399 22.9844 15.0415V15.0328ZM86.9009 79.6162C86.7969 79.8977 86.719 80.1619 86.7276 80.2528C86.7276 80.2572 86.7883 80.4131 86.8532 80.6123C86.9312 80.8332 87.0135 81.0627 87.0438 81.1234C87.2907 81.6344 87.7151 81.9376 88.1828 82.0589C88.512 82.1412 88.8671 82.1412 89.2006 82.0589C89.5341 81.9766 89.8459 81.8163 90.0971 81.5825C90.4566 81.249 90.6861 80.7639 90.6602 80.1446C90.6385 79.5296 90.3873 79.0705 90.0278 78.7673C89.8329 78.5984 89.5991 78.4771 89.3522 78.3949C89.0967 78.3126 88.8325 78.2779 88.5683 78.2866C88.0529 78.3039 87.5635 78.4988 87.2474 78.8713C87.1651 78.9665 87.0178 79.287 86.8965 79.6249L86.9009 79.6162ZM14.2402 79.6162C14.1363 79.8977 14.0583 80.1619 14.067 80.2528C14.067 80.2572 14.1276 80.4131 14.1926 80.6123C14.2705 80.8332 14.3528 81.0627 14.3831 81.1234C14.4221 81.2057 14.4914 81.3096 14.5694 81.4135C14.6387 81.5045 14.7123 81.5911 14.7773 81.6474C15.1757 81.9939 15.6565 82.1411 16.1242 82.1238C16.397 82.1152 16.6656 82.0459 16.9124 81.9333C17.155 81.8207 17.3758 81.6561 17.5534 81.4525C17.8436 81.119 18.0212 80.6729 17.9995 80.1402C17.9778 79.5252 17.7267 79.0662 17.3672 78.763C17.1723 78.5941 16.9384 78.4728 16.6916 78.3905C16.436 78.3082 16.1718 78.2736 15.9076 78.2823C15.3923 78.2996 14.9029 78.4945 14.5867 78.8669C14.5044 78.9622 14.3572 79.2827 14.2359 79.6205L14.2402 79.6162ZM1.19968 58.1519C0.333485 55.8305 0 53.2926 0 50.2609C0 46.48 1.48119 42.7726 3.86322 39.7366C6.30156 36.6227 9.69271 34.206 13.4087 33.1276C13.7205 33.0366 13.9327 32.989 14.1016 32.95C14.3009 32.9024 14.3702 32.9197 14.3875 32.898C14.3918 32.8937 14.4091 32.7205 14.4524 32.348C14.4741 32.1661 14.4958 31.9582 14.5131 31.8196C14.6473 30.7196 14.7686 29.8101 14.9202 28.9179C15.0674 28.0387 15.245 27.1942 15.4875 26.2197C15.7431 25.1846 16.2281 23.6904 16.7652 22.2698C17.2416 21.0095 17.7656 19.8055 18.2247 19.013C18.7618 18.0861 19.3118 17.5881 19.8402 17.3672C20.2819 17.1853 20.6977 17.1896 21.0702 17.3195C21.421 17.4408 21.7198 17.666 21.9623 17.9345C22.3651 18.3893 22.6077 18.9956 22.6077 19.4114C22.6077 19.6453 22.1183 20.7194 21.6202 21.8194C21.2088 22.7246 20.793 23.6428 20.6717 23.9762L20.6111 24.1451C20.0437 25.7433 19.6366 26.8867 19.2641 28.762C18.7921 31.131 18.6838 32.6512 18.6145 33.6646C18.5495 34.5785 18.5106 35.1242 18.2594 35.5746C17.8652 36.2805 17.1853 36.4711 15.4962 36.9432C15.1541 37.0384 14.7643 37.1467 14.3831 37.2593C12.5078 37.8007 10.8491 38.7275 9.43718 39.9185C7.2587 41.7592 5.68223 44.2452 4.85502 46.9694C4.02347 49.6935 3.94118 52.6602 4.75107 55.4537C5.27945 57.2771 6.18895 59.0311 7.51856 60.6032C12.2263 66.1642 17.5188 66.0126 24.1581 65.8221C25.4704 65.7831 26.8347 65.7441 28.1556 65.7441L80.5214 65.9477C82.0372 65.9477 83.4101 65.848 84.7267 65.6142C86.0304 65.3803 87.2777 65.0165 88.551 64.4838C88.7545 64.3972 88.9711 64.2846 89.1963 64.1676C89.7983 63.8515 90.4479 63.5137 91.0759 63.5137C91.587 63.5137 92.0028 63.6219 92.3319 63.7952C92.6914 63.9857 92.9382 64.2543 93.1028 64.5618C93.2631 64.8606 93.3324 65.1897 93.3324 65.5146C93.3324 65.9 93.2328 66.2855 93.0595 66.606C92.6134 67.4375 91.1929 68.0049 90.292 68.36L90.0928 68.438C85.9957 70.0881 84.194 70.0837 80.3395 70.0707H79.8501C79.8457 71.2184 79.8284 72.3315 79.8154 73.2843C79.7764 75.7573 79.7591 77.0696 80.0276 77.6759C80.2442 78.1567 80.9198 78.148 82.3707 78.1307L82.9554 78.122C83.3408 76.84 84.0728 75.8829 85.0386 75.2159C86.1819 74.4277 87.6458 74.0596 89.2569 74.0596C90.6472 74.0596 92.0547 74.7698 93.1072 75.8266C94.1596 76.879 94.8742 78.2866 94.8742 79.6768V80.6903C94.8742 82.0805 94.1639 83.4881 93.1072 84.5405C92.0547 85.5929 90.6472 86.3075 89.2569 86.3075C87.6458 86.3075 86.1819 85.9394 85.0386 85.1512C84.0728 84.4842 83.3452 83.5271 82.9554 82.2494C82.6739 82.2538 82.4443 82.2581 82.2234 82.2624C80.5647 82.3014 79.2524 82.3317 78.0094 81.5565C77.4031 81.1797 76.7794 80.5907 76.3376 79.8414C75.9695 79.2134 75.727 78.4728 75.727 77.6499V70.0707H67.2686V88.4037C67.2686 89.3825 68.0915 89.5211 69.1223 89.5211C69.4427 89.5211 69.6766 89.5125 69.9148 89.5081L70.3782 89.4951C70.5255 89.0534 70.7377 88.5986 70.9932 88.1872C71.3224 87.6501 71.7338 87.1651 72.1626 86.8402C73.0331 86.1776 73.6654 85.8311 74.3454 85.6406C75.0254 85.45 75.6967 85.4327 76.6711 85.4327C78.0614 85.4327 79.4689 86.143 80.5214 87.1997C81.5738 88.2521 82.2884 89.6597 82.2884 91.05V92.0634C82.2884 93.4536 81.5781 94.8612 80.5214 95.9136C79.4689 96.9661 78.0614 97.6807 76.6711 97.6807C75.06 97.6807 73.5961 97.3125 72.4528 96.5243C71.487 95.8573 70.7594 94.9002 70.3696 93.6225C70.0881 93.6269 69.8585 93.6312 69.6376 93.6355C67.9789 93.6745 66.6666 93.7048 65.4236 92.9296C64.8173 92.5528 64.1936 91.9638 63.7519 91.2145C63.3837 90.5865 63.1412 89.8459 63.1412 89.0231V70.0794H54.4836V83.1373C54.4836 84.1551 53.9422 84.822 53.2493 85.1165C52.9851 85.2291 52.6992 85.2854 52.4134 85.2854C52.1275 85.2854 51.8417 85.2291 51.5818 85.1165C50.8932 84.822 50.3605 84.1594 50.3605 83.1329V70.0751H41.7072C41.7116 70.4562 41.7245 70.794 41.7332 71.1145C41.7462 71.5822 41.7635 72.0153 41.7635 72.3358C41.7635 74.3367 41.4257 75.5537 39.3339 75.5537C37.7877 75.5537 37.4845 73.5961 37.4845 71.8118C37.4845 71.2141 37.5192 70.6121 37.5452 70.1487L37.5495 70.0707H29.1171V77.6499C29.1171 78.4858 28.8572 79.2567 28.4545 79.915C27.991 80.673 27.3371 81.275 26.6874 81.6431C25.4661 82.3317 24.1451 82.3014 22.5817 82.2624C22.3695 82.2581 22.1486 82.2538 21.8887 82.2494C21.4989 83.5271 20.7713 84.4842 19.8055 85.1512C18.6621 85.9394 17.1983 86.3075 15.5872 86.3075C14.1969 86.3075 12.7893 85.5973 11.7369 84.5405C10.6845 83.4881 9.96989 82.0805 9.96989 80.6903V79.6768C9.96989 78.5681 10.3857 77.468 11.0873 76.5412C11.6416 75.8093 12.3779 75.1813 13.2268 74.7395C14.08 74.2934 15.0501 74.0336 16.0766 74.0336C17.3802 74.0336 18.7661 74.458 20.0957 75.4671C20.5245 75.7919 20.9359 76.277 21.2651 76.8141C21.5206 77.2255 21.7328 77.6759 21.8801 78.122L22.4734 78.1307C23.9199 78.148 24.5999 78.1567 24.8164 77.6759C25.085 77.0696 25.0676 75.7573 25.0287 73.2843C25.0157 72.3315 24.9983 71.2184 24.994 70.0707C24.2794 70.0707 23.751 70.0794 23.2313 70.0837C16.4533 70.1487 11.1306 70.205 5.61727 64.683C3.49509 62.5565 2.09619 60.469 1.22999 58.1389L1.19968 58.1519Z" fill="#818181"/>
</svg>
