<svg width="106" height="106" viewBox="0 0 106 106" fill="#818181" xmlns="http://www.w3.org/2000/svg">
<path fill-rule="evenodd" clip-rule="evenodd" d="M19.0505 61.0747C19.0505 65.8312 20.0659 64.1786 17.7555 66.1971C17.0937 66.7754 17.0142 67.1632 16.4277 67.773C15.0916 69.1611 12.0508 66.9343 10.823 68.9939C10.4914 69.5489 10.2858 69.8545 10.0076 70.4561C7.52594 75.8141 7.76438 76.2307 9.97063 78.0217C10.6599 78.5822 10.527 78.6288 11.3917 79.0851C10.9312 83.7046 11.3917 81.7518 11.3917 84.054L8.70854 86.3452C7.91237 87.2373 8.207 87.9869 8.62221 89.3079C9.03879 90.6303 10.7915 95.2346 12.0124 95.2346C13.0018 95.2346 15.3478 95.1072 15.9467 94.8208C16.799 96.0924 17.8761 97.4011 19.2588 98.1329C19.2588 101.863 17.8076 102.733 22.1858 104.523C24.1043 105.307 25.3459 105.931 26.3489 106H26.6998C27.4082 105.948 28.0139 105.56 28.695 104.671C30.4997 102.319 29.4336 102.895 34.7861 102.895C35.6179 102.895 36.9266 106 38.3052 106C39.8071 106 43.5056 104.382 44.817 103.61C46.9781 102.337 45.9654 101.662 45.9654 98.1329C47.3494 97.4011 48.4265 96.0924 49.2775 94.8208C49.616 94.9825 52.2155 95.2826 52.7732 95.2277C54.0298 95.1058 54.4026 94.2836 54.8699 93.3751C55.6318 91.8937 56.9363 89.1832 56.9363 87.1606C56.9363 86.5754 55.3467 85.2023 54.8945 84.8543C53.0473 83.4291 54.0367 83.8608 54.0367 81.5709C54.0367 80.5336 53.8298 80.2965 53.8298 79.0865C54.5259 78.6206 54.9096 78.2972 55.6071 77.7586C57.8476 76.0279 56.8966 74.5055 55.5756 71.3372C54.2189 68.0827 53.9654 68.1142 51.9675 68.1142C49.8763 68.1142 46.9986 68.1882 46.9986 69.9778C46.9986 72.3472 50.1984 71.6318 51.9675 71.2194C52.5293 72.2814 53.3255 74.0779 53.6242 75.3605L50.8863 77.3845C50.186 78.2273 50.7259 80.128 50.7259 81.5723C50.7259 84.9433 49.3186 85.1078 53.6242 87.9896C53.0761 89.1311 53.2145 89.5682 51.9675 91.9225C48.2703 91.9225 48.7472 90.3726 46.4998 93.2873C46.0503 93.8697 45.0925 94.8262 44.5457 95.2661C42.1983 97.1545 42.5697 96.1007 42.9013 101.028C41.7927 101.583 39.9825 102.481 38.7176 102.481C38.5587 101.885 38.0243 101.397 37.6186 100.889C35.6289 98.3987 36.6416 100.246 31.0273 99.6128C28.7005 99.3497 28.4743 99.6677 27.6837 100.763C27.278 101.324 26.6669 101.867 26.5038 102.481C25.0896 102.481 23.3369 101.546 22.3626 101.031C22.7203 95.7238 22.9697 97.2408 20.7662 95.3812C20.2139 94.9153 19.2451 93.9424 18.8121 93.4025C16.3537 90.337 17.132 91.9225 13.254 91.9225C12.0234 89.597 12.1495 89.1407 11.5972 87.9896C15.8795 85.1229 14.4955 84.8214 14.4955 81.7792C14.4955 77.5449 15.5452 78.315 13.0443 76.3979C12.4057 75.9087 12.3756 75.773 11.5972 75.3605C11.9247 73.9532 12.6455 72.3691 13.254 71.2194C13.835 71.4989 16.8169 71.736 17.4034 71.4373C17.8912 71.1892 19.2177 69.3612 19.7316 68.7939C20.1016 68.3841 20.5003 68.169 20.969 67.7538C21.4226 67.3523 22.0118 67.0494 22.2968 66.5972C22.8409 65.7366 22.364 63.5016 22.364 62.1107C23.3794 61.8736 24.0317 61.1898 26.2982 60.6609L28.2016 63.1056C29.1376 64.084 30.8793 63.5592 33.5446 63.5592C35.1739 63.5592 36.0249 64.1484 37.0239 63.1056C37.8584 62.234 38.0845 61.3639 39.1342 60.6609C40.7293 61.0323 41.9489 61.8983 42.8602 62.1107C42.8602 63.6907 42.6533 64.4197 42.6533 66.045C42.6533 67.3002 44.9924 67.7332 45.6228 66.3231C46.0298 65.4146 46.1737 62.3779 46.1737 61.0761C46.1737 59.6756 41.4775 58.0381 40.4594 57.6818C38.7163 57.0706 38.1188 56.8733 37.1856 57.8846C36.4388 58.6958 35.5659 59.6002 34.9944 60.4553C33.5378 60.1155 31.6892 60.1155 30.2325 60.4553C29.6707 59.6167 28.8498 58.7643 28.1167 58.0175C26.9862 56.865 26.5668 57.0925 24.9252 57.6324C23.6905 58.0394 22.7655 58.3902 21.6733 58.9356C20.9128 59.3152 19.0532 60.1141 19.0532 61.0775L19.0505 61.0747Z" fill="#818181"/>
<path fill-rule="evenodd" clip-rule="evenodd" d="M68.1169 52.7938C68.1169 54.874 68.5184 56.3389 67.9826 56.9966C67.5866 57.4831 66.7959 58.1518 66.3053 58.6424C64.084 60.8706 65.2926 59.8332 61.4913 59.8332C59.0096 59.8332 57.1432 67.3879 57.1432 67.4934C57.1432 68.5472 59.6208 70.4548 60.4553 71.0125C60.1621 74.5356 60.1621 72.2513 60.4553 75.7744L58.0161 77.8902C56.8815 79.0098 57.076 79.4483 57.6283 81.0845C57.975 82.1095 59.6071 86.9537 61.0747 86.9537L64.8979 86.8399C65.5557 87.0907 65.9531 87.9663 66.4026 88.4569C66.9356 89.0393 67.492 89.1832 67.9812 89.7862C68.5115 90.4398 68.1128 91.9321 68.1128 93.9917C68.1128 95.3676 72.5116 96.8708 73.8819 97.3326C75.2988 97.8095 75.9456 98.2617 77.0775 97.1613C77.7641 96.4926 78.6521 95.4347 79.0865 94.6139C80.2677 94.6139 80.5185 94.8208 81.7778 94.8208C86.0081 94.8208 82.5274 93.9794 86.4849 97.3696C87.1139 97.9082 87.4414 97.8945 88.3445 97.6821C89.4599 97.419 91.1455 96.7598 92.1321 96.2733C95.9485 94.3905 95.2976 95.0263 94.9824 89.856C95.7553 89.6573 97.9396 87.4662 98.1328 86.7481C102.073 86.7481 102.602 88.1897 104.549 83.8471C106.071 80.45 106.721 78.918 104.79 77.3996C104.099 76.857 103.67 76.3924 102.895 75.9827V70.8069C103.551 70.6315 106 68.6843 106 67.4948C106 66.4945 104.99 63.9648 104.612 63.0864C103.966 61.5914 103.351 59.8346 101.653 59.8346C99.0866 59.8346 96.0636 59.9031 96.0636 61.9052C96.0636 64.3115 99.0427 63.1467 101.032 63.1467C102.036 65.0419 102.096 65.8449 102.689 67.0796C98.2617 70.045 99.791 69.6558 99.791 73.29C99.791 74.548 99.2552 76.7337 99.8718 77.5572L102.689 79.7087C102.419 80.2705 102.222 80.9858 101.952 81.6628C101.626 82.4795 101.392 82.9646 101.032 83.6415C94.1451 83.1784 98.2219 83.3483 93.4038 87.1921C90.4123 89.5779 91.9238 88.8626 91.9238 92.7516C90.8371 93.3271 89.3037 94.1014 87.9909 94.4083C87.6881 93.9561 87.3565 93.6382 86.9837 93.138C84.4363 89.7108 84.5308 92.1829 79.6182 91.3867C78.6274 91.2264 78.1985 91.1428 77.5709 91.6484C76.9583 92.1418 75.81 93.7396 75.3619 94.4083C73.9545 94.0808 72.3704 93.36 71.2207 92.7516C71.5071 92.1555 71.7716 89.2586 71.4372 88.6022C71.1289 87.9951 69.3954 86.992 68.3485 85.6847C65.8435 82.5576 66.467 83.6415 62.1107 83.6415C61.9188 82.8207 61.135 81.7395 60.6609 79.7087L63.1055 77.8053C64.1004 76.8556 63.5591 75.4469 63.5591 72.8761C63.5591 70.0957 64.802 69.8532 60.6609 67.0796C61.0473 65.4229 61.9079 64.0169 62.1107 63.1467C66.5177 63.1467 65.5379 64.391 67.555 61.9655C68.4458 60.8953 71.244 58.4999 71.3577 58.3149C71.8058 57.59 71.5277 54.6794 71.2207 54.0381L74.2697 52.739C74.748 52.5704 74.9563 52.5759 75.3619 52.3813L77.3859 55.1193C78.4027 55.9648 80.6761 54.9863 83.7031 55.4331C84.6733 55.577 85.2037 55.6126 85.7833 55.1426L87.9896 52.3813C88.6131 52.6801 89.2448 52.7938 89.9766 53.0857C90.6604 53.3584 91.3359 53.7256 91.9238 54.0367C91.9238 55.999 90.7152 59.0055 93.1654 59.0055C94.5713 59.0055 94.733 58.1107 94.9194 56.8253C95.5703 52.3498 95.6553 52.0387 91.9841 50.456C90.5288 49.8284 88.8008 49.0678 87.1619 49.0678C86.2657 49.0678 84.2896 52.173 83.8498 52.173C82.796 52.173 82.4945 51.9963 81.7682 51.9757C79.2413 51.9031 79.8648 52.924 78.6014 51.418C78.267 51.0178 78.1382 50.8986 77.8463 50.5163C76.2074 48.3703 74.8 48.7869 71.3564 50.445C70.4958 50.8602 68.1155 51.8099 68.1155 52.7938H68.1169Z" fill="#818181"/>
<path fill-rule="evenodd" clip-rule="evenodd" d="M59.8359 4.14254L60.0428 7.8685C58.6588 8.60026 57.5817 9.90894 56.7307 11.1806C56.1826 10.9175 53.9106 10.7668 53.0048 10.7668C51.8167 10.7668 50.9232 13.021 50.4491 14.0076C48.384 18.2982 48.5429 19.1971 51.1438 21.117C52.8787 22.3969 51.9702 22.1721 51.9702 24.2235C51.9702 25.4048 52.1771 25.6555 52.1771 26.9149C51.3014 27.378 51.1973 27.6316 50.4011 28.2441C48.1551 29.9694 49.1171 31.5124 50.4326 34.6642C51.977 38.3696 52.2113 37.8872 54.8698 37.8872C56.295 37.8872 56.21 37.276 57.1117 38.1202C57.7544 38.7217 57.816 39.1945 58.5629 39.7851C60.8363 41.5844 59.8387 40.6594 59.8387 44.9266C59.8387 46.3162 64.321 47.9112 65.5544 48.321C67.8319 49.0774 68.6472 49.0884 71.0179 45.5488C72.4746 45.8886 74.3232 45.8886 75.7798 45.5488C76.3102 46.3408 78.0889 48.7979 79.292 48.8239C80.058 48.8403 86.9591 46.6067 86.9591 44.928C86.9591 43.5467 86.8495 40.9321 86.463 39.8331C85.8464 38.0749 83.3825 38.9588 83.4387 39.7522L83.6894 43.8893C82.9207 44.0606 82.6124 44.3346 81.9025 44.6348C81.1639 44.9472 80.6747 45.1651 79.9183 45.3419C78.9234 44.6759 78.6904 43.8934 77.9066 43.0068C76.8761 41.8406 75.5263 42.4436 72.465 42.4436C70.8357 42.4436 69.9847 41.8543 68.9857 42.8972C68.6321 43.2672 68.4019 43.6495 68.0895 44.0702C67.7168 44.5717 67.3865 44.8883 67.0837 45.3405C64.8185 44.8129 64.1662 44.1277 63.1508 43.8907C63.5674 37.7063 63.592 40.2894 60.6184 37.3144C58.2682 34.9629 59.2234 33.5747 54.0421 34.782C53.4803 33.72 52.6841 31.9235 52.3854 30.6408L55.1233 28.6168C55.8236 27.7741 55.2836 25.8734 55.2836 24.4291C55.2836 21.058 56.6896 20.8936 52.3854 18.0118C52.9335 16.8703 52.7951 16.4331 54.0421 14.0775C57.7393 14.0775 57.2624 15.6274 59.5098 12.7127C59.9592 12.1303 60.9171 11.1738 61.4639 10.7339C63.8113 8.84555 63.4399 9.89934 63.1083 4.9716C64.1265 4.45224 65.8778 3.51904 67.2919 3.51904C67.3632 3.78625 69.0104 6.41731 69.9833 6.41731C73.0364 6.41731 71.4509 5.98839 74.9823 6.38716C77.4736 6.66808 77.4695 6.28987 78.4082 5.11137C78.9398 4.44265 79.329 4.04114 79.7141 3.31211C80.8432 3.85477 81.8039 3.99317 83.647 4.96886C83.1742 11.9795 83.4318 7.91235 87.1989 12.5962C89.671 15.6712 88.7446 14.0775 92.7556 14.0775C93.9862 16.403 93.8601 16.8593 94.4124 18.0118C94.0109 18.2803 93.5751 18.6764 93.1434 19.0203C90.3808 21.2184 91.5141 20.5222 91.5141 24.4304C91.5141 28.4455 90.4411 27.6713 92.9653 29.6035C93.6039 30.0927 93.634 30.2284 94.4124 30.6408C94.0849 32.0482 93.3641 33.6323 92.7556 34.782C85.9053 33.1856 87.3647 37.2897 89.4887 37.6337L93.7902 37.8872C95.14 37.8872 95.8745 35.8632 96.3048 34.8121C97.5258 31.8221 98.7015 30.053 96.5145 28.3318C95.8238 27.7891 95.3949 27.3246 94.6193 26.9149C94.6193 24.2646 95.0249 26.4243 94.5795 21.9501C95.24 21.5308 95.769 21.0978 96.3281 20.5483C97.0256 19.8645 97.7245 19.6425 97.7245 18.6325C97.7245 16.7223 95.2921 10.7654 93.9985 10.7654C93.0091 10.7654 90.6631 10.8928 90.0656 11.1792C89.2133 9.90757 88.1362 8.59889 86.7535 7.86713C86.7535 3.48204 88.202 3.37789 83.7977 1.506C81.8861 0.693393 80.6459 0.0630357 79.6428 0H79.3235C78.6082 0.0479619 77.9998 0.437139 77.316 1.32923C75.5112 3.68074 76.5774 3.10519 71.2248 3.10519C70.1847 3.10519 69.3995 0 67.4989 0C66.0203 0 62.5232 1.61289 61.1939 2.39125C60.4416 2.83113 59.8387 3.0449 59.8387 4.14117L59.8359 4.14254Z" fill="#818181"/>
<path fill-rule="evenodd" clip-rule="evenodd" d="M10.7695 12.0096L11.0203 16.1467C10.2474 16.3454 8.06309 18.5366 7.86987 19.256C3.7287 19.256 3.40119 17.8199 1.45393 22.157C-0.782465 27.1409 -0.27955 27.4136 2.00755 29.2595C2.52417 29.6761 4.11788 31.0574 4.76468 31.0574C6.51597 31.0574 6.82156 29.2239 6.03361 28.34L3.31623 26.2954C3.61496 25.6719 3.7287 25.0402 4.02058 24.3085C4.29328 23.6247 4.66053 22.9491 4.9716 22.3612C11.8589 22.8244 7.78217 22.6531 12.6003 18.8106C15.4574 16.5318 14.0803 17.0772 14.0803 13.2512C15.1669 12.6756 16.7003 11.9014 18.0145 11.5944C20.8758 15.8672 21.0854 14.4927 24.2249 14.4927C28.673 14.4927 27.5548 15.4985 29.5774 13.0127C30.1407 12.3207 30.1831 12.4619 30.6422 11.5931C32.2989 11.9795 33.7049 12.8401 34.5764 13.0429C34.5764 14.3694 34.1886 16.6565 34.5669 17.3992L36.5045 19.1902C37.9667 20.4126 38.9533 22.0049 39.4069 22.2927C40.2675 22.8367 42.5025 22.3598 43.8934 22.3598C44.0962 23.23 44.9568 24.6373 45.3432 26.2941C44.9417 26.5627 44.4662 26.9422 44.0524 27.2807C41.5131 29.365 42.4436 28.4085 42.4436 33.1252C42.4436 35.9057 41.2007 36.1482 45.3419 38.9218C44.9554 40.5785 44.0948 41.9845 43.892 42.856C36.7238 42.856 41.6734 41.5049 36.0756 46.4258C35.3507 47.063 34.5299 47.3233 34.375 48.4662C34.2928 49.0733 34.6134 51.6125 34.7834 51.966C33.8228 52.4744 31.7864 53.3556 30.6422 53.6228C30.2366 52.8568 30.2188 52.9582 29.6953 52.2922C27.5507 49.568 28.6086 50.7245 24.4318 50.7245C20.8607 50.7245 20.9662 49.213 18.0145 53.6228C17.391 53.3241 16.7593 53.2103 16.0275 52.9184C15.3437 52.6457 14.6681 52.2785 14.0803 51.9674C14.0803 50.8122 14.4804 49.1788 14.4201 48.4621C14.3283 47.3549 12.2193 46.4806 9.8322 43.3781C8.81129 42.0503 7.68898 42.8574 4.97023 42.8574C3.96714 40.9622 3.90684 40.1592 3.31348 38.9231C4.02195 38.4476 4.37961 38.1146 5.08671 37.5912C6.13913 36.8142 6.41868 36.9142 6.41868 35.4041C6.41868 34.4353 5.35803 34.1626 4.55501 34.1626C4.30972 34.1626 0 36.8375 0 38.5107C0 39.7152 1.0442 41.9721 1.41967 42.8875C3.271 47.4069 3.74788 45.9626 7.86713 45.9626C8.48104 47.1219 9.81301 48.4539 10.9723 49.0678C10.9723 53.3227 9.52798 53.6105 14.0172 55.5468C15.4725 56.1744 17.2005 56.9349 18.8395 56.9349C19.7357 56.9349 21.7117 53.8297 22.1516 53.8297C23.2054 53.8297 23.5068 54.0065 24.2331 54.027C27.0546 54.1093 26.0981 52.7937 28.1537 55.4865C29.7926 57.6324 31.1999 57.2158 34.6436 55.5577C38.2339 53.8283 37.8845 54.0257 37.8845 51.5522C37.8845 48.8211 36.7471 50.3175 39.696 47.3603C41.9174 45.1322 40.7087 46.1695 44.5101 46.1695C47.0041 46.1695 48.8581 38.5107 48.8581 38.5093C48.8581 37.5734 46.2476 35.4603 45.546 34.9903C45.8393 31.4671 45.8393 33.7515 45.546 30.2283C46.3696 29.6761 47.2535 28.8388 47.9866 28.1139C49.1308 26.9834 48.8349 26.5353 48.3607 24.9306C48.0579 23.9042 46.3792 19.0491 44.9253 19.0491C40.51 19.0491 41.6337 20.044 39.6645 17.6842C39.1561 17.0744 38.534 16.8511 38.0201 16.2138C36.9238 14.8558 39.1452 12.1755 36.8704 10.7476C35.4096 9.8308 33.8104 9.24018 32.1167 8.66875C30.8025 8.22476 30.005 7.78899 28.9197 8.83867C28.2441 9.49232 27.3383 10.5859 26.9135 11.3889C25.7323 11.3889 25.4815 11.182 24.2222 11.182C21.2033 11.182 22.6106 12.0055 20.7524 9.88972C18.9888 7.8808 18.4516 7.46833 13.8679 9.72939C13.2649 10.0268 12.7181 10.2803 12.07 10.6229C11.4766 10.9353 10.738 11.6177 10.7654 12.0096H10.7695Z" fill="#818181"/>
<path fill-rule="evenodd" clip-rule="evenodd" d="M19.0505 45.3405C19.0505 43.9373 18.8436 43.026 18.8436 41.4062C19.8028 41.8667 20.9895 42.1887 21.9488 42.6478C21.3664 43.5179 19.9399 44.743 19.0505 45.3391V45.3405ZM23.8125 39.9578L19.6713 38.3011C19.9303 37.187 22.6956 31.4096 22.7765 30.4339L26.9176 32.0907L25.3815 35.9372C24.8539 37.1938 24.1167 38.6505 23.8125 39.9578ZM28.3675 28.9855C26.9903 28.8704 25.5459 27.844 24.2263 27.5357C24.2838 26.8519 24.7868 25.7652 25.054 25.2581C26.423 25.3719 27.9372 26.6025 29.1952 26.708C28.9608 27.1958 28.4154 28.4045 28.3675 28.9855ZM27.5398 20.4976C28.7909 20.4976 29.5953 20.5743 30.5079 21.4787C31.4247 22.3873 30.6998 22.686 30.4381 23.8097L26.2969 22.153C26.634 21.5144 26.7272 20.4962 27.5384 20.4962L27.5398 20.4976ZM18.845 48.8609C20.8183 48.8609 23.4658 45.8064 24.8018 44.4662C25.8597 43.4042 26.1187 42.5697 26.6806 41.1692L29.731 33.868C30.7889 31.3479 34.1654 23.9563 34.1654 22.1543C34.1654 17.8076 26.1407 14.971 23.9591 19.4013C22.2927 22.7833 19.0121 31.7303 17.1183 35.955C16.7812 36.7073 16.5949 37.2185 16.2715 38.0064C15.7562 39.2589 15.848 38.9944 15.7165 40.5676C15.5013 43.148 15.1396 48.8623 18.845 48.8623V48.8609Z" fill="#818181"/>
<path fill-rule="evenodd" clip-rule="evenodd" d="M70.6014 73.29C70.6014 63.5483 82.659 58.9768 88.979 65.2639C91.9239 68.1923 92.5461 69.7559 92.5461 74.1191C92.5461 78.4685 89.5642 81.7341 86.1315 83.4388C82.1109 85.4353 76.9913 84.3528 73.8546 81.2161C72.1019 79.4634 70.6 76.7213 70.6 73.2914L70.6014 73.29ZM80.5391 87.5744C84.4665 87.5744 86.5892 87.2908 89.9438 84.9708C90.4069 84.6501 91.4525 83.743 91.8294 83.3374C100.931 73.5463 93.3176 59.2111 82.1959 59.2111C77.6504 59.2111 74.0876 60.65 71.3729 63.5017C64.9474 70.2506 66.3328 81.212 75.0345 86.0397C76.2184 86.6961 78.7974 87.5744 80.5391 87.5744Z" fill="#818181"/>
<path fill-rule="evenodd" clip-rule="evenodd" d="M66.874 21.5322C66.874 18.8984 67.3523 16.784 69.305 15.0601C75.0481 9.9898 82.8152 14.5092 82.8152 20.4962C82.8152 28.8649 73.9436 31.0807 69.405 26.8683C68.206 25.7556 66.874 23.7686 66.874 21.5322ZM63.5619 20.7045C63.5619 27.9125 68.9446 30.2626 68.9446 30.6422C68.9446 31.1205 67.6304 34.1818 67.3468 34.8409C66.6054 36.5566 63.9867 40.7868 67.4961 40.7868C68.6541 40.7868 69.5311 37.9927 70.0395 36.7046L72.0512 31.8837C73.7504 32.0249 75.4825 32.4374 77.6051 31.8481C82.3863 30.5216 86.1287 26.2749 86.1287 20.9114C86.1287 17.4116 84.6487 15.2026 83.0577 13.217C81.7134 11.5383 78.1903 9.73218 75.7771 9.73218C72.0429 9.73218 69.4338 10.3132 66.7137 13.0909C65.1652 14.6709 63.5619 17.6486 63.5619 20.7045Z" fill="#818181"/>
<path fill-rule="evenodd" clip-rule="evenodd" d="M34.164 89.645V83.0207C35.4083 83.6785 36.4415 84.1814 36.4415 86.1259C36.4415 87.943 35.3713 89.0064 34.164 89.645ZM29.4021 76.1882V75.9813C29.4021 74.7466 29.8597 73.7613 30.8519 73.4969V78.0519C30.127 77.6682 29.4021 77.3133 29.4021 76.1882ZM30.8519 69.9778C26.3695 71.022 24.5771 76.687 27.5822 79.6661C28.1715 80.2513 29.8844 81.4914 30.8519 81.5723V89.8533C28.6634 89.8533 28.5086 88.6117 27.1259 88.6117C26.2311 88.6117 25.698 89.1462 25.5514 89.9355C25.1691 91.9951 29.4747 93.1667 30.8519 93.1667C30.8519 94.5234 30.9999 96.7557 32.9595 96.1171C34.1887 95.717 34.164 94.5261 34.164 92.9598C38.3449 92.6118 41.9407 85.745 38.053 81.8258C37.1678 80.9337 35.7166 79.8402 34.164 79.71V73.2927C34.8903 73.4626 37.4295 75.599 38.1846 73.157C38.7711 71.2618 35.3439 70.0066 34.164 69.9792C34.164 68.9446 34.301 67.0809 32.5072 67.0809C30.8423 67.0809 30.8505 68.306 30.8505 69.9792L30.8519 69.9778Z" fill="#818181"/>
<path fill-rule="evenodd" clip-rule="evenodd" d="M84.6788 78.0506C85.7875 78.0506 86.3356 77.2982 86.3356 76.6007C86.3356 75.0523 83.6442 73.7381 83.6442 73.0817C83.6442 72.0978 86.1273 67.3756 86.0382 66.5082C85.9067 65.2379 83.8676 64.0539 82.8741 66.0998L80.4143 72.1348C79.6744 73.9985 80.0827 74.1889 81.5216 75.6168C82.2396 76.3308 83.5072 78.0492 84.6788 78.0492V78.0506Z" fill="#818181"/>
</svg>
