<svg width="120" height="106" viewBox="0 0 120 106" fill="none" xmlns="http://www.w3.org/2000/svg">
<path fill-rule="evenodd" clip-rule="evenodd" d="M104.743 49.4015L113.3 20.8238C112.542 20.9579 111.428 21.3297 110.478 21.6477C110.042 21.7934 109.636 21.9313 109.326 22.0233C108.598 22.2418 107.833 22.441 107.063 22.6212C106.282 22.8013 105.501 22.9584 104.751 23.081C101.041 23.6942 97.3653 24.0391 93.7434 23.7862C90.1139 23.5333 86.5418 22.6863 83.0501 20.9119L77.8432 18.3098L75.6341 26.0396C75.1632 27.7182 74.7267 29.2358 74.2826 30.7802C73.9802 31.8379 73.67 32.9033 73.3523 34.0223L68.8728 49.6161L75.8638 53.3296C80.2246 55.2113 84.7194 55.744 89.1606 55.3953C93.6132 55.0465 98.0123 53.8087 102.166 52.1608C102.572 51.9998 102.871 51.8887 103.116 51.8005C103.663 51.5974 103.939 51.4978 104.084 51.3407C104.23 51.1874 104.303 50.9229 104.448 50.4056C104.521 50.1411 104.613 49.8154 104.743 49.4092V49.4015ZM65.4156 52.9196C64.8451 52.5517 64.2632 52.1723 63.6774 52.0381L63.4936 51.996L63.5089 51.8082C63.597 50.739 68.957 32.3055 71.8859 22.2226C72.7244 19.333 73.3638 17.1448 73.6394 16.1675C73.7236 15.8686 73.8462 15.4815 73.9802 15.0561C74.386 13.7531 74.9105 12.0708 74.9297 11.2238L74.9373 10.944L75.2053 11.0169C75.5154 11.0973 76.4917 11.7182 77.7666 12.5268C79.7537 13.7838 82.4797 15.5122 84.3901 16.3246C84.9759 16.5737 85.4353 16.7845 85.845 16.9723C86.9208 17.4667 87.6138 17.7848 89.6047 18.2983C93.8009 19.3752 98.0927 19.3905 102.304 18.7505C106.523 18.1105 110.658 16.819 114.533 15.2899C115.984 14.5656 118.38 13.8183 120 13.1975L115.482 29.0442L115.478 29.0518C113.939 33.8652 112.144 40.2537 110.509 46.0559C109.892 48.248 109.299 50.3557 108.771 52.1953C108.675 52.5363 108.606 52.8276 108.545 53.0882C108.284 54.2149 108.15 54.7898 106.776 55.3646C103.805 56.6063 100.7 57.8135 97.3959 58.7141C94.0842 59.6147 90.5772 60.2048 86.806 60.2048C82.4261 60.2048 78.9191 59.4729 75.6609 58.2389C72.4104 57.0125 69.4165 55.2918 66.0473 53.3066C65.8291 53.1802 65.6261 53.046 65.4194 52.9119L65.4156 52.9196ZM64.3282 99.9461C67.3682 100.881 70.7029 101.303 74.9143 101.303C76.8669 101.303 78.3486 100.973 79.9222 100.621C80.4543 100.502 80.9942 100.383 81.534 100.276C82.1504 100.157 82.6213 100.057 83.0693 99.9461C83.5172 99.835 83.9498 99.7085 84.4935 99.5322C85.6497 99.1528 86.5916 98.8616 87.3611 98.6201C88.9309 98.1296 89.7923 97.8613 90.2977 97.5509C90.8681 97.1983 90.9945 96.7423 91.2816 95.7344C94.0918 86.0079 97.0973 76.293 100.003 66.5895C99.1571 66.8041 98.3722 67.0609 97.5299 67.333C96.121 67.7929 94.5627 68.2987 92.3421 68.7394C89.509 69.299 86.6107 69.6784 83.701 69.7244C80.7912 69.7665 77.8738 69.4714 75.0062 68.6858C74.4319 68.5287 73.9112 68.3447 73.4135 68.1684C73.1608 68.0803 72.9158 67.9921 72.7205 67.927C69.6385 66.9038 68.3789 66.1871 66.5909 65.1715C66.0052 64.8381 65.362 64.4741 64.5771 64.0525C64.133 65.9112 63.5817 67.766 63.0265 69.64C62.8083 70.372 62.5901 71.1078 62.391 71.8015L55.5952 95.6003C58.6121 97.6084 61.3343 99.0302 64.3321 99.9538L64.3282 99.9461ZM54.7988 100.605C53.2904 99.7085 51.8393 98.7504 50.3232 97.7349L50.216 97.6621L50.2275 97.5356C50.2773 96.9262 50.5453 96.064 50.7558 95.3933C50.8171 95.1979 50.8707 95.0177 50.909 94.8989C51.533 92.7567 52.1648 90.4381 52.8041 88.0966C53.8264 84.3332 54.8678 80.5124 55.9206 77.2855L61.7171 56.932L61.92 56.978C62.6169 57.1428 64.355 58.2618 65.6223 59.082C66.0588 59.3617 66.4378 59.607 66.6905 59.7603C68.2526 60.703 69.9218 61.665 71.6485 62.4774C73.3714 63.2899 75.1594 63.9567 76.9626 64.3093C79.4665 64.7998 81.4498 65.0872 83.4406 65.1217C85.4353 65.1562 87.4454 64.9416 90.0105 64.4242C94.5091 63.5198 95.6692 63.0983 97.8745 62.3011C98.7283 61.9945 99.739 61.6266 101.163 61.1553C101.573 61.0211 101.971 60.8678 102.377 60.7107C102.79 60.5536 103.215 60.3888 103.725 60.2202C104.035 60.1167 104.349 59.9941 104.659 59.8714C105.183 59.6645 105.704 59.4575 106.336 59.3119L106.676 59.2314L106.596 59.5725C106.186 61.3315 105.67 63.0293 105.145 64.7576C104.9 65.5624 104.655 66.3711 104.414 67.2027L95.2021 99.0455C95.1677 99.1758 95.1332 99.3099 95.0987 99.4326C94.9226 100.119 94.8346 100.444 94.4173 100.759C94.065 101.023 93.4907 101.245 92.3919 101.674C92.0129 101.82 91.5726 101.993 91.0787 102.188C85.8986 104.25 80.6879 105.641 75.4542 105.94C70.2128 106.239 64.9485 105.442 59.6727 103.127C57.8962 102.345 56.315 101.506 54.7988 100.605ZM53.2368 40.9665C53.88 41.3191 54.3739 41.5912 54.684 41.7253C54.8716 40.476 55.8938 37.0576 56.4911 35.0532C56.6481 34.5282 56.7782 34.0952 56.8395 33.8806C57.1802 32.704 57.6205 31.1979 58.1144 29.504C59.9521 23.2113 62.5441 14.3472 63.4745 10.419C63.3098 10.3309 63.0801 10.1814 62.7815 9.98979C59.665 7.97399 48.5123 0.76154 32.3402 7.23052C31.3793 7.61375 30.6518 7.87818 30.089 8.08513C28.2781 8.74429 28.2321 8.75962 27.8301 10.1469L19.0894 39.3071C19.5642 39.1117 20.1538 38.9047 20.7587 38.7055C21.5627 38.441 22.4012 38.1881 23.0252 38.0041C24.3078 37.6247 26.5399 37.0537 28.6418 36.613C30.2192 36.2834 31.7277 36.0267 32.7154 35.9768C33.1174 35.9577 33.5118 35.95 33.91 35.9423C34.3962 35.9347 34.8824 35.927 35.3993 35.8887C43.022 35.3598 49.9863 39.1845 53.2368 40.9665ZM18.6798 44.5536C16.5013 45.412 14.5028 46.2053 12.4966 46.6729L12.2247 46.738L12.2324 46.4583C12.2477 45.711 13.1053 42.9402 13.76 40.8286C14.028 39.9586 14.2616 39.2037 14.3879 38.7553C14.721 37.5519 15.1 36.2681 15.4829 34.9919C15.8581 33.7464 16.2601 32.4358 16.643 31.2094L24.2925 5.73591L24.3193 5.67459C24.817 4.93495 26.2604 4.47124 27.4741 4.08034C27.8952 3.94621 28.2857 3.81974 28.5882 3.69711C29.7904 3.21423 30.9658 2.75435 32.1794 2.3328C33.3893 1.91507 34.6221 1.53567 35.9391 1.21759C40.0587 0.221181 44.2319 -0.196544 48.3285 0.087049C52.1877 0.355312 55.9857 1.24825 59.6191 2.86932C61.5716 3.73926 64.3014 5.49064 66.277 6.76297C67.5136 7.55626 68.4516 8.15794 68.6775 8.21926L68.8537 8.26525L68.8383 8.44537C68.7503 9.49159 68.2908 10.9057 67.8888 12.1512C67.7127 12.6916 67.5481 13.1975 67.4332 13.619C67.4332 15.6961 58.6619 44.2508 57.3602 48.7922L57.1802 48.7768C56.5294 48.7232 55.4574 48.0104 53.968 47.0255C50.3768 44.6417 44.3008 40.614 36.4522 40.614C28.6571 40.614 23.2703 42.7409 18.6759 44.5574L18.6798 44.5536ZM38.8029 86.0348L42.5779 88.1119C42.9723 85.9773 45.8131 76.3313 46.7052 73.2999L46.9387 72.5028L51.3454 56.8324C50.6907 56.476 50.0858 56.0774 49.4656 55.6712C49.0406 55.3914 48.608 55.1078 48.183 54.8511C45.4188 53.1725 42.934 52.2374 40.3688 51.7201C37.7998 51.2027 35.1351 51.1069 32.0225 51.1069C30.066 51.1069 27.5813 51.5323 25.0889 52.1531C22.0183 52.9196 18.9401 53.9773 16.8076 54.9009C15.7317 55.3684 14.7172 59.2812 14.1352 61.5385C13.9936 62.0827 13.8787 62.5311 13.7906 62.8185L6.92595 85.6247C7.63041 85.5021 8.50716 85.1801 9.30734 84.8889C9.73232 84.7356 10.1381 84.5861 10.4866 84.4788C12.5234 83.8542 15.0503 83.2257 17.5656 82.7811C19.6905 82.4055 21.8077 82.1641 23.634 82.1641C26.0728 82.1641 28.9825 82.578 31.7468 83.2793C34.4153 83.9576 36.9537 84.9119 38.7991 86.0271L38.8029 86.0348ZM5.53234 91.2276L0 93.2395C1.14092 89.2999 2.58048 85.0039 3.52997 81.0681C3.88986 79.9567 4.14638 79.0599 4.44501 78.0022L4.6441 77.2932C5.32942 74.8942 6.06068 72.5181 6.78812 70.1497C7.63424 67.402 8.47653 64.6618 9.25757 61.8489C9.83952 59.7526 10.5325 57.4915 11.2063 55.3033L11.57 54.1229C11.7155 53.6516 11.7959 53.2836 11.861 52.9924C12.1061 51.8963 12.1443 51.7201 13.8978 51.0494C18.6721 49.2175 22.7457 47.6961 26.984 46.8952C31.2299 46.0904 35.6252 46.0137 41.0273 47.0791C46.5673 48.1713 49.8102 50.3251 52.8501 52.3486C54.0867 53.1725 55.2927 53.9735 56.6021 54.6671L56.7285 54.7361L56.717 54.8779C56.6557 55.6022 56.4298 56.3342 56.2307 56.9742C56.1695 57.1735 56.1082 57.3651 56.0623 57.5375L51.0162 75.1203C50.595 76.5957 49.9557 78.7457 49.2474 81.1255C47.7542 86.1344 45.9662 92.1473 45.2924 95.0446L45.2426 95.2592L45.0282 95.2094C44.5994 95.1097 42.8995 94.0443 41.0273 92.8678C39.2394 91.7449 37.2945 90.5262 36.2033 89.9782C31.8119 87.7861 27.6808 86.9469 23.5268 87.0043C19.3651 87.0618 15.1728 88.0161 10.6703 89.3957C9.78592 89.6678 8.92448 89.9591 8.07453 90.2656C7.23224 90.5684 6.38229 90.8942 5.53234 91.2314H5.52851L5.53234 91.2276Z" fill="#818181"/>
</svg>
