<svg width="106" height="106" viewBox="0 0 106 106" fill="none" xmlns="http://www.w3.org/2000/svg">
<path fill-rule="evenodd" clip-rule="evenodd" d="M72.875 89.4348C74.2422 89.4348 76.0618 89.8821 77.042 90.2339C80.2992 91.405 83.7072 94.4607 84.4662 97.7174C82.521 99.0191 81.9027 99.6574 79.4698 100.587C74.2271 102.587 68.331 102.14 63.6161 99.3106C62.6761 98.7477 62.088 98.2602 61.2737 97.7174C62.3444 93.1288 67.959 89.4348 72.87 89.4348H72.875ZM65.6267 52.7914C65.6267 55.8873 69.7686 55.8873 69.7686 52.7914C69.7686 50.2886 65.6267 50.2886 65.6267 52.7914ZM93.5794 52.9975C93.5794 50.8766 95.6001 48.8562 97.7213 48.8562C99.8425 48.8562 101.863 50.8766 101.863 52.9975C101.863 55.1184 99.8425 57.1388 97.7213 57.1388C95.6001 57.1388 93.5794 55.1184 93.5794 52.9975ZM89.6436 50.9268L77.2079 50.9118C74.1115 50.962 74.1115 55.0279 77.2079 55.0782L89.6436 55.0631C90.3373 58.0384 93.4638 61.275 97.098 61.275H98.3395C102.16 61.275 106 57.4353 106 53.6157V52.3743C106 48.5546 102.16 44.7149 98.3395 44.7149H97.098C93.4638 44.7149 90.3373 47.9515 89.6436 50.9268ZM9.72136 0H11.2947C13.5214 0.175904 15.7583 1.10569 17.6734 3.02053C19.9705 5.31734 20.6943 7.70964 20.6943 11.1775C20.6943 14.3136 18.2464 17.5653 16.3464 18.8368C16.8741 21.1035 18.0504 22.9731 18.92 25.1644C19.3673 26.2902 19.7242 27.1395 20.2068 28.2251C20.6994 29.3258 20.9959 30.2757 21.5187 31.2607C22.6999 30.6928 25.5198 30.2254 27.3143 30.2254C32.4414 30.2254 35.206 30.9642 39.2574 32.9846C43.3339 35.015 43.7662 36.9098 46.1589 38.508C47.3803 38.1813 52.4169 34.4823 53.8193 33.5374C49.7076 25.7625 50.4113 16.7813 55.3072 9.56417C57.4083 6.46323 60.7208 3.58342 64.1992 2.1008C67.8183 0.557868 70.5578 0.00502584 74.9409 0.00502584C86.1652 0.00502584 96.6808 10.5291 96.6808 21.7418C96.6808 27.6874 95.5749 31.4517 92.4987 35.985C90.2619 39.287 87.1102 41.619 83.5665 43.4082C81.2945 44.5541 78.2383 45.5492 74.9409 45.5492C69.8138 45.5492 67.0542 44.8104 62.9978 42.79C58.9213 40.7596 58.489 38.8648 56.0964 37.2666C54.8749 37.5933 49.8383 41.2923 48.4359 42.2372C49.8735 44.9561 50.8637 47.7606 51.1251 50.9319C52.9899 50.9319 54.8548 50.9369 56.7146 50.9319C58.7001 50.9268 60.4393 50.8263 60.4393 52.7965C60.4393 55.043 59.0771 55.0782 56.7146 55.0732C54.8498 55.0681 52.9849 55.0732 51.1251 55.0732C50.7632 59.4155 48.5163 63.205 48.4359 64.18C48.9938 64.3308 49.6523 64.9238 50.2153 65.3007L55.267 68.7384C57.0715 66.0496 60.3187 63.9337 63.1737 62.5667C70.6884 58.9581 79.3442 60.0739 86.0798 64.6373C89.3822 66.8738 91.7145 70.025 93.504 73.5683C94.65 75.8399 95.6453 78.8956 95.6453 82.1926C95.6453 88.1382 94.5395 91.9025 91.4632 96.4358C87.4872 102.301 80.5606 105.739 73.5435 106H71.8446C68.8186 105.889 65.8177 105.171 63.0682 103.794C59.5245 102.015 56.408 99.6222 54.1913 96.3152C53.4474 95.2045 52.7637 94.0888 52.2008 92.9228C46.9782 82.0519 52.6582 73.5683 52.7839 72.0504C51.864 71.8042 48.5716 69.3063 47.5261 68.6128C46.8978 68.1956 46.4906 67.8539 45.9528 67.492C44.7213 69.3315 41.2328 72.0404 39.1217 73.0807L34.7486 74.9202C31.2451 76.046 24.8915 76.3526 21.5237 74.7393C20.071 77.4834 18.7591 81.1271 17.5628 84.027C17.1657 84.987 16.6128 86.0323 16.3514 87.1631C21.6795 90.7315 22.1068 98.5517 17.6784 102.979C15.7985 104.859 13.3807 105.864 10.9227 106H9.77665C7.31866 105.864 4.89586 104.859 3.02096 102.979C1.16113 101.12 0.125664 98.6221 0 96.089V95.0185C0.115611 92.7921 0.934939 90.6058 2.52836 88.8619L3.2371 88.1181C5.16227 86.3188 9.7666 84.2281 12.4256 85.5046C12.682 84.3989 13.2701 83.3033 13.7275 82.2529C14.205 81.1472 14.5318 80.2928 14.9992 79.1771C15.4516 78.1016 15.8135 77.1818 16.2911 76.1214C16.7535 75.0861 17.1204 73.9954 17.603 73.0858C14.2201 71.2966 11.551 68.8791 9.4449 65.7179C6.66018 61.5414 5.59456 57.7419 5.59456 51.9722C5.59456 43.7349 10.9378 36.4524 17.603 32.9243C16.7987 31.4115 12.7524 21.9026 12.4256 20.5054C9.98776 21.6714 5.5091 19.9425 3.77997 18.3845C1.01034 15.8917 0.00502655 13.4793 0.00502655 9.53402C0.00502655 4.54839 4.62946 0.402067 9.73644 0.0100517L9.72136 0ZM4.13183 95.6417C4.13183 93.3952 5.71519 91.0029 7.85651 90.048C12.9735 87.7713 18.2213 93.0132 15.9392 98.1295C15.5069 99.0995 15.3662 99.2201 14.6474 99.9388C12.8077 101.778 10.3547 102.346 7.85651 101.23C5.71519 100.276 4.13183 97.8833 4.13183 95.6367V95.6417ZM66.6622 79.0816C66.6622 78.4433 67.0744 77.0512 67.2804 76.5938C70.5779 69.1907 81.7519 74.1915 78.4696 81.5694C76.3081 86.4244 69.4419 86.4244 67.2804 81.5694C67.0744 81.107 66.6622 79.7149 66.6622 79.0816ZM62.5203 78.2523C62.5203 85.0674 65.3754 85.2332 65.8328 86.947C64.3952 87.2838 62.1885 89.0277 61.2234 89.9977C60.4745 90.7516 60.1478 91.1084 59.4993 92.003C58.3734 93.561 58.6247 93.9631 57.7551 94.1943C57.363 92.7217 51.4066 86.2736 55.9456 75.6188C57.6144 71.6986 61.3441 67.9745 65.2648 66.3009C66.4058 65.8134 67.2955 65.4364 68.6426 65.1248C77.414 63.0894 86.4417 67.7584 89.7894 75.6188C94.3283 86.2736 88.3719 92.7368 87.9798 94.1943C87.065 93.948 87.5324 93.8324 86.321 92.1237C84.989 90.239 82.0485 87.4446 79.9021 86.947C80.3595 85.2383 83.2146 85.0573 83.2146 78.2523C83.2146 75.664 81.5609 73.1159 80.1937 71.7489C73.3023 64.8585 62.5102 70.7236 62.5102 78.2523H62.5203ZM28.3548 59.2044C33.306 59.2044 38.8955 62.9537 39.9511 67.487C36.3671 69.8893 33.5321 71.6283 28.3548 71.6283C25.2233 71.6283 21.6142 70.5879 19.1009 69.0802C18.1609 68.5173 17.5728 68.0298 16.7585 67.487C17.8292 62.8984 23.4439 59.2044 28.3548 59.2044ZM22.142 48.8512C22.142 42.594 31.1596 40.0962 33.9494 46.3634C37.2367 53.7413 26.0577 58.742 22.7602 51.339C22.5542 50.8766 22.142 49.4844 22.142 48.8512ZM18.0001 48.0219C18.0001 54.8369 20.8552 55.0028 21.3126 56.7166C19.2165 57.2041 16.3162 59.9231 14.9791 61.7726C13.8532 63.3306 14.1045 63.7327 13.2349 63.9639C13.0741 63.3658 12.4809 62.6773 11.9934 61.6872C11.5611 60.8127 11.1841 60.1744 10.8272 59.129C7.13268 48.228 13.7677 37.3018 24.1275 34.8944C40.3431 31.1351 52.8542 49.1628 44.1281 62.7627C43.8115 63.2603 43.6204 63.3809 43.4646 63.9639C42.5498 63.7176 43.0173 63.602 41.8059 61.8932C40.4738 60.0085 37.5333 57.2142 35.3869 56.7166C35.8444 55.0078 38.6994 54.8269 38.6994 48.0219C38.6994 43.4132 33.7835 38.4979 29.1741 38.4979C25.736 38.4979 23.5645 38.9704 21.016 41.5185C19.6488 42.8855 17.9951 45.4336 17.9951 48.0219H18.0001ZM73.9054 28.974C78.9571 28.974 84.4813 32.879 85.5017 37.2566C81.777 39.7494 78.8616 41.3978 73.9054 41.3978C68.9493 41.3978 66.0339 39.7494 62.3092 37.2566C62.8068 35.1306 64.8426 32.7584 66.5064 31.517C68.4567 30.0596 71.2967 28.979 73.9054 28.979V28.974ZM67.6926 18.6207C67.6926 17.9825 68.1048 16.5903 68.3109 16.1329C71.6083 8.72988 82.7823 13.7306 79.5 21.1085C77.3386 25.9635 70.4723 25.9635 68.3109 21.1085C68.1048 20.6462 67.6926 19.254 67.6926 18.6207ZM4.1268 10.3382C4.1268 9.69987 4.53898 8.30771 4.74507 7.85036C6.35357 4.24181 11.2796 2.67877 14.6424 6.04106C16.4821 7.88052 17.0501 10.3331 15.9342 12.831C13.1444 19.0982 4.1268 16.6004 4.1268 10.3432V10.3382ZM63.5507 17.7915C63.5507 20.2441 63.5105 21.0884 64.7169 23.4556C65.8881 25.7524 66.5667 25.3905 66.8632 26.4862C64.3198 27.0792 59.7657 31.517 59.2028 33.9395C57.1921 32.4669 55.267 26.2148 55.267 22.762C55.267 20.038 55.9707 17.5201 56.981 15.1579C57.9361 12.9114 59.2078 11.2679 60.8062 9.66972C63.214 7.26234 66.2098 5.47314 69.6781 4.66901C74.006 3.66384 77.5296 4.15134 81.5106 5.84505C85.4313 7.51363 89.156 11.2428 90.8299 15.163C92.8606 19.9325 93.1069 24.0889 91.3828 29.0594C90.9404 30.3309 89.4576 33.3263 88.6081 33.9445C88.0401 31.502 83.4609 27.0792 80.9476 26.4912C81.2442 25.3755 81.9027 25.7926 83.094 23.4606C85.2001 19.3244 84.5165 14.5699 81.2392 11.2931C74.3478 4.40264 63.5558 10.2678 63.5558 17.7965L63.5507 17.7915Z" fill="#818181"/>
</svg>
