<svg width="106" height="106" viewBox="0 0 106 106" fill="black" xmlns="http://www.w3.org/2000/svg">
<path fill-rule="evenodd" clip-rule="evenodd" d="M67.7558 99.8015C67.7737 99.0081 68.9605 94.6978 69.2199 92.0759C69.4495 89.7582 69.7567 85.2958 69.2527 83.1332L82.3765 80.8751C83.7423 80.6454 85.7552 80.1712 86.9867 80.1413C86.6796 81.2957 81.5744 87.5896 80.7424 88.4278L77.2177 92.1683C76.6749 92.7142 76.502 92.7768 75.9414 93.2422C75.4821 93.624 75.1839 93.9909 74.7605 94.4115C74.2536 94.9126 73.8987 95.1125 73.3679 95.5837C72.1095 96.7053 69.1782 99.0499 67.7587 99.8015H67.7558ZM47.6719 21.5842C47.6719 22.3896 47.821 23.7199 48.9542 23.7199H64.1237C66.5361 23.7199 66.059 20.3016 64.3384 20.3016H48.9572C48.4443 20.3016 47.6749 21.0682 47.6749 21.5842H47.6719ZM48.9542 45.7337H64.1237C66.6077 45.7337 65.9487 42.3153 64.3384 42.3153H49.3836C46.8101 42.3153 47.3827 45.7337 48.9572 45.7337H48.9542ZM49.3806 52.7852H64.3354C66.6315 52.7852 66.724 49.1521 64.1207 49.1521H49.5924C46.9563 49.1521 46.9891 52.7852 49.3777 52.7852H49.3806ZM32.0761 27.1413C31.0115 26.4284 29.9081 23.9347 28.6587 23.9347C27.6239 23.9347 26.7353 24.5402 26.7353 25.6439C26.7353 26.7506 28.9062 29.0056 29.8455 30.2256C31.9478 32.949 32.7261 31.726 34.2589 29.9661C35.5083 28.5313 36.5431 27.028 37.7955 25.5962C38.547 24.7341 41.0489 21.963 41.0489 20.9429C41.0489 19.6841 39.4088 17.8466 37.2021 20.7281C36.6505 21.447 36.054 22.1509 35.4964 22.8698C34.3901 24.2897 33.084 25.635 32.0761 27.1413ZM32.0761 49.1521C30.9578 48.4034 29.8395 45.9455 28.6587 45.9455C27.7849 45.9455 26.7353 46.554 26.7353 47.6547C26.7353 48.8359 28.7571 50.8255 29.8455 52.2364C32.7351 55.9799 33.6535 52.3467 37.7955 47.6069C38.4486 46.8582 38.9048 46.2438 39.5221 45.4861C40.0529 44.8358 41.8839 43.2221 40.6553 41.847C38.872 39.8514 36.883 43.0908 35.4934 44.8746C34.411 46.2646 33.0542 47.6815 32.0731 49.1461L32.0761 49.1521ZM49.81 30.7715H68.1852C70.7109 30.7715 70.6781 27.1383 68.1852 27.1383H49.81C46.7505 27.1383 46.834 30.7715 49.81 30.7715ZM17.7624 79.0705C17.7624 77.2867 19.4741 75.0108 21.1798 75.0108C22.6976 75.0108 23.9978 74.9481 25.0683 76.2486C28.6706 80.6186 22.3428 85.5553 18.9821 81.9102C18.3171 81.1883 17.7624 79.7386 17.7624 79.0705ZM14.345 78.2144V79.497C14.345 83.3032 18.0308 86.7633 21.8239 86.7633C26.1806 86.7633 29.4817 83.339 29.7024 79.2524C29.7501 78.3904 29.3237 76.7826 29.0642 76.1025C27.2899 71.4551 20.816 69.5968 16.6382 73.4567C15.7347 74.2919 14.345 76.5768 14.345 78.2174V78.2144ZM63.2708 69.0241C63.3573 68.001 64.064 66.3544 64.3384 65.1762L67.1683 67.9025C65.9457 68.0517 64.41 68.7586 63.2708 69.0211V69.0241ZM8.14843 66.6736L9.60067 65.3492C11.1841 65.7578 12.8302 67.3149 14.3421 67.3149L19.0894 65.4387C19.82 64.8391 20.4522 61.7578 20.9651 60.6899H23.1002C23.3119 61.5997 24.2751 64.7914 24.8417 65.3581C25.1369 65.6534 29.0165 67.3149 29.7232 67.3149C32.3415 67.3149 33.6028 63.5326 35.7052 66.6736C35.4398 67.813 33.57 70.6945 33.57 71.3746C33.57 71.7892 34.3305 73.045 34.5511 73.5969C34.8911 74.45 35.0253 75.4313 35.5382 76.0279C36.4417 77.0779 39.042 77.3434 40.4048 77.9966V80.1324C39.5162 80.3412 36.0212 81.3971 35.5739 81.9251L33.5671 86.7574C33.5671 87.1839 35.398 90.6709 35.7022 91.2466L34.2559 92.7918C28.9002 89.8417 29.929 90.6679 27.3406 91.6463C25.9093 92.1862 24.8984 92.0848 24.302 93.5226C23.9888 94.2802 23.1569 96.6874 23.0942 97.4421H20.9591C20.482 96.4458 20.0884 94.841 19.7127 93.7731C19.0834 91.9834 18.2276 92.3622 16.6859 91.6702C15.1651 90.9871 14.8579 90.2503 13.1224 91.0945C12.1443 91.5718 10.5967 92.5144 9.63347 92.7411L8.18123 91.4166C10.9187 85.9818 10.5728 87.3808 9.38894 84.4397C9.19213 83.9475 8.69414 82.3695 8.39892 82.0086C7.93074 81.4359 4.44179 80.2129 3.43984 80.1324V77.9966C9.38596 76.6096 8.46154 75.8967 9.29352 73.8086C10.4118 71.0077 11.1573 72.3739 8.13948 66.6706L8.14843 66.6736ZM70.5857 66.0859L66.2081 61.8115L85.9669 41.9365L90.4518 46.3183L70.5827 66.083L70.5857 66.0859ZM93.6068 44.4481L87.7859 38.7299C88.6298 37.492 91.4925 34.9147 92.7002 33.7096C94.1286 32.2808 95.9089 29.7036 98.5211 29.7036C101.202 29.7036 104.73 33.2771 100.925 37.0236C100.048 37.8887 99.3382 38.6105 98.4675 39.4815C97.2627 40.6866 94.4 43.2668 93.6068 44.451V44.4481ZM58.7829 71.8041C58.7829 75.0286 63.4557 72.6632 64.9527 72.2038C66.5302 71.7206 68.1285 71.2404 69.706 70.7631C71.9395 70.089 71.5876 70.0025 73.3649 68.2247C75.0826 66.5065 87.9797 53.4057 88.9071 52.7852V76.2934C87.2134 76.2934 84.7771 76.8751 83.1399 77.1495C81.2374 77.4657 79.4393 77.7759 77.495 78.1279C75.7028 78.453 67.0431 79.6283 66.2111 80.3024C65.4954 80.8811 65.567 81.6924 65.7429 82.7931C65.9218 83.9117 65.7519 84.9826 65.8741 86.1011C66.0501 87.691 65.8145 90.4174 65.6057 92.3056C65.5043 93.2213 63.8821 102.582 62.418 102.582H16.4831V95.7418C16.513 95.7836 16.5517 95.8045 16.5607 95.8761L17.0974 97.2631C18.5377 101.69 17.8966 101.084 24.1737 101.084C25.6349 101.084 25.9689 99.9089 26.3387 98.7635C26.613 97.9134 27.2989 96.246 27.3764 95.3153C28.438 95.2258 28.3963 94.8738 29.27 94.6262C30.5194 94.2743 33.5044 96.8127 34.6406 96.8127C35.7976 96.8127 37.9774 94.2444 38.7617 93.454C41.4753 90.7127 36.7339 88.2339 37.6822 85.9848C37.7598 85.8029 38.2518 84.7141 38.3025 84.6574C39.4028 83.3957 44.0428 84.1533 44.0428 80.7826C44.0428 75.0794 44.6989 75.6043 39.6861 74.0294C38.1921 73.5611 38.3591 73.6565 37.7985 72.2665C36.6862 69.5133 41.5618 67.5207 38.7617 64.6929C34.6167 60.5079 35.5083 60.678 31.3663 62.76C31.0502 62.9181 30.0304 63.4819 29.8187 63.5236C29.3744 63.6161 28.8674 63.3208 28.0951 62.9688C26.0285 62.0203 27.0842 57.0597 24.1737 57.0597C18.7405 57.0597 18.5288 56.49 17.6312 59.276L16.4831 62.4021V3.41839H88.9101V32.2689C88.9101 33.1518 84.2612 36.8327 83.784 37.826C83.3874 38.6523 83.8079 38.709 83.3039 39.4845L63.6466 59.1448C61.2639 61.5251 61.9468 61.4088 60.7361 64.9942C60.3663 66.0919 58.7859 70.954 58.7859 71.8071L58.7829 71.8041ZM13.0628 62.8286C11.1364 62.6676 10.3014 60.7645 8.56293 61.534L6.54411 63.3626C5.05311 64.9644 4.30164 65.1374 4.30164 66.4648C4.30164 68.6572 7.80252 70.5334 5.65845 73.3791C4.65352 74.7125 0.0284234 74.1248 0.0284234 76.7229C0.0284234 83.3658 -0.54114 82.4859 3.41897 83.8013C3.95274 83.9803 5.20817 84.2428 5.58987 84.6216C5.85228 84.8811 6.43676 86.295 6.43676 86.7663C6.43676 87.6403 4.30164 90.4979 4.30164 91.6821C4.30164 92.8544 5.69722 93.8268 6.38606 94.5129C9.18617 97.3138 8.47049 97.5316 13.0628 95.1005L13.0449 104.094C13.0598 104.926 13.3043 106 14.345 106H64.1237C65.072 106 67.7737 104.127 68.6981 103.524C76.8867 98.1968 84.5176 90.3607 89.9329 82.2353C90.583 81.2599 92.3871 78.7066 92.5213 77.5581C92.9 74.3157 92.1545 50.2975 92.575 49.1879C93.0134 48.0335 93.3801 49.4026 94.9308 48.126C95.56 47.6069 96.1564 46.9209 96.7588 46.3213L103.799 39.2608C105.502 37.2354 106 36.2153 106 33.3398C106 27.8304 99.0996 24.0749 94.1555 27.4754C93.404 27.9914 93.2132 28.4031 92.5392 28.8505C92.5392 20.5402 92.7032 10.5594 92.5511 2.33859C92.5303 1.16631 92.0382 0 91.0423 0H14.3421C12.4455 0 13.0598 4.30729 13.0598 6.625V62.8316L13.0628 62.8286Z" fill="black"/>
</svg>
