<svg width="97" height="106" viewBox="0 0 97 106" fill="black" xmlns="http://www.w3.org/2000/svg">
<path fill-rule="evenodd" clip-rule="evenodd" d="M3.48222 59.2083H23.764C23.764 62.7456 25.0422 66.2504 26.2943 68.6423C27.8594 71.6282 29.1311 73.2076 31.3973 75.5017C39.4742 83.6794 52.4747 84.4201 62.2406 78.2689C63.2677 77.6228 64.7188 76.4611 65.56 75.6094C69.7696 71.3476 73.2977 65.6989 73.2977 59.2083H93.5795V62.6282L88.4536 64.5469C84.156 66.2406 86.8754 66.3189 83.331 73.5209C80.455 79.3654 80.2855 77.4107 82.4734 82.286C82.9071 83.2486 83.7419 84.9259 83.9701 85.9147L76.7606 93.0155C75.6748 92.4151 70.4218 89.9742 69.4501 89.9742C68.7947 89.9742 65.547 91.8179 64.6829 92.2552C56.2246 96.5235 57.4375 92.0496 54.6398 99.9369C54.3138 100.854 53.8442 101.755 53.6518 102.58H43.4034C43.2142 101.771 42.7838 100.978 42.4708 100.097C39.5818 91.9517 40.935 96.579 32.5158 92.327C31.6973 91.9126 30.9734 91.5634 30.093 91.1196C26.891 89.4945 28.2638 89.563 23.8846 91.3806C22.6716 91.8864 21.4032 92.4053 20.3467 92.9666L13.1372 85.8657C13.4959 83.9829 16.0752 79.9038 16.0752 78.4386C16.0752 77.5999 15.3545 76.7287 15.0089 76.0891L13.8024 73.6645C9.25698 64.2141 14.0568 66.8084 6.13646 63.6039C5.37344 63.2939 4.19306 62.7946 3.48222 62.6282V59.2083ZM39.3503 37.8405H43.6218V49.3794H39.3503V37.8405ZM35.7211 36.1306V51.086C35.7211 52.61 36.9601 53.0081 38.496 53.0081C40.9448 53.0081 47.0358 53.6738 47.0358 51.5135V36.1306C47.0358 35.0961 46.3608 34.4206 45.3272 34.4206H37.4264C36.3928 34.4206 35.7178 35.0961 35.7178 36.1306H35.7211ZM72.6554 30.149H76.9237V49.3794H72.6554V30.149ZM69.0262 28.4391V51.086C69.0262 52.61 70.2653 53.0081 71.8011 53.0081C74.2499 53.0081 80.3409 53.6738 80.3409 51.5135V28.2237C80.3409 27.1893 79.6659 26.5138 78.6323 26.5138H70.5196C69.7435 26.5138 69.0262 27.5548 69.0262 28.4358V28.4391ZM56.0028 24.8071H60.2744V49.3794H56.0028V24.8071ZM52.3736 23.0972V51.086C52.3736 52.61 53.6127 53.0081 55.1485 53.0081C57.5973 53.0081 63.6884 53.6738 63.6884 51.5135V22.8818C63.6884 21.8473 63.0134 21.1718 61.9797 21.1718H53.867C53.091 21.1718 52.3736 22.2128 52.3736 23.0939V23.0972ZM81.8376 1.7294C81.8376 3.60903 83.3897 3.43934 85.2548 3.43934L81.2474 7.12029C80.7583 7.60325 80.38 8.06337 79.8551 8.5039C72.4858 14.6682 76.8911 14.3321 66.3785 9.93973C64.9764 9.35235 63.8612 8.89549 62.4852 8.282C57.6984 6.1511 58.0538 5.98141 55.1224 8.32443C53.5475 9.5873 40.5209 19.2008 39.947 20.0754C39.5916 20.6138 39.5492 20.9956 39.7774 21.583C40.6578 23.8738 42.9632 22.0366 43.8077 21.3578C44.5087 20.7933 45.1218 20.3691 45.8815 19.8013L54.1475 13.5456C59.6679 9.42414 56.3941 9.64931 66.3459 13.8197L74.4488 17.2494C75.9226 17.4648 79.3692 13.4934 80.8366 12.2664C81.4854 11.7215 81.7104 11.6007 82.3234 10.9742C82.9723 10.3117 83.2201 10.1584 83.9147 9.57425C85.0136 8.65728 85.8026 7.63914 86.9667 6.85923C86.9667 11.1602 89.9536 9.81573 90.4394 7.98179C90.6546 7.1725 90.8698 5.88678 91.0231 4.93391C91.9263 -0.584245 92.8687 0.0194567 83.5495 0.0194567C82.5387 0.0194567 81.8409 0.887481 81.8409 1.7294H81.8376ZM89.3112 14.3353H93.5828V49.3761H89.3112V14.3353ZM85.682 12.8408V51.086C85.682 52.61 86.9211 53.0081 88.4569 53.0081C90.9057 53.0081 96.9967 53.6738 96.9967 51.5135V12.6254C96.9967 11.5909 96.3218 10.9154 95.2881 10.9154H87.1754C86.3994 10.9154 85.682 11.9564 85.682 12.8375V12.8408ZM16.7208 39.123C20.7674 39.123 23.3303 39.9877 26.066 42.3764C27.2921 43.4468 27.6182 43.7144 28.6779 45.3166C29.2909 46.2434 30.2659 47.9925 30.3833 49.3794H3.90938C5.13541 44.1092 10.2482 39.123 16.7208 39.123ZM17.3599 35.491C15.3937 35.491 14.2296 35.0113 12.922 33.7353C10.3982 31.2651 10.6754 27.1371 13.0296 24.9637C14.7057 23.4137 17.1838 22.8557 19.5641 23.8803C21.6445 24.7745 23.1575 26.7259 23.1933 29.3234C23.2423 32.7205 20.6532 35.491 17.3566 35.491H17.3599ZM7.53857 29.5094C7.53857 33.4612 9.45588 34.8514 10.7406 36.7734C9.9026 37.1748 9.58957 37.2205 8.72548 37.7491C6.30927 39.2209 5.51692 39.7952 3.64526 42.0664C2.66052 43.2608 -3.23163 53.0146 2.41596 53.0146H31.8799C34.795 53.0146 34.5016 51.073 33.9635 48.792C32.7962 43.8416 29.3789 39.5244 24.9117 37.338C24.3802 37.0769 24.015 36.9953 23.552 36.7734C23.8944 36.2611 24.2335 36.0033 24.6248 35.4975C32.1147 25.7861 18.8109 14.2342 10.258 22.8296C8.80373 24.2915 7.53857 26.6802 7.53857 29.5094ZM27.1812 59.2083H69.8805C69.0979 62.5662 69.3816 63.6691 67.5654 67.1445C66.9752 68.2736 66.3165 69.3472 65.6155 70.3196C60.1505 77.9132 48.7999 81.1732 40.0611 77.0844C37.7655 76.0107 35.6885 74.7413 33.8494 73.0444C33.3864 72.617 33.0081 72.2384 32.6071 71.7228C29.9268 68.2703 28.4203 66.0154 27.5464 61.4012C27.4584 60.928 27.3671 59.6292 27.178 59.205L27.1812 59.2083ZM0.0682343 57.0708V63.9073C0.0682343 65.0103 0.668209 65.3497 1.52904 65.6499C2.429 65.9632 7.63965 67.7384 8.0342 68.3258C8.0342 68.3258 10.1439 74.464 11.0243 76.2294C12.2797 78.7453 13.0068 77.6097 10.7406 82.2827C8.29506 87.3277 8.58853 86.2182 14.21 91.844C20.2163 97.8549 18.6348 97.5221 23.6107 95.3781C28.6681 93.1983 26.1834 93.2994 31.7332 95.8872C39.122 99.3332 37.0743 95.6588 39.3796 101.908C39.6763 102.711 40.0057 103.422 40.3285 104.375C40.6546 105.338 40.9448 106 42.1219 106H54.9333C56.5311 106 56.7495 104.352 57.6201 102.065C57.9788 101.125 58.2429 100.43 58.5658 99.591C59.6418 96.7878 58.8984 98.6707 65.0318 96.021C65.8796 95.6555 66.548 95.3422 67.3502 94.9213C70.1903 93.4267 69.0294 93.3941 73.301 95.3129C78.6388 97.7113 76.8617 97.8386 85.4146 89.2791C88.2417 86.4499 88.5775 86.9753 86.3928 82.423C84.0256 77.4923 84.5962 79.3817 86.9602 74.1572C90.234 66.9226 86.8559 68.8871 92.911 66.6517C93.7132 66.3548 94.424 66.0252 95.3762 65.7021C96.3381 65.3758 97 65.0854 97 63.9073V57.0708C97 56.5553 96.2337 55.7884 95.7185 55.7884H1.35296C0.837767 55.7884 0.0714951 56.5553 0.0714951 57.0708H0.0682343Z" fill="black"/>
</svg>
