<svg width="120" height="95" viewBox="0 0 120 95" fill="black" xmlns="http://www.w3.org/2000/svg">
<path fill-rule="evenodd" clip-rule="evenodd" d="M37.966 91.4426H33.5138C31.6915 91.4426 30.1117 90.3542 29.7638 88.8561H41.9521C41.0809 90.1589 40.1617 91.4426 37.9691 91.4426H37.966ZM52.2638 21.1536C53.5245 21.1536 54.3862 19.1657 54.9223 18.1797C55.3245 17.437 56.9521 15.0041 56.9521 14.3382C56.9521 13.3971 55.1617 10.7017 53.183 14.0853L50.4957 19.1048C50.3713 20.142 51.1053 21.1568 52.2638 21.1568V21.1536ZM0 28.2059C0 30.6292 1.29574 30.4467 4.78404 32.5755C5.5883 33.0653 6.05745 33.379 7.03085 33.379C8.12872 33.379 8.4383 32.1754 8.4383 31.263C8.4383 30.1458 2.72234 27.031 1.64043 27.031C0.852128 27.031 0 27.4472 0 28.2059ZM14.2979 14.1013C14.2979 14.8696 16.7106 18.9608 17.3457 19.9756C18.8266 22.3413 20.8596 20.5742 20.8596 19.5082C20.8596 19.2457 17.9074 12.4559 16.1713 12.4559C15.1691 12.4559 14.2979 13.1794 14.2979 14.1013ZM62.8117 31.4967C62.8117 32.8156 63.6191 33.3758 64.6851 33.3758C65.5117 33.3758 68.9553 31.167 70.2383 30.4851C72.7085 29.1726 71.0011 26.9926 69.8106 26.9254C69.016 26.8806 67.9117 27.6585 67.1617 28.1034C66.3223 28.6028 65.6138 29.0318 64.7617 29.4576C63.9479 29.8641 62.8085 30.4051 62.8085 31.4967H62.8117ZM20.6266 45.3676C20.6266 47.8197 23.2085 48.063 23.9553 46.5904C24.3287 45.8542 23.9394 44.0487 24.983 41.0395C26.8532 35.6519 31.7106 31.7304 37.4968 31.4935C42.4053 31.2919 41.5915 24.6333 30.9383 29.3807C28.3436 30.5364 25.5415 32.9373 23.9489 35.2998C22.1362 37.9824 20.6266 41.763 20.6266 45.3676ZM95.8596 77.3381C93.45 77.3381 92.0553 77.2453 90.1372 75.3213C85.9468 71.1181 88.3245 62.9999 95.3904 62.9999C100.972 62.9999 104.847 70.0329 100.551 74.9916C99.6702 76.0096 97.7298 77.3381 95.8596 77.3381ZM84.3766 69.8152C84.3766 79.0667 94.4521 83.7021 101.119 79.086C102.756 77.9527 104.074 76.5154 104.93 74.6811C107.489 69.1942 105.038 62.9742 99.6989 60.3268C95.4989 58.2461 90.6766 59.4337 87.7117 62.3468C85.8766 64.1523 84.3798 67.1902 84.3798 69.8184L84.3766 69.8152ZM81.8521 53.1785C84.7021 55.0769 84.4468 57.3433 87.6128 55.429C88.1936 55.0769 88.9755 54.7887 89.5691 54.5679C93.1404 53.2426 92.8181 54.427 92.8181 48.6584H97.7394C97.7394 54.2766 97.4043 53.2746 100.819 54.5038C102.207 55.0032 103.599 56.1813 105.006 56.1813C105.814 56.1813 108.109 53.742 108.523 53.1241C109.168 53.5563 109.679 54.0941 110.221 54.7119C110.601 55.1441 110.582 55.2081 110.939 55.6371C111.338 56.1141 111.469 56.1461 111.804 56.6486C110.748 58.23 108.993 58.5118 108.993 60.8807C108.993 61.2072 110.499 63.8354 110.786 64.7253C111.839 67.9873 111.476 67.6992 116.493 67.6992V72.4018C109.896 72.4018 112.385 72.4498 110.011 77.1844C109.337 78.5289 108.993 78.625 108.993 79.6878C108.993 81.2019 111.083 82.3672 111.804 83.4492L108.705 86.6888C105.747 84.8033 106.194 82.7577 103.206 84.4608C102.166 85.053 101.151 85.4948 99.9032 85.8501C97.0308 86.6664 97.5096 87.2362 97.5096 91.4426H92.8213C92.8213 84.8737 93.316 86.4936 89.5691 85.0658C88.3277 84.592 86.9234 83.4492 85.5542 83.4492C84.6128 83.4492 82.6691 85.9237 81.8042 86.5064L78.4692 83.033C79.433 82.364 81.5681 80.4369 81.5681 79.2204C81.5681 78.1768 80.6617 77.6614 79.8351 75.0812C78.8266 71.9248 78.9255 72.1681 74.0681 72.1681V67.4655C81.3989 67.4655 78.0734 67.1518 80.7064 62.3692C81.3511 61.1976 81.5681 61.5369 81.5681 59.9427C81.5681 59.2352 79.0947 57.036 78.5202 56.6519L81.8553 53.1785H81.8521ZM120 65.5864V73.9416C119.751 76.7203 118.609 76.1664 114.14 76.1664C114.083 76.8611 113.253 78.8651 112.969 79.4573C113.722 79.9631 114.227 80.6097 114.903 81.2788C117.677 84.0126 115.934 84.2975 110.802 89.5091C107.457 92.9024 107.441 89.6404 104.531 87.6876C103.58 88.1934 102.667 88.5871 101.483 88.8625C101.483 90.0565 102.006 94.9736 99.6096 94.9736H90.7021C90.2298 94.9736 89.7447 94.5222 89.5372 94.2597C89.2372 93.882 89.1096 93.4946 89.0585 92.8576C88.9723 91.7692 89.0617 90.2326 89.0617 89.0929C88.0213 88.5935 86.8213 88.1838 85.7808 87.6812C85.283 88.4271 84.6926 88.8144 84.0862 89.5091C81.5362 92.4414 80.7415 90.7384 77.5181 87.5051C76.8574 86.8425 76.3245 86.2439 75.6447 85.6228C72.0926 82.3864 75.2745 82.5497 77.3426 79.4541C77.1319 78.5449 76.5766 77.9047 76.1713 76.1632C74.1574 76.1632 70.3117 76.8131 70.3117 74.7515C70.3117 62.8622 69.0415 64.1715 76.1713 64.1715C76.433 63.6209 76.5383 63.0863 76.8032 62.4556C77.0489 61.873 77.317 61.3768 77.5787 60.8807C76.8223 60.3717 74.0617 57.9067 74.0617 56.8855C74.0617 55.4066 76.7202 53.6427 77.6394 52.7176C78.3862 51.9653 80.7925 49.129 81.7947 49.129C83.1638 49.129 84.9447 51.7028 86.0138 52.4199C86.5085 52.1574 87 51.8884 87.584 51.642C88.216 51.3763 88.7457 51.2706 89.2947 51.0081C89.2947 49.8429 89.2532 48.6168 89.2755 47.4612C89.2947 46.5136 89.5755 45.3644 90.7021 45.3644C102.584 45.3644 101.25 44.276 101.25 51.2418C102.606 51.5587 103.174 52.0997 104.531 52.4166C105.501 51.7636 107.371 49.1258 108.514 49.1258C109.452 49.1258 116.014 55.7715 116.014 56.415C116.014 58.7358 114.214 59.0111 112.966 60.8807L114.373 64.1715C116.167 64.1715 119.997 63.5473 119.997 65.5832L120 65.5864ZM50.8596 85.0978C48.3319 85.6901 26.4415 85.3315 22.0309 85.3315C19.2989 85.3315 19.7138 82.7449 21.5617 82.7449H50.1543C51.4628 82.7449 51.3223 84.2367 50.8564 85.0946L50.8596 85.0978ZM49.2191 79.2204H21.7979C19.5957 79.2204 19.7904 76.6338 21.0957 76.6338H50.1574C51.3351 76.6338 52.2511 79.2204 49.2191 79.2204ZM44.767 73.1093H37.5V58.3005L42.2904 55.5826C43.1011 55.1057 43.934 54.7375 44.167 53.7035C44.4128 52.6151 43.6308 51.7156 42.4213 51.7156C41.2819 51.7156 36.3447 55.2433 35.6234 55.2433C35.3489 55.2433 32.9266 53.7868 32.4415 53.4987C31.8574 53.1529 29.566 51.7188 29.0617 51.7188C28.1745 51.7188 27.1883 52.2726 27.1883 53.3642C27.1883 55.9764 33.75 57.2665 33.75 58.7711V73.1125H26.483L25.5319 64.4276C23.2755 53.3546 16.6404 52.6119 16.6404 43.7254C16.6404 37.6591 17.8979 33.4143 22.0883 29.2079C23.7479 27.5432 25.034 26.5829 27.2617 25.4656C29.0394 24.5725 31.9181 23.5065 34.4489 23.5065C35.25 23.5065 34.966 23.641 35.4128 23.6506C36.1947 23.6698 35.5628 23.5065 36.5585 23.5065C39.2426 23.5065 42.0255 24.4797 43.8255 25.3856C50.5468 28.7757 54.6064 34.6723 54.6064 43.2516C54.6064 54.3374 44.7638 54.0557 44.7638 73.1061L44.767 73.1093ZM33.7532 7.75654V19.982C28.1681 19.982 22.9149 23.2536 19.1617 26.9734C13.3372 32.7484 11.167 42.6529 14.4926 50.816C16.1617 54.9168 19.9117 57.2953 21.6479 63.8578C22.3308 66.4412 22.7362 69.9625 22.7362 73.1093H21.0957C18.5106 73.1093 14.4128 76.3553 17.5787 81.1027C15.4372 83.5708 16.4777 86.9609 18.9894 88.3855C20.4543 89.2146 23.5851 88.8593 25.7809 88.8593C26.4862 91.894 29.566 94.9704 33.2808 94.9704C38.1511 94.9704 41.4351 95.569 44.4702 91.385C45.0032 90.6519 45.3766 89.9477 45.466 88.8593C47.3298 88.8593 50.5915 89.1698 52.0436 88.4047C54.5713 87.0794 55.6596 84.2815 54.0606 81.6469L53.6681 81.0995C56.8277 76.3649 52.6723 73.1061 50.1511 73.1061H48.2777C48.2777 54.5391 58.1202 56.623 58.1202 42.781C58.1202 36.2025 55.2957 30.3955 51.967 27.0887C48.2489 23.3945 43.1521 19.9788 37.2606 19.9788V9.16507C37.2606 5.93185 39.4181 3.52453 42.6511 3.52453H88.3532C90.5298 3.52453 92.0968 4.89145 92.8851 6.73535C93.6798 8.59205 93.2745 11.9309 93.2745 14.3382C93.2745 19.6682 93.2745 24.9951 93.2745 30.3251C90.8777 28.7149 88.9181 24.6845 86.4766 24.6845C86.0043 24.6845 85.0691 25.3248 85.0691 26.33C85.0691 27.6585 88.2064 30.2995 89.5819 31.6792C90.2968 32.3963 93.9989 36.4394 94.6787 36.4394C96.6415 36.4394 96.1979 36.2089 98.2532 34.1473L103.174 29.2111C104.167 28.2155 105.227 27.6681 105.227 26.0963C105.227 25.4945 104.576 24.6845 103.353 24.6845C101.531 24.6845 98.9936 28.8461 96.7915 30.3251C96.7915 23.8202 96.7915 17.3186 96.7915 10.8137C96.7915 6.80898 96.5936 5.5349 94.8223 3.14999C93.5904 1.49176 90.9447 0 88.1202 0H42.1851C37.8351 0 33.7468 4.08475 33.7468 7.75654H33.7532Z" fill="black"/>
</svg>
