<svg width="106" height="106" viewBox="0 0 106 106" fill="black" xmlns="http://www.w3.org/2000/svg">
<path fill-rule="evenodd" clip-rule="evenodd" d="M3.42348 83.1445C3.42348 78.9132 3.1764 29.4709 3.59615 26.4983C3.88789 24.4452 4.90898 21.6332 6.20097 20.7703C7.13871 21.3982 14.718 29.1793 16.1916 30.6492L23.6786 38.118C24.3157 39.0583 23.9376 41.6173 23.9376 42.983C23.9376 56.3702 23.9376 69.7544 23.9376 83.1416C22.4581 82.1507 19.9277 78.6544 14.5334 78.6544C10.7468 78.6544 8.38605 79.2049 5.37338 81.4603C4.59045 82.0465 4.12009 82.6744 3.42051 83.1416L3.42348 83.1445ZM80.3596 10.3022C86.0336 10.4272 90.4931 14.9084 90.6181 20.5561H94.0386C94.0386 12.8731 88.049 6.88622 80.3626 6.88622V10.3052L80.3596 10.3022ZM44.4577 79.0858C44.3654 78.6068 44.803 76.5774 44.9637 76.1727C45.9015 73.7863 48.2533 72.1408 50.9295 71.87C51.641 71.7986 53.192 72.0962 53.7844 72.3283C57.839 73.9202 59.7502 79.5857 56.2731 83.204C52.5936 87.0306 45.8271 86.1528 44.4606 79.0858H44.4577ZM41.0372 77.8034C41.0372 80.0261 41.0014 81.1301 42.0285 83.2219C42.4482 84.0789 43.3413 85.3554 43.9665 85.9832C49.7626 91.7767 61.5513 88.9826 61.5513 78.2318C61.5513 75.7204 60.682 73.9381 59.268 72.1825C52.9211 64.3091 41.0342 69.7544 41.0342 77.8034H41.0372ZM78.6508 68.1922C78.6508 72.3104 82.3928 76.3096 86.6082 76.9017C89.1862 77.2648 90.4604 76.7946 93.0056 78.8389C96.3964 81.5615 96.6822 87.0217 93.351 90.1491C92.0352 91.3839 90.1091 92.3302 87.6263 92.3302H70.101V95.7491H88.9064C92.5978 95.7491 96.6286 92.7021 98.0962 89.5539C101.377 82.5226 97.0811 73.8964 88.2663 73.5304C87.0756 73.4798 85.7389 73.1228 84.9322 72.5901C81.9612 70.6292 82.0654 68.2993 82.0654 64.9875H78.6449V68.1922H78.6508ZM38.2597 67.7637L40.3465 65.5767C41.573 66.4307 41.7189 67.3352 43.1746 67.3352C44.0647 67.3352 45.7616 66.1748 46.6189 65.8653C49.6405 64.7792 49.5869 65.7195 49.5869 61.5686H53.0074C53.0074 65.4576 52.8586 64.8387 55.8147 65.8117C57.3865 66.3295 58.098 67.3382 59.8455 67.3382C60.5391 67.3382 61.6346 66.0052 62.1973 65.6302L64.3853 67.7161C63.5309 68.9421 62.6259 69.0879 62.6259 70.5429C62.6259 71.4326 63.7869 73.1287 64.0966 73.9857C65.1831 77.0059 64.2424 76.9523 68.3953 76.9523V80.3713C64.5044 80.3713 65.1236 80.2225 64.1501 83.1773C63.4625 85.2631 61.6019 86.5843 63.3255 88.4292C64.0132 89.1641 63.8346 88.6107 64.3347 89.5569L62.2479 91.744C61.1196 90.9673 61.0095 89.9854 59.4198 89.9854C58.5297 89.9854 56.8328 91.1459 55.9755 91.4553C52.9539 92.5414 53.0074 91.6011 53.0074 95.7521H49.5869C49.5869 91.863 49.7358 92.4819 46.7797 91.5089C45.2079 90.9911 44.4964 89.9824 42.7489 89.9824C42.0553 89.9824 40.9598 91.3155 40.3971 91.6904L38.2091 89.6045C39.0634 88.3786 39.9684 88.2328 39.9684 86.7777C39.9684 85.888 38.8074 84.1919 38.4978 83.335C37.4112 80.3147 38.352 80.3683 34.1991 80.3683V76.9494C38.09 76.9494 37.4708 77.0981 38.4442 74.1434C38.9622 72.5723 39.9714 71.8611 39.9714 70.1144C39.9714 69.4211 38.6377 68.3261 38.2626 67.7637H38.2597ZM46.1664 62.4225C45.1245 62.5088 44.154 63.0861 43.3889 63.4908C40.4477 59.0988 38.7657 62.0238 36.8188 63.9728C34.4402 66.3503 31.8027 67.8619 36.1252 70.7542C35.7203 71.5189 35.1428 72.4919 35.0565 73.5304C29.9689 73.5304 30.7816 72.8311 30.7816 82.0763C30.7816 84.2128 32.9756 83.7843 35.0565 83.7843C35.1428 84.8257 35.7203 85.7958 36.1252 86.5605C31.7759 89.4706 34.5236 91.0477 36.6075 93.1276C38.986 95.5051 40.4983 98.1415 43.3919 93.8209C44.157 94.2256 45.1304 94.8029 46.1694 94.8892C46.1694 99.9744 45.4698 99.1621 54.7192 99.1621C56.8566 99.1621 56.4279 96.9691 56.4279 94.8892C57.4699 94.8029 58.4404 94.2256 59.2054 93.8209C62.1467 98.2129 63.8286 95.2879 65.7755 93.3389C68.1541 90.9614 70.7917 89.4498 66.4692 86.5575C66.874 85.7928 67.4516 84.8198 67.5379 83.7813C72.6255 83.7813 71.8128 84.4806 71.8128 75.2354C71.8128 73.0989 69.6188 73.5274 67.5379 73.5274C67.4516 72.486 66.874 71.5159 66.4692 70.7512C70.8185 67.8411 68.0708 66.264 65.9869 64.1841C63.6083 61.8066 62.096 59.1702 59.2025 63.4908C58.4374 63.0861 57.4639 62.5088 56.425 62.4225C56.425 57.3373 57.1246 58.1496 47.8752 58.1496C45.7377 58.1496 46.1664 60.3426 46.1664 62.4225ZM76.9391 54.7336H83.7771C83.5479 55.7156 83.3455 56.4892 82.7292 57.1052C81.4224 58.4115 79.2909 58.4115 77.984 57.1052C77.076 56.1976 77.4094 55.79 76.9361 54.7336H76.9391ZM71.8098 49.3925V47.8957H88.9064C88.9064 49.0265 89.1535 51.3147 86.9833 51.3147H73.7329C72.6761 51.3147 71.8098 50.4488 71.8098 49.3925ZM49.1583 45.9735C49.191 47.4107 50.1079 48.8003 50.227 50.2465C48.7802 50.1274 47.39 49.211 45.9521 49.1782C46.1486 48.4432 48.42 46.1699 49.1583 45.9735ZM78.6508 34.2259H82.0713V44.4798H78.6508V34.2259ZM42.0553 47.8452C41.3378 47.7172 40.7454 47.4702 39.9714 47.256C39.1885 47.0417 38.4442 46.6847 37.6196 46.6162V42.7718C43.2699 42.7718 42.7489 43.2925 42.7489 37.6448H46.5951L47.8782 42.132L42.0553 47.8481V47.8452ZM86.9863 30.8099H85.4889C85.4889 29.8786 85.3013 27.391 87.1976 27.391C89.2368 27.391 89.5881 30.8099 86.9833 30.8099H86.9863ZM71.8128 29.1019C71.8128 27.0637 75.2333 26.7125 75.2333 29.3162V30.8129C74.3015 30.8129 71.8128 31.0004 71.8128 29.1049V29.1019ZM43.6033 29.1019H61.7686C62.5396 32.4167 66.362 34.0176 67.9547 41.5042C68.6036 44.5542 68.047 47.2857 68.4131 50.4428C68.5352 51.4962 69.3687 52.9245 70.0623 53.4958C70.9614 54.2367 71.9378 54.7366 73.5245 54.7366C73.5245 58.7983 76.8885 61.5715 79.7225 61.5715C81.9433 61.5715 83.4943 61.3454 85.2328 59.6047C86.5129 58.3252 87.2006 56.7838 87.2006 54.7366C89.9156 54.7366 91.925 52.8203 92.2852 50.6333C92.4609 49.5621 92.3358 47.1816 92.3299 45.9795C92.2763 35.7315 98.1111 32.7292 98.9566 29.1049H102.588V102.587H14.328C6.21288 102.587 2.12554 95.3266 3.89682 89.5986C4.45351 87.7924 5.0995 86.742 6.33791 85.4179C11.753 79.6274 22.5057 81.5347 23.8483 91.5744C24.0388 92.9997 24.0656 94.0441 25.6523 94.0441C27.9088 94.0441 27.3611 91.3869 27.3611 89.1314V41.9237C29.0371 43.0455 32.6392 47.3185 34.5683 49.0324C35.4643 49.8299 40.153 51.0112 41.707 51.5081C43.0019 51.9217 44.2255 52.1984 45.4996 52.6299C46.607 53.0048 47.8811 53.3738 49.1166 53.716C50.5693 54.1177 54.7192 56.0637 54.7192 53.0286C54.7192 52.2431 53.1563 47.2441 52.8229 46.1669C52.1233 43.9025 51.5428 41.7393 50.7926 39.4391C49.5304 35.5619 50.2329 35.8297 47.9347 33.5385C46.8362 32.4435 44.3356 30.194 43.6063 29.1049L43.6033 29.1019ZM16.1946 25.7366L19.6151 22.2135L36.8159 39.3023C33.6305 39.3558 34.1991 40.6085 34.1991 43.6287L16.1946 25.7395V25.7366ZM88.9094 43.84V44.4798H85.4889V34.2259H87.6263C90.243 34.2259 92.3269 31.9793 92.3269 28.6735C92.3269 26.0579 90.0793 23.975 86.7719 23.975C84.4201 23.975 82.0713 26.3257 82.0713 28.6735V30.8099H78.6508V28.6735C78.6508 26.0579 76.4032 23.975 73.0958 23.975C70.4791 23.975 68.3953 26.2216 68.3953 29.5275C68.3953 31.8782 70.747 34.2259 73.0958 34.2259H75.2333V44.4798H71.8128C71.8128 32.5864 63.263 30.8456 63.263 20.5561C63.263 15.0988 66.2757 9.40059 70.6101 6.54105C79.7821 0.485738 90.8235 3.51191 95.8903 13.5753C97.4472 16.667 97.7658 20.6275 97.0543 24.0018C96.8221 25.1087 96.5006 26.0996 96.0838 27.0904C95.1818 29.2329 94.3095 30.2356 93.0562 31.9674C91.2046 34.5205 88.9064 39.573 88.9064 43.84H88.9094ZM22.1782 19.7556L25.5987 16.2325L43.6539 34.1753C40.5817 34.2289 39.3254 33.6605 39.3254 36.7909L22.1752 19.7556H22.1782ZM13.7356 23.1746L11.0683 20.6096L20.4695 11.1056L23.1368 13.6706L13.7356 23.1746ZM8.60634 18.0476C6.6624 16.7295 3.42348 13.2599 3.42348 10.3052C3.42348 4.80034 9.9281 1.1969 14.6912 5.23775C15.4116 5.85072 17.5014 7.91578 17.9569 8.59718L8.60634 18.0476ZM0.00595389 9.23694C0.00595389 15.5035 1.73258 15.3637 3.63782 18.2083C2.48575 19.9282 2.46491 19.3896 1.21162 21.9784C0.628135 23.1805 0.00297694 25.2813 0.00297694 26.9655V93.1842C0.00297694 99.6352 6.37066 106 12.8247 106H104.291C105.324 106 106 105.325 106 104.292V27.391C106 25.0165 102.672 25.683 100.231 25.683C100.939 24.2101 100.871 21.4696 100.871 19.7021C100.871 15.6017 98.8315 10.3706 96.2237 7.46944C95.7266 6.91598 95.5837 6.61842 95.0538 6.07686C91.9667 2.92274 86.2599 0.0483272 81.6367 0.0483272C77.5404 0.0483272 75.2482 0.14057 71.4466 2.03899C69.8123 2.85728 66.9574 4.66941 65.7666 5.97272C64.1948 7.68963 62.8909 9.53449 61.8311 11.6501C60.0598 15.1941 59.8395 17.643 59.8395 21.6213C59.8395 22.7015 60.161 25.0135 60.4796 25.68C54.2905 25.68 48.0687 25.6175 41.8826 25.683C39.2331 25.7128 39.6201 25.2277 36.277 21.8891L17.4717 3.09235C10.7081 -3.73067 0 1.82475 0 9.23396L0.00595389 9.23694Z" fill="black"/>
</svg>
