<svg width="2969" height="919" viewBox="0 0 2969 919" fill="none" xmlns="http://www.w3.org/2000/svg">
<mask id="mask0_219_231" style="mask-type:alpha" maskUnits="userSpaceOnUse" x="0" y="0" width="2969" height="919">
<rect width="2969" height="919" fill="#D9D9D9"/>
</mask>
<g mask="url(#mask0_219_231)">
<path fill-rule="evenodd" clip-rule="evenodd" d="M153.355 39.704L2981.51 9.51908L3151.93 319.931L353.598 346.028L153.355 39.704Z" fill="url(#paint0_linear_219_231)"/>
<path fill-rule="evenodd" clip-rule="evenodd" d="M353.597 346.028L3144.66 319.475L3252.46 515.83L33.3506 521.844L353.597 346.028Z" fill="url(#paint1_linear_219_231)"/>
<path fill-rule="evenodd" clip-rule="evenodd" d="M153.355 39.704L353.597 346.028L33.3507 521.844L153.355 39.704Z" fill="#E7912C"/>
<path fill-rule="evenodd" clip-rule="evenodd" d="M215.276 416.968L3043.43 386.783L3213.85 697.195L415.519 723.292L215.276 416.968Z" fill="url(#paint2_linear_219_231)"/>
<path fill-rule="evenodd" clip-rule="evenodd" d="M415.519 723.292L3206.58 696.739L3314.38 893.094L95.2722 899.108L415.519 723.292Z" fill="url(#paint3_linear_219_231)"/>
<path fill-rule="evenodd" clip-rule="evenodd" d="M215.276 416.968L415.519 723.292L95.2723 899.108L215.276 416.968Z" fill="#E7912C"/>
</g>
<defs>
<linearGradient id="paint0_linear_219_231" x1="1369.58" y1="26.3232" x2="299.144" y2="-218.037" gradientUnits="userSpaceOnUse">
<stop stop-color="#E7912C"/>
<stop offset="0.62" stop-color="#D7722A"/>
</linearGradient>
<linearGradient id="paint1_linear_219_231" x1="988.536" y1="477.58" x2="544.492" y2="-73.879" gradientUnits="userSpaceOnUse">
<stop stop-color="#E7912C"/>
<stop offset="0.785" stop-color="#D7722A"/>
</linearGradient>
<linearGradient id="paint2_linear_219_231" x1="1431.51" y1="403.587" x2="361.065" y2="159.227" gradientUnits="userSpaceOnUse">
<stop stop-color="#E7912C"/>
<stop offset="0.62" stop-color="#D7722A"/>
</linearGradient>
<linearGradient id="paint3_linear_219_231" x1="1050.46" y1="854.844" x2="606.414" y2="303.385" gradientUnits="userSpaceOnUse">
<stop stop-color="#E7912C"/>
<stop offset="0.785" stop-color="#D7722A"/>
</linearGradient>
</defs>
</svg>
