<svg id="Layer_x0020_1" xmlns="http://www.w3.org/2000/svg" width="172.815" height="17.598" viewBox="0 0 172.815 17.598" fill="#fff">
  <g id="_105553238633504" transform="translate(0 0)">
    <path id="Path_1" data-name="Path 1" d="M10.067,4.362H11.85a5.006,5.006,0,0,0-.638-1.885A4.638,4.638,0,0,0,9.993,1.116,5.323,5.323,0,0,0,8.323.291,6.9,6.9,0,0,0,6.334.01,6.429,6.429,0,0,0,3.6.563a5.647,5.647,0,0,0-1.99,1.511A6.645,6.645,0,0,0,.4,4.316,8.975,8.975,0,0,0-.01,7.065,9.42,9.42,0,0,0,.375,9.8a6.308,6.308,0,0,0,1.154,2.214,5.373,5.373,0,0,0,1.933,1.474,6.45,6.45,0,0,0,2.721.536,5.657,5.657,0,0,0,4.053-1.406,6.09,6.09,0,0,0,1.746-3.94H10.2a5.119,5.119,0,0,1-.337,1.539,3.7,3.7,0,0,1-.779,1.23,3.535,3.535,0,0,1-1.182.808,3.985,3.985,0,0,1-1.567.292A4.4,4.4,0,0,1,4.27,12.1a4.044,4.044,0,0,1-1.417-1.21,5.237,5.237,0,0,1-.816-1.783,8.722,8.722,0,0,1-.263-2.166,7.712,7.712,0,0,1,.263-2.027,5.2,5.2,0,0,1,.816-1.735,4.066,4.066,0,0,1,1.406-1.21,4.354,4.354,0,0,1,2.055-.451,4.143,4.143,0,0,1,2.429.712,3.315,3.315,0,0,1,1.324,2.14ZM51.176.328v13.4h1.6v-1.3h.037a2.583,2.583,0,0,0,.647.723,3.45,3.45,0,0,0,.816.459,4.388,4.388,0,0,0,.873.244,4.776,4.776,0,0,0,.8.074,4.5,4.5,0,0,0,1.942-.394,3.9,3.9,0,0,0,1.389-1.08,4.561,4.561,0,0,0,.825-1.6A6.867,6.867,0,0,0,60.369,8.9a6.633,6.633,0,0,0-.281-1.951,4.879,4.879,0,0,0-.836-1.622,3.976,3.976,0,0,0-1.389-1.117A4.391,4.391,0,0,0,55.9,3.8a4.619,4.619,0,0,0-1.857.366,2.389,2.389,0,0,0-1.239,1.173h-.037V.328h-1.6Zm7.5,8.462a6.389,6.389,0,0,1-.15,1.389,3.7,3.7,0,0,1-.488,1.2,2.568,2.568,0,0,1-.89.845,2.717,2.717,0,0,1-1.378.318,2.95,2.95,0,0,1-1.406-.309,2.739,2.739,0,0,1-.947-.816,3.428,3.428,0,0,1-.536-1.173,5.67,5.67,0,0,1-.011-2.71A3.511,3.511,0,0,1,53.39,6.36a2.637,2.637,0,0,1,2.288-1.154,2.841,2.841,0,0,1,1.341.3,2.677,2.677,0,0,1,.938.808A3.592,3.592,0,0,1,58.5,7.468a4.925,4.925,0,0,1,.179,1.324Zm6.957,6.228a10.372,10.372,0,0,1-.553,1.2,3.262,3.262,0,0,1-.6.8,2.047,2.047,0,0,1-.731.451,2.828,2.828,0,0,1-.93.141,4.485,4.485,0,0,1-.564-.037,2.875,2.875,0,0,1-.544-.131V15.978a2.571,2.571,0,0,0,.479.159,2.028,2.028,0,0,0,.459.065,1.37,1.37,0,0,0,.816-.235,1.421,1.421,0,0,0,.5-.666l.657-1.633L60.776,4.024h1.8l2.832,7.937h.037l2.721-7.937h1.689l-4.221,11ZM14.678,8.883a4.822,4.822,0,0,1,.235-1.567,3.4,3.4,0,0,1,.647-1.154,2.709,2.709,0,0,1,.967-.712,2.945,2.945,0,0,1,2.347,0,2.782,2.782,0,0,1,.967.712,3.366,3.366,0,0,1,.647,1.154,4.822,4.822,0,0,1,.235,1.567,4.822,4.822,0,0,1-.235,1.567,3.3,3.3,0,0,1-.647,1.145,2.765,2.765,0,0,1-.967.7,2.945,2.945,0,0,1-2.347,0,2.813,2.813,0,0,1-.967-.7,3.3,3.3,0,0,1-.647-1.145,4.822,4.822,0,0,1-.235-1.567Zm-1.689,0a6.383,6.383,0,0,0,.3,1.99,4.555,4.555,0,0,0,.9,1.6,4.144,4.144,0,0,0,1.482,1.069,5.016,5.016,0,0,0,2.027.385,5,5,0,0,0,2.035-.385,4.2,4.2,0,0,0,1.474-1.069,4.536,4.536,0,0,0,.9-1.6,6.373,6.373,0,0,0,.3-1.99,6.469,6.469,0,0,0-.3-2,4.537,4.537,0,0,0-.9-1.613,4.258,4.258,0,0,0-1.474-1.08A4.893,4.893,0,0,0,17.7,3.8a4.915,4.915,0,0,0-2.027.394,4.251,4.251,0,0,0-1.482,1.08,4.537,4.537,0,0,0-.9,1.613,6.449,6.449,0,0,0-.3,2Zm12.041.076a6.388,6.388,0,0,1,.15-1.389,3.7,3.7,0,0,1,.488-1.2,2.528,2.528,0,0,1,.9-.845,2.728,2.728,0,0,1,1.369-.32,2.95,2.95,0,0,1,1.406.309,2.739,2.739,0,0,1,.947.816A3.428,3.428,0,0,1,30.826,7.5a5.67,5.67,0,0,1,.011,2.71,3.511,3.511,0,0,1-.516,1.173,2.757,2.757,0,0,1-.919.836,2.728,2.728,0,0,1-1.369.318,2.841,2.841,0,0,1-1.341-.3,2.655,2.655,0,0,1-.938-.808,3.592,3.592,0,0,1-.544-1.154,4.925,4.925,0,0,1-.179-1.324Zm7.506,4.765V.328h-1.6V5.32H30.9a2.583,2.583,0,0,0-.647-.723,3.743,3.743,0,0,0-.816-.47,4.035,4.035,0,0,0-.862-.253A4.732,4.732,0,0,0,27.77,3.8a4.433,4.433,0,0,0-1.942.4,4,4,0,0,0-1.389,1.088,4.6,4.6,0,0,0-.825,1.6,6.867,6.867,0,0,0-.272,1.951,6.633,6.633,0,0,0,.281,1.951,4.775,4.775,0,0,0,.836,1.613,4.028,4.028,0,0,0,1.389,1.108,4.391,4.391,0,0,0,1.961.414,4.73,4.73,0,0,0,1.857-.357A2.345,2.345,0,0,0,30.9,12.41h.037v1.313h1.6Zm8.777-5.78H35.739a3.366,3.366,0,0,1,.244-1.06,2.8,2.8,0,0,1,.564-.873,2.571,2.571,0,0,1,.853-.59,2.777,2.777,0,0,1,1.117-.216,2.726,2.726,0,0,1,1.1.216,2.694,2.694,0,0,1,1.443,1.454,3.239,3.239,0,0,1,.253,1.069Zm1.539,2.7H41.275a2.27,2.27,0,0,1-.853,1.426,2.753,2.753,0,0,1-1.661.47,3.284,3.284,0,0,1-1.369-.263,2.707,2.707,0,0,1-.958-.7,2.748,2.748,0,0,1-.544-1.012,3.818,3.818,0,0,1-.15-1.21H43A7.7,7.7,0,0,0,42.84,7.5a5.341,5.341,0,0,0-.714-1.8,4.259,4.259,0,0,0-1.369-1.361A3.971,3.971,0,0,0,38.609,3.8a4.438,4.438,0,0,0-1.829.374,4.3,4.3,0,0,0-1.445,1.051,4.814,4.814,0,0,0-.947,1.6,5.856,5.856,0,0,0-.337,2.027,7.815,7.815,0,0,0,.329,2.044,4.472,4.472,0,0,0,.873,1.613,3.98,3.98,0,0,0,1.435,1.051,4.973,4.973,0,0,0,2.016.374,4.4,4.4,0,0,0,2.739-.825,3.872,3.872,0,0,0,1.406-2.458Z" transform="translate(0.01 -0.01)" fill="#fff"/>
    <path id="Path_2" data-name="Path 2" d="M361.287,4.362h1.783a5.007,5.007,0,0,0-.638-1.885,4.639,4.639,0,0,0-1.219-1.361,5.323,5.323,0,0,0-1.67-.825,6.9,6.9,0,0,0-1.99-.281,6.429,6.429,0,0,0-2.73.553,5.647,5.647,0,0,0-1.99,1.511,6.645,6.645,0,0,0-1.21,2.242,8.975,8.975,0,0,0-.414,2.749A9.42,9.42,0,0,0,351.6,9.8a6.308,6.308,0,0,0,1.154,2.214,5.373,5.373,0,0,0,1.933,1.474,6.45,6.45,0,0,0,2.721.536,5.657,5.657,0,0,0,4.053-1.406,6.09,6.09,0,0,0,1.746-3.94H361.42a5.119,5.119,0,0,1-.337,1.539,3.7,3.7,0,0,1-.779,1.23,3.535,3.535,0,0,1-1.182.808,3.985,3.985,0,0,1-1.567.292,4.4,4.4,0,0,1-2.064-.451,4.044,4.044,0,0,1-1.417-1.21,5.237,5.237,0,0,1-.816-1.783,8.723,8.723,0,0,1-.263-2.166,7.711,7.711,0,0,1,.263-2.027,5.2,5.2,0,0,1,.816-1.735,4.067,4.067,0,0,1,1.406-1.21,4.354,4.354,0,0,1,2.055-.451,4.143,4.143,0,0,1,2.429.712,3.315,3.315,0,0,1,1.324,2.14Z" transform="translate(-274.752 -0.01)" fill="#fff"/>
    <path id="Path_3" data-name="Path 3" d="M490.145,10.091A6.389,6.389,0,0,1,490.3,8.7a3.7,3.7,0,0,1,.488-1.2,2.527,2.527,0,0,1,.9-.845,2.728,2.728,0,0,1,1.369-.32,2.95,2.95,0,0,1,1.406.309,2.738,2.738,0,0,1,.947.816,3.427,3.427,0,0,1,.536,1.173,5.669,5.669,0,0,1,.011,2.71,3.511,3.511,0,0,1-.516,1.173,2.757,2.757,0,0,1-.919.836,2.728,2.728,0,0,1-1.369.318,2.84,2.84,0,0,1-1.341-.3,2.655,2.655,0,0,1-.938-.808,3.592,3.592,0,0,1-.544-1.154,4.926,4.926,0,0,1-.179-1.324ZM553.01,5.156V2.248h-1.6V5.156h-1.65V6.563h1.65v6.174a3.708,3.708,0,0,0,.131,1.088,1.328,1.328,0,0,0,.4.638,1.552,1.552,0,0,0,.712.309,5.69,5.69,0,0,0,1.06.085h1.219V13.45h-.732a5.126,5.126,0,0,1-.609-.028.787.787,0,0,1-.366-.122.475.475,0,0,1-.178-.263,1.779,1.779,0,0,1-.048-.451V6.563h1.933V5.156h-1.933Zm-10.4,6.642h-1.6a3.546,3.546,0,0,0,.374,1.53,2.794,2.794,0,0,0,.9,1.012,3.775,3.775,0,0,0,1.3.553,6.792,6.792,0,0,0,1.539.17,7.732,7.732,0,0,0,1.474-.141,4,4,0,0,0,1.332-.5,2.861,2.861,0,0,0,.958-.938,2.7,2.7,0,0,0,.366-1.463,2.285,2.285,0,0,0-.272-1.162,2.4,2.4,0,0,0-.714-.779,3.778,3.778,0,0,0-1.012-.5,12.074,12.074,0,0,0-1.173-.32c-.374-.087-.751-.172-1.125-.253a6.271,6.271,0,0,1-1.012-.3,2.378,2.378,0,0,1-.742-.451.9.9,0,0,1-.292-.686.951.951,0,0,1,.187-.61,1.322,1.322,0,0,1,.488-.374,2.423,2.423,0,0,1,.666-.2,4.82,4.82,0,0,1,.723-.057,3.606,3.606,0,0,1,.779.085,2.34,2.34,0,0,1,.7.272,1.588,1.588,0,0,1,.525.5,1.608,1.608,0,0,1,.244.779h1.6a3.582,3.582,0,0,0-.374-1.474,2.521,2.521,0,0,0-.853-.938,3.532,3.532,0,0,0-1.228-.488,7.673,7.673,0,0,0-1.52-.141,5.333,5.333,0,0,0-1.284.159,3.86,3.86,0,0,0-1.162.488,2.7,2.7,0,0,0-.845.853,2.313,2.313,0,0,0-.329,1.256,2.117,2.117,0,0,0,.47,1.463,3.161,3.161,0,0,0,1.173.816,7.994,7.994,0,0,0,1.53.451c.551.107,1.06.224,1.528.357a3.955,3.955,0,0,1,1.173.516,1.059,1.059,0,0,1,.468.938,1.171,1.171,0,0,1-.224.74,1.437,1.437,0,0,1-.573.442,2.868,2.868,0,0,1-.76.207,5.914,5.914,0,0,1-.788.057,4.689,4.689,0,0,1-.947-.094,2.668,2.668,0,0,1-.825-.309,1.676,1.676,0,0,1-.59-.581,1.8,1.8,0,0,1-.244-.89Zm-2.236,3.022a2.25,2.25,0,0,1-1.145.244,1.371,1.371,0,0,1-.984-.346,1.507,1.507,0,0,1-.366-1.134,3.812,3.812,0,0,1-1.528,1.134,5.286,5.286,0,0,1-3.133.2,2.893,2.893,0,0,1-1.023-.47,2.268,2.268,0,0,1-.686-.834,2.8,2.8,0,0,1-.253-1.247,2.858,2.858,0,0,1,.281-1.352,2.452,2.452,0,0,1,.74-.853,3.348,3.348,0,0,1,1.052-.5,12.079,12.079,0,0,1,1.21-.281q.656-.131,1.247-.2A7.013,7.013,0,0,0,536.829,9a1.709,1.709,0,0,0,.712-.357.869.869,0,0,0,.263-.686,1.6,1.6,0,0,0-.2-.845,1.343,1.343,0,0,0-.507-.488,2.035,2.035,0,0,0-.695-.224,5.318,5.318,0,0,0-.76-.057,3.373,3.373,0,0,0-1.689.385,1.63,1.63,0,0,0-.731,1.454h-1.6A3.465,3.465,0,0,1,532,6.661a2.821,2.821,0,0,1,.9-1A3.732,3.732,0,0,1,534.19,5.1a6.745,6.745,0,0,1,1.548-.17,8.991,8.991,0,0,1,1.3.094,3.433,3.433,0,0,1,1.173.385,2.25,2.25,0,0,1,.845.816,2.607,2.607,0,0,1,.32,1.369v4.992a3.748,3.748,0,0,0,.065.825c.044.174.192.263.442.263a1.561,1.561,0,0,0,.488-.094v1.239Zm-2.588-4.972a2,2,0,0,1-.788.329c-.324.07-.666.124-1.023.17s-.716.094-1.08.15a3.912,3.912,0,0,0-.975.272,1.75,1.75,0,0,0-.7.536,1.5,1.5,0,0,0-.272.947,1.29,1.29,0,0,0,.159.666,1.342,1.342,0,0,0,.414.442,1.729,1.729,0,0,0,.59.244,3.279,3.279,0,0,0,.714.076,3.8,3.8,0,0,0,1.352-.216,2.823,2.823,0,0,0,.919-.544,2.151,2.151,0,0,0,.525-.712,1.793,1.793,0,0,0,.17-.723V9.852Zm-9.121-.768h-5.573a3.367,3.367,0,0,1,.244-1.06,2.8,2.8,0,0,1,.564-.873,2.571,2.571,0,0,1,.853-.59,2.777,2.777,0,0,1,1.117-.216,2.726,2.726,0,0,1,1.1.216,2.694,2.694,0,0,1,1.443,1.454,3.24,3.24,0,0,1,.253,1.069Zm1.539,2.7h-1.576a2.27,2.27,0,0,1-.853,1.426,2.753,2.753,0,0,1-1.661.47,3.284,3.284,0,0,1-1.369-.263,2.706,2.706,0,0,1-.958-.7,2.747,2.747,0,0,1-.544-1.012,3.819,3.819,0,0,1-.15-1.21h7.26a7.7,7.7,0,0,0-.159-1.857,5.341,5.341,0,0,0-.714-1.8A4.258,4.258,0,0,0,528.11,5.47a3.971,3.971,0,0,0-2.149-.536,4.438,4.438,0,0,0-1.829.374,4.3,4.3,0,0,0-1.445,1.051,4.813,4.813,0,0,0-.947,1.6,5.856,5.856,0,0,0-.337,2.027,7.811,7.811,0,0,0,.329,2.044,4.472,4.472,0,0,0,.873,1.613,3.979,3.979,0,0,0,1.435,1.051,4.973,4.973,0,0,0,2.016.374,4.4,4.4,0,0,0,2.738-.825,3.871,3.871,0,0,0,1.406-2.458ZM511.566,7.222V2.962h3.566a8.745,8.745,0,0,1,1.1.065,2.434,2.434,0,0,1,.91.292,1.6,1.6,0,0,1,.62.638,2.362,2.362,0,0,1,.224,1.125,1.934,1.934,0,0,1-.666,1.6,3.512,3.512,0,0,1-2.186.536h-3.566Zm-1.783-5.76v13.4h6.472a4.373,4.373,0,0,0,1.755-.329,3.888,3.888,0,0,0,1.276-.862,3.592,3.592,0,0,0,.779-1.23,4.023,4.023,0,0,0,.263-1.426,3.369,3.369,0,0,0-.657-2.1,3.08,3.08,0,0,0-1.9-1.125V7.749A3.05,3.05,0,0,0,519.248,6.6a3.264,3.264,0,0,0,.516-1.848A3.018,3.018,0,0,0,519.3,3.04a3.5,3.5,0,0,0-1.117-1.088,2.289,2.289,0,0,0-.723-.281,7.676,7.676,0,0,0-.91-.141c-.324-.03-.653-.05-.984-.057s-.64-.009-.93-.009h-4.859Zm1.783,11.895V8.722h4.071a5.751,5.751,0,0,1,1.088.1,2.722,2.722,0,0,1,.93.357,1.883,1.883,0,0,1,.647.686,2.182,2.182,0,0,1,.244,1.088,2.323,2.323,0,0,1-.666,1.763,2.566,2.566,0,0,1-1.848.638ZM506.4,9.079h-5.573a3.367,3.367,0,0,1,.244-1.06,2.8,2.8,0,0,1,.564-.873,2.571,2.571,0,0,1,.853-.59,2.777,2.777,0,0,1,1.117-.216,2.726,2.726,0,0,1,1.1.216,2.694,2.694,0,0,1,1.443,1.454,3.239,3.239,0,0,1,.253,1.069Zm1.539,2.7h-1.576a2.27,2.27,0,0,1-.853,1.426,2.752,2.752,0,0,1-1.661.47,3.284,3.284,0,0,1-1.369-.263,2.707,2.707,0,0,1-.958-.7,2.748,2.748,0,0,1-.544-1.012,3.818,3.818,0,0,1-.15-1.21h7.26a7.7,7.7,0,0,0-.159-1.857,5.339,5.339,0,0,0-.714-1.8,4.258,4.258,0,0,0-1.369-1.361,3.971,3.971,0,0,0-2.149-.536,4.438,4.438,0,0,0-1.829.374,4.3,4.3,0,0,0-1.446,1.051,4.814,4.814,0,0,0-.947,1.6,5.856,5.856,0,0,0-.337,2.027,7.816,7.816,0,0,0,.329,2.044,4.472,4.472,0,0,0,.873,1.613,3.979,3.979,0,0,0,1.435,1.051,4.973,4.973,0,0,0,2.016.374,4.4,4.4,0,0,0,2.739-.825,3.872,3.872,0,0,0,1.406-2.458Zm-10.288,3.076V1.46h-1.6V6.452h-.037a2.583,2.583,0,0,0-.647-.723,3.744,3.744,0,0,0-.816-.47,4.035,4.035,0,0,0-.862-.253,4.731,4.731,0,0,0-.808-.076,4.433,4.433,0,0,0-1.942.4,4,4,0,0,0-1.389,1.088,4.6,4.6,0,0,0-.825,1.6,6.867,6.867,0,0,0-.272,1.951,6.634,6.634,0,0,0,.281,1.951,4.775,4.775,0,0,0,.836,1.613,4.028,4.028,0,0,0,1.389,1.108,4.391,4.391,0,0,0,1.961.414,4.73,4.73,0,0,0,1.857-.357,2.345,2.345,0,0,0,1.239-1.162h.037v1.313h1.6Z" transform="translate(-382.124 -1.144)" fill="#fff"/>
    <path id="Path_4" data-name="Path 4" d="M415.839,17.68h5.593a5.029,5.029,0,1,1,0,10.057h-5.593a5.029,5.029,0,0,1,0-10.057Zm0,1.552h5.595a3.32,3.32,0,0,1,3.274,3.477,3.32,3.32,0,0,1-3.274,3.477h-5.595a3.343,3.343,0,0,1-3.3-3.477A3.343,3.343,0,0,1,415.837,19.232Z" transform="translate(-321.378 -13.833)" fill="#fff" fill-rule="evenodd"/>
  </g>
</svg>
